<?xml version="1.0" encoding="utf-8"?>
<!-- Generator: Adobe Illustrator 16.0.3, SVG Export Plug-In . SVG Version: 6.00 Build 0)  -->
<!DOCTYPE svg PUBLIC "-//W3C//DTD SVG 1.1//EN" "http://www.w3.org/Graphics/SVG/1.1/DTD/svg11.dtd">
<svg version="1.1" id="Layer_1" xmlns="http://www.w3.org/2000/svg" xmlns:xlink="http://www.w3.org/1999/xlink" x="0px" y="0px"
	 width="100px" height="231.515px" viewBox="0 0 100 231.515" enable-background="new 0 0 100 231.515" xml:space="preserve">
<g>
	<g>
		<polygon points="0.359,44.248 0.359,232.432 100.081,232.432 100.081,44.248 50.22,0.139 		"/>
		<path fill="#070606" d="M100.081,232.57H0.359c-0.078,0-0.139-0.063-0.139-0.139V44.248c0-0.04,0.017-0.078,0.047-0.104
			L50.127,0.035c0.053-0.047,0.131-0.047,0.185,0l49.861,44.108c0.029,0.026,0.047,0.065,0.047,0.104v188.184
			C100.22,232.507,100.156,232.57,100.081,232.57z M0.498,232.292h99.443V44.311L50.22,0.325L0.498,44.311V232.292z"/>
	</g>
	<g>
		<g>
			<g>
				
					<linearGradient id="SVGID_1_" gradientUnits="userSpaceOnUse" x1="-287.936" y1="-524.6479" x2="-269.2438" y2="-543.3402" gradientTransform="matrix(0 -1 1 0 584.2158 -246.584)">
					<stop  offset="0.0056" style="stop-color:#FBCA11"/>
					<stop  offset="0.2528" style="stop-color:#FFFFBF"/>
					<stop  offset="0.2997" style="stop-color:#F9F3AE"/>
					<stop  offset="0.393" style="stop-color:#E8D381"/>
					<stop  offset="0.5226" style="stop-color:#CEA139"/>
					<stop  offset="0.5955" style="stop-color:#BE820E"/>
					<stop  offset="0.8558" style="stop-color:#E8D56A"/>
					<stop  offset="0.8708" style="stop-color:#EADA6F"/>
					<stop  offset="1" style="stop-color:#FFFFBF"/>
				</linearGradient>
				<circle fill="url(#SVGID_1_)" cx="50.221" cy="32.005" r="13.218"/>
				<path fill="#D8962D" d="M50.221,45.473c-7.426,0-13.467-6.042-13.467-13.467c0-7.428,6.042-13.47,13.467-13.47
					c7.425,0,13.466,6.042,13.466,13.47C63.687,39.432,57.646,45.473,50.221,45.473z M50.221,19.038
					c-7.149,0-12.965,5.818-12.965,12.969c0,7.15,5.816,12.965,12.965,12.965c7.147,0,12.966-5.815,12.966-12.965
					C63.187,24.856,57.368,19.038,50.221,19.038z"/>
			</g>
			
				<radialGradient id="SVGID_2_" cx="-270.7808" cy="-542.105" r="22.9159" gradientTransform="matrix(0 -1 1 0 584.2163 -246.584)" gradientUnits="userSpaceOnUse">
				<stop  offset="0" style="stop-color:#FFFFBF"/>
				<stop  offset="0.1369" style="stop-color:#F9F3AE"/>
				<stop  offset="0.4091" style="stop-color:#E8D381"/>
				<stop  offset="0.7872" style="stop-color:#CEA139"/>
				<stop  offset="1" style="stop-color:#BE820E"/>
			</radialGradient>
			<path fill="url(#SVGID_2_)" d="M39.091,32.011c0.006,6.151,4.979,11.121,11.128,11.128l0,0
				c6.147-0.007,11.118-4.977,11.132-11.128l0,0c-0.014-6.146-4.984-11.125-11.132-11.138l0,0
				C44.07,20.886,39.097,25.865,39.091,32.011L39.091,32.011z"/>
		</g>
	</g>
</g>
<linearGradient id="rect2678_2_" gradientUnits="userSpaceOnUse" x1="0.0762" y1="183.748" x2="99.9238" y2="183.748">
	<stop  offset="0.0056" style="stop-color:#FBCA11"/>
	<stop  offset="0.2528" style="stop-color:#FFFFBF"/>
	<stop  offset="0.2997" style="stop-color:#F9F3AE"/>
	<stop  offset="0.393" style="stop-color:#E8D381"/>
	<stop  offset="0.5226" style="stop-color:#CEA139"/>
	<stop  offset="0.5955" style="stop-color:#BE820E"/>
	<stop  offset="0.8558" style="stop-color:#E8D56A"/>
	<stop  offset="0.8708" style="stop-color:#EADA6F"/>
	<stop  offset="1" style="stop-color:#FFFFBF"/>
</linearGradient>
<rect id="rect2678" x="0.076" y="172.366" fill="url(#rect2678_2_)" width="99.848" height="22.764"/>
<linearGradient id="rect2786_2_" gradientUnits="userSpaceOnUse" x1="0.0762" y1="154.5449" x2="99.9238" y2="154.5449">
	<stop  offset="0.0056" style="stop-color:#FBCA11"/>
	<stop  offset="0.2528" style="stop-color:#FFFFBF"/>
	<stop  offset="0.2997" style="stop-color:#F9F3AE"/>
	<stop  offset="0.393" style="stop-color:#E8D381"/>
	<stop  offset="0.5226" style="stop-color:#CEA139"/>
	<stop  offset="0.5955" style="stop-color:#BE820E"/>
	<stop  offset="0.8558" style="stop-color:#E8D56A"/>
	<stop  offset="0.8708" style="stop-color:#EADA6F"/>
	<stop  offset="1" style="stop-color:#FFFFBF"/>
</linearGradient>
<rect id="rect2786_1_" x="0.076" y="143.163" fill="url(#rect2786_2_)" width="99.848" height="22.764"/>
<linearGradient id="rect2678_3_" gradientUnits="userSpaceOnUse" x1="0.0762" y1="213.1387" x2="99.9238" y2="213.1387">
	<stop  offset="0.0056" style="stop-color:#FBCA11"/>
	<stop  offset="0.2528" style="stop-color:#FFFFBF"/>
	<stop  offset="0.2997" style="stop-color:#F9F3AE"/>
	<stop  offset="0.393" style="stop-color:#E8D381"/>
	<stop  offset="0.5226" style="stop-color:#CEA139"/>
	<stop  offset="0.5955" style="stop-color:#BE820E"/>
	<stop  offset="0.8558" style="stop-color:#E8D56A"/>
	<stop  offset="0.8708" style="stop-color:#EADA6F"/>
	<stop  offset="1" style="stop-color:#FFFFBF"/>
</linearGradient>
<rect id="rect2678_1_" x="0.076" y="201.757" fill="url(#rect2678_3_)" width="99.848" height="22.764"/>
<g>
	<linearGradient id="SVGID_3_" gradientUnits="userSpaceOnUse" x1="50.0869" y1="104.8301" x2="56.9574" y2="106.1497">
		<stop  offset="0.0056" style="stop-color:#FBCA11"/>
		<stop  offset="0.2528" style="stop-color:#FFFFBF"/>
		<stop  offset="0.2997" style="stop-color:#F9F3AE"/>
		<stop  offset="0.393" style="stop-color:#E8D381"/>
		<stop  offset="0.5226" style="stop-color:#CEA139"/>
		<stop  offset="0.5955" style="stop-color:#BE820E"/>
		<stop  offset="0.8558" style="stop-color:#E8D56A"/>
		<stop  offset="0.8708" style="stop-color:#EADA6F"/>
		<stop  offset="1" style="stop-color:#FFFFBF"/>
	</linearGradient>
	<path fill="url(#SVGID_3_)" d="M50.023,116.483c0.88,0,1.739,0.091,2.572,0.254l4.401-22.251c-2.257-0.442-4.587-0.68-6.973-0.68
		c-0.007,0-0.014,0-0.021,0v22.678C50.009,116.484,50.016,116.483,50.023,116.483z"/>
	
		<linearGradient id="SVGID_4_" gradientUnits="userSpaceOnUse" x1="160.2871" y1="98.8931" x2="167.1576" y2="100.2126" gradientTransform="matrix(0.9819 -0.1893 0.1893 0.9819 -130.7607 38.4931)">
		<stop  offset="0.0056" style="stop-color:#FBCA11"/>
		<stop  offset="0.2528" style="stop-color:#FFFFBF"/>
		<stop  offset="0.2997" style="stop-color:#F9F3AE"/>
		<stop  offset="0.393" style="stop-color:#E8D381"/>
		<stop  offset="0.5226" style="stop-color:#CEA139"/>
		<stop  offset="0.5955" style="stop-color:#BE820E"/>
		<stop  offset="0.8558" style="stop-color:#E8D56A"/>
		<stop  offset="0.8708" style="stop-color:#EADA6F"/>
		<stop  offset="1" style="stop-color:#FFFFBF"/>
	</linearGradient>
	<path fill="url(#SVGID_4_)" d="M47.49,116.721c0.864-0.166,1.726-0.239,2.574-0.236l0.11-22.683
		c-2.3-0.008-4.633,0.201-6.976,0.652c-0.007,0.001-0.014,0.003-0.021,0.004l4.292,22.268
		C47.477,116.725,47.483,116.723,47.49,116.721z"/>
	
		<linearGradient id="SVGID_5_" gradientUnits="userSpaceOnUse" x1="269.6211" y1="113.9229" x2="276.4916" y2="115.2424" gradientTransform="matrix(0.9284 -0.3717 0.3717 0.9284 -251.8724 101.0376)">
		<stop  offset="0.0056" style="stop-color:#FBCA11"/>
		<stop  offset="0.2528" style="stop-color:#FFFFBF"/>
		<stop  offset="0.2997" style="stop-color:#F9F3AE"/>
		<stop  offset="0.393" style="stop-color:#E8D381"/>
		<stop  offset="0.5226" style="stop-color:#CEA139"/>
		<stop  offset="0.5955" style="stop-color:#BE820E"/>
		<stop  offset="0.8558" style="stop-color:#E8D56A"/>
		<stop  offset="0.8708" style="stop-color:#EADA6F"/>
		<stop  offset="1" style="stop-color:#FFFFBF"/>
	</linearGradient>
	<path fill="url(#SVGID_5_)" d="M45.047,117.434c0.817-0.326,1.649-0.562,2.483-0.719l-4.185-22.294
		c-2.26,0.427-4.511,1.074-6.727,1.961c-0.006,0.002-0.013,0.005-0.02,0.008l8.429,21.053
		C45.036,117.439,45.042,117.438,45.047,117.434z"/>
	
		<linearGradient id="SVGID_6_" gradientUnits="userSpaceOnUse" x1="374.1348" y1="149.3711" x2="381.0063" y2="150.6909" gradientTransform="matrix(0.8413 -0.5406 0.5406 0.8413 -358.9614 185.3723)">
		<stop  offset="0.0056" style="stop-color:#FBCA11"/>
		<stop  offset="0.2528" style="stop-color:#FFFFBF"/>
		<stop  offset="0.2997" style="stop-color:#F9F3AE"/>
		<stop  offset="0.393" style="stop-color:#E8D381"/>
		<stop  offset="0.5226" style="stop-color:#CEA139"/>
		<stop  offset="0.5955" style="stop-color:#BE820E"/>
		<stop  offset="0.8558" style="stop-color:#E8D56A"/>
		<stop  offset="0.8708" style="stop-color:#EADA6F"/>
		<stop  offset="1" style="stop-color:#FFFFBF"/>
	</linearGradient>
	<path fill="url(#SVGID_6_)" d="M42.784,118.596c0.741-0.475,1.514-0.863,2.303-1.176l-8.328-21.099
		c-2.139,0.847-4.226,1.909-6.233,3.198c-0.006,0.003-0.012,0.007-0.018,0.012l12.261,19.077
		C42.774,118.604,42.779,118.602,42.784,118.596z"/>
	
		<linearGradient id="SVGID_7_" gradientUnits="userSpaceOnUse" x1="470.0518" y1="203.958" x2="476.9242" y2="205.278" gradientTransform="matrix(0.7237 -0.6901 0.6901 0.7237 -448.153 288.4484)">
		<stop  offset="0.0056" style="stop-color:#FBCA11"/>
		<stop  offset="0.2528" style="stop-color:#FFFFBF"/>
		<stop  offset="0.2997" style="stop-color:#F9F3AE"/>
		<stop  offset="0.393" style="stop-color:#E8D381"/>
		<stop  offset="0.5226" style="stop-color:#CEA139"/>
		<stop  offset="0.5955" style="stop-color:#BE820E"/>
		<stop  offset="0.8558" style="stop-color:#E8D56A"/>
		<stop  offset="0.8708" style="stop-color:#EADA6F"/>
		<stop  offset="1" style="stop-color:#FFFFBF"/>
	</linearGradient>
	<path fill="url(#SVGID_7_)" d="M40.782,120.165c0.638-0.606,1.322-1.134,2.038-1.59L30.65,99.434
		c-1.94,1.236-3.788,2.675-5.517,4.32c-0.004,0.004-0.01,0.009-0.015,0.015l15.649,16.412
		C40.773,120.176,40.778,120.172,40.782,120.165z"/>
	
		<linearGradient id="SVGID_8_" gradientUnits="userSpaceOnUse" x1="553.9023" y1="275.7109" x2="560.7738" y2="277.0307" gradientTransform="matrix(0.5801 -0.8146 0.8146 0.5801 -516.2257 406.5428)">
		<stop  offset="0.0056" style="stop-color:#FBCA11"/>
		<stop  offset="0.2528" style="stop-color:#FFFFBF"/>
		<stop  offset="0.2997" style="stop-color:#F9F3AE"/>
		<stop  offset="0.393" style="stop-color:#E8D381"/>
		<stop  offset="0.5226" style="stop-color:#CEA139"/>
		<stop  offset="0.5955" style="stop-color:#BE820E"/>
		<stop  offset="0.8558" style="stop-color:#E8D56A"/>
		<stop  offset="0.8708" style="stop-color:#EADA6F"/>
		<stop  offset="1" style="stop-color:#FFFFBF"/>
	</linearGradient>
	<path fill="url(#SVGID_8_)" d="M39.113,122.085c0.511-0.716,1.084-1.363,1.7-1.946l-15.572-16.492
		c-1.672,1.58-3.214,3.343-4.6,5.286c-0.003,0.005-0.008,0.011-0.012,0.017l18.473,13.154
		C39.106,122.098,39.11,122.093,39.113,122.085z"/>
	
		<linearGradient id="SVGID_9_" gradientUnits="userSpaceOnUse" x1="622.6611" y1="362.0381" x2="629.5336" y2="363.358" gradientTransform="matrix(0.4154 -0.9096 0.9096 0.4154 -560.7195 535.3842)">
		<stop  offset="0.0056" style="stop-color:#FBCA11"/>
		<stop  offset="0.2528" style="stop-color:#FFFFBF"/>
		<stop  offset="0.2997" style="stop-color:#F9F3AE"/>
		<stop  offset="0.393" style="stop-color:#E8D381"/>
		<stop  offset="0.5226" style="stop-color:#CEA139"/>
		<stop  offset="0.5955" style="stop-color:#BE820E"/>
		<stop  offset="0.8558" style="stop-color:#E8D56A"/>
		<stop  offset="0.8708" style="stop-color:#EADA6F"/>
		<stop  offset="1" style="stop-color:#FFFFBF"/>
	</linearGradient>
	<path fill="url(#SVGID_9_)" d="M37.837,124.287c0.366-0.801,0.806-1.545,1.301-2.233l-18.412-13.247
		c-1.343,1.868-2.522,3.891-3.516,6.061c-0.003,0.006-0.006,0.013-0.009,0.02l20.629,9.42
		C37.833,124.3,37.835,124.294,37.837,124.287z"/>
	
		<linearGradient id="SVGID_10_" gradientUnits="userSpaceOnUse" x1="673.8369" y1="459.8145" x2="680.7094" y2="461.1344" gradientTransform="matrix(0.2358 -0.9718 0.9718 0.2358 -580.0242 670.319)">
		<stop  offset="0.0056" style="stop-color:#FBCA11"/>
		<stop  offset="0.2528" style="stop-color:#FFFFBF"/>
		<stop  offset="0.2997" style="stop-color:#F9F3AE"/>
		<stop  offset="0.393" style="stop-color:#E8D381"/>
		<stop  offset="0.5226" style="stop-color:#CEA139"/>
		<stop  offset="0.5955" style="stop-color:#BE820E"/>
		<stop  offset="0.8558" style="stop-color:#E8D56A"/>
		<stop  offset="0.8708" style="stop-color:#EADA6F"/>
		<stop  offset="1" style="stop-color:#FFFFBF"/>
	</linearGradient>
	<path fill="url(#SVGID_10_)" d="M37.001,126.69c0.208-0.855,0.499-1.671,0.854-2.44l-20.586-9.522
		c-0.965,2.089-1.741,4.298-2.306,6.616c-0.002,0.006-0.003,0.014-0.005,0.021l22.039,5.345C37,126.704,37,126.697,37.001,126.69z"
		/>
	
		<linearGradient id="SVGID_11_" gradientUnits="userSpaceOnUse" x1="705.5898" y1="565.5117" x2="712.4623" y2="566.8317" gradientTransform="matrix(0.0476 -0.9989 0.9989 0.0476 -573.4447 806.4717)">
		<stop  offset="0.0056" style="stop-color:#FBCA11"/>
		<stop  offset="0.2528" style="stop-color:#FFFFBF"/>
		<stop  offset="0.2997" style="stop-color:#F9F3AE"/>
		<stop  offset="0.393" style="stop-color:#E8D381"/>
		<stop  offset="0.5226" style="stop-color:#CEA139"/>
		<stop  offset="0.5955" style="stop-color:#BE820E"/>
		<stop  offset="0.8558" style="stop-color:#E8D56A"/>
		<stop  offset="0.8708" style="stop-color:#EADA6F"/>
		<stop  offset="1" style="stop-color:#FFFFBF"/>
	</linearGradient>
	<path fill="url(#SVGID_11_)" d="M36.635,129.208c0.043-0.88,0.174-1.735,0.377-2.558l-22.016-5.455
		c-0.552,2.234-0.896,4.55-1.012,6.934c-0.001,0.006-0.001,0.014-0.001,0.021l22.652,1.078
		C36.636,129.222,36.636,129.215,36.635,129.208z"/>
	
		<linearGradient id="SVGID_12_" gradientUnits="userSpaceOnUse" x1="716.7617" y1="675.3066" x2="723.6342" y2="676.6266" gradientTransform="matrix(-0.1423 -0.9898 0.9898 -0.1423 -541.2175 938.9167)">
		<stop  offset="0.0056" style="stop-color:#FBCA11"/>
		<stop  offset="0.2528" style="stop-color:#FFFFBF"/>
		<stop  offset="0.2997" style="stop-color:#F9F3AE"/>
		<stop  offset="0.393" style="stop-color:#E8D381"/>
		<stop  offset="0.5226" style="stop-color:#CEA139"/>
		<stop  offset="0.5955" style="stop-color:#BE820E"/>
		<stop  offset="0.8558" style="stop-color:#E8D56A"/>
		<stop  offset="0.8708" style="stop-color:#EADA6F"/>
		<stop  offset="1" style="stop-color:#FFFFBF"/>
	</linearGradient>
	<path fill="url(#SVGID_12_)" d="M36.752,131.75c-0.124-0.873-0.158-1.737-0.114-2.584l-22.649-1.189
		c-0.119,2.299-0.02,4.638,0.318,7c0,0.006,0.002,0.014,0.003,0.021l22.447-3.229C36.756,131.764,36.754,131.756,36.752,131.75z"/>
	
		<linearGradient id="SVGID_13_" gradientUnits="userSpaceOnUse" x1="706.9492" y1="785.2305" x2="713.8226" y2="786.5506" gradientTransform="matrix(-0.3271 -0.945 0.945 -0.3271 -484.5068 1062.8666)">
		<stop  offset="0.0056" style="stop-color:#FBCA11"/>
		<stop  offset="0.2528" style="stop-color:#FFFFBF"/>
		<stop  offset="0.2997" style="stop-color:#F9F3AE"/>
		<stop  offset="0.393" style="stop-color:#E8D381"/>
		<stop  offset="0.5226" style="stop-color:#CEA139"/>
		<stop  offset="0.5955" style="stop-color:#BE820E"/>
		<stop  offset="0.8558" style="stop-color:#E8D56A"/>
		<stop  offset="0.8708" style="stop-color:#EADA6F"/>
		<stop  offset="1" style="stop-color:#FFFFBF"/>
	</linearGradient>
	<path fill="url(#SVGID_13_)" d="M37.348,134.224c-0.287-0.834-0.483-1.677-0.601-2.516l-22.466,3.118
		c0.318,2.279,0.858,4.558,1.638,6.813c0.001,0.006,0.005,0.013,0.007,0.021l21.431-7.419
		C37.355,134.235,37.352,134.229,37.348,134.224z"/>
	
		<linearGradient id="SVGID_14_" gradientUnits="userSpaceOnUse" x1="676.5146" y1="891.3115" x2="683.389" y2="892.6318" gradientTransform="matrix(-0.5 -0.866 0.866 -0.5 -405.3625 1173.8452)">
		<stop  offset="0.0056" style="stop-color:#FBCA11"/>
		<stop  offset="0.2528" style="stop-color:#FFFFBF"/>
		<stop  offset="0.2997" style="stop-color:#F9F3AE"/>
		<stop  offset="0.393" style="stop-color:#E8D381"/>
		<stop  offset="0.5226" style="stop-color:#CEA139"/>
		<stop  offset="0.5955" style="stop-color:#BE820E"/>
		<stop  offset="0.8558" style="stop-color:#E8D56A"/>
		<stop  offset="0.8708" style="stop-color:#EADA6F"/>
		<stop  offset="1" style="stop-color:#FFFFBF"/>
	</linearGradient>
	<path fill="url(#SVGID_14_)" d="M38.402,136.539c-0.44-0.765-0.792-1.555-1.066-2.355l-21.469,7.313
		c0.743,2.179,1.705,4.313,2.897,6.381c0.002,0.006,0.007,0.012,0.01,0.019l19.64-11.34
		C38.411,136.55,38.407,136.544,38.402,136.539z"/>
	
		<linearGradient id="SVGID_15_" gradientUnits="userSpaceOnUse" x1="626.5547" y1="989.7178" x2="633.4271" y2="991.0377" gradientTransform="matrix(-0.6549 -0.7557 0.7557 -0.6549 -306.6456 1267.8424)">
		<stop  offset="0.0056" style="stop-color:#FBCA11"/>
		<stop  offset="0.2528" style="stop-color:#FFFFBF"/>
		<stop  offset="0.2997" style="stop-color:#F9F3AE"/>
		<stop  offset="0.393" style="stop-color:#E8D381"/>
		<stop  offset="0.5226" style="stop-color:#CEA139"/>
		<stop  offset="0.5955" style="stop-color:#BE820E"/>
		<stop  offset="0.8558" style="stop-color:#E8D56A"/>
		<stop  offset="0.8708" style="stop-color:#EADA6F"/>
		<stop  offset="1" style="stop-color:#FFFFBF"/>
	</linearGradient>
	<path fill="url(#SVGID_15_)" d="M39.875,138.613c-0.577-0.667-1.072-1.376-1.493-2.11l-19.696,11.243
		c1.142,1.998,2.49,3.912,4.053,5.717c0.003,0.006,0.009,0.011,0.013,0.017l17.139-14.852
		C39.885,138.623,39.88,138.617,39.875,138.613z"/>
	
		<linearGradient id="SVGID_16_" gradientUnits="userSpaceOnUse" x1="558.873" y1="1076.8887" x2="565.7455" y2="1078.2086" gradientTransform="matrix(-0.7861 -0.6182 0.6182 -0.7861 -191.9242 1341.4543)">
		<stop  offset="0.0056" style="stop-color:#FBCA11"/>
		<stop  offset="0.2528" style="stop-color:#FFFFBF"/>
		<stop  offset="0.2997" style="stop-color:#F9F3AE"/>
		<stop  offset="0.393" style="stop-color:#E8D381"/>
		<stop  offset="0.5226" style="stop-color:#CEA139"/>
		<stop  offset="0.5955" style="stop-color:#BE820E"/>
		<stop  offset="0.8558" style="stop-color:#E8D56A"/>
		<stop  offset="0.8708" style="stop-color:#EADA6F"/>
		<stop  offset="1" style="stop-color:#FFFFBF"/>
	</linearGradient>
	<path fill="url(#SVGID_16_)" d="M41.713,140.372c-0.693-0.546-1.313-1.148-1.865-1.79L22.635,153.35
		c1.499,1.746,3.186,3.37,5.062,4.847c0.003,0.005,0.01,0.009,0.015,0.015l14.019-17.828
		C41.725,140.38,41.719,140.375,41.713,140.372z"/>
	
		<linearGradient id="SVGID_17_" gradientUnits="userSpaceOnUse" x1="475.916" y1="1149.6719" x2="482.7894" y2="1150.9919" gradientTransform="matrix(-0.8888 -0.4582 0.4582 -0.8888 -65.3451 1392.0256)">
		<stop  offset="0.0056" style="stop-color:#FBCA11"/>
		<stop  offset="0.2528" style="stop-color:#FFFFBF"/>
		<stop  offset="0.2997" style="stop-color:#F9F3AE"/>
		<stop  offset="0.393" style="stop-color:#E8D381"/>
		<stop  offset="0.5226" style="stop-color:#CEA139"/>
		<stop  offset="0.5955" style="stop-color:#BE820E"/>
		<stop  offset="0.8558" style="stop-color:#E8D56A"/>
		<stop  offset="0.8708" style="stop-color:#EADA6F"/>
		<stop  offset="1" style="stop-color:#FFFFBF"/>
	</linearGradient>
	<path fill="url(#SVGID_17_)" d="M43.851,141.75c-0.784-0.404-1.507-0.879-2.17-1.404l-14.107,17.759
		c1.803,1.431,3.766,2.706,5.888,3.801c0.004,0.005,0.012,0.007,0.017,0.012l10.392-20.159
		C43.865,141.756,43.858,141.752,43.851,141.75z"/>
	
		<linearGradient id="SVGID_18_" gradientUnits="userSpaceOnUse" x1="380.6816" y1="1205.4443" x2="387.5531" y2="1206.764" gradientTransform="matrix(-0.9595 -0.2817 0.2817 -0.9595 68.5175 1417.7291)">
		<stop  offset="0.0056" style="stop-color:#FBCA11"/>
		<stop  offset="0.2528" style="stop-color:#FFFFBF"/>
		<stop  offset="0.2997" style="stop-color:#F9F3AE"/>
		<stop  offset="0.393" style="stop-color:#E8D381"/>
		<stop  offset="0.5226" style="stop-color:#CEA139"/>
		<stop  offset="0.5955" style="stop-color:#BE820E"/>
		<stop  offset="0.8558" style="stop-color:#E8D56A"/>
		<stop  offset="0.8708" style="stop-color:#EADA6F"/>
		<stop  offset="1" style="stop-color:#FFFFBF"/>
	</linearGradient>
	<path fill="url(#SVGID_18_)" d="M46.211,142.699c-0.847-0.249-1.646-0.578-2.396-0.968l-10.491,20.107
		c2.04,1.063,4.209,1.944,6.5,2.618c0.005,0.004,0.013,0.004,0.019,0.008l6.389-21.761C46.226,142.703,46.218,142.7,46.211,142.699z
		"/>
	
		<linearGradient id="SVGID_19_" gradientUnits="userSpaceOnUse" x1="276.6191" y1="1242.1875" x2="283.4916" y2="1243.5074" gradientTransform="matrix(-0.9955 -0.0951 0.0951 -0.9955 204.8255 1417.6362)">
		<stop  offset="0.0056" style="stop-color:#FBCA11"/>
		<stop  offset="0.2528" style="stop-color:#FFFFBF"/>
		<stop  offset="0.2997" style="stop-color:#F9F3AE"/>
		<stop  offset="0.393" style="stop-color:#E8D381"/>
		<stop  offset="0.5226" style="stop-color:#CEA139"/>
		<stop  offset="0.5955" style="stop-color:#BE820E"/>
		<stop  offset="0.8558" style="stop-color:#E8D56A"/>
		<stop  offset="0.8708" style="stop-color:#EADA6F"/>
		<stop  offset="1" style="stop-color:#FFFFBF"/>
	</linearGradient>
	<path fill="url(#SVGID_19_)" d="M48.708,143.185c-0.878-0.084-1.726-0.256-2.536-0.497l-6.496,21.73
		c2.204,0.657,4.501,1.112,6.878,1.341c0.006,0.002,0.014,0.001,0.02,0.003l2.155-22.576
		C48.724,143.186,48.715,143.184,48.708,143.185z"/>
	
		<linearGradient id="SVGID_20_" gradientUnits="userSpaceOnUse" x1="57.2109" y1="1254.0029" x2="64.0815" y2="1255.3225" gradientTransform="matrix(-0.9595 0.2817 -0.2817 -0.9595 465.1593 1340.9996)">
		<stop  offset="0.0056" style="stop-color:#FBCA11"/>
		<stop  offset="0.2528" style="stop-color:#FFFFBF"/>
		<stop  offset="0.2997" style="stop-color:#F9F3AE"/>
		<stop  offset="0.393" style="stop-color:#E8D381"/>
		<stop  offset="0.5226" style="stop-color:#CEA139"/>
		<stop  offset="0.5955" style="stop-color:#BE820E"/>
		<stop  offset="0.8558" style="stop-color:#E8D56A"/>
		<stop  offset="0.8708" style="stop-color:#EADA6F"/>
		<stop  offset="1" style="stop-color:#FFFFBF"/>
	</linearGradient>
	<path fill="url(#SVGID_20_)" d="M53.751,142.711c-0.847,0.249-1.697,0.404-2.539,0.48l2.046,22.59
		c2.29-0.211,4.591-0.641,6.883-1.313c0.006,0.001,0.014-0.004,0.02-0.004l-6.39-21.76
		C53.766,142.706,53.757,142.707,53.751,142.711z"/>
	
		<linearGradient id="SVGID_21_" gradientUnits="userSpaceOnUse" x1="-50.1982" y1="1228.6494" x2="-43.3268" y2="1229.9691" gradientTransform="matrix(-0.8888 0.4582 -0.4582 -0.8888 579.7792 1267.2273)">
		<stop  offset="0.0056" style="stop-color:#FBCA11"/>
		<stop  offset="0.2528" style="stop-color:#FFFFBF"/>
		<stop  offset="0.2997" style="stop-color:#F9F3AE"/>
		<stop  offset="0.393" style="stop-color:#E8D381"/>
		<stop  offset="0.5226" style="stop-color:#CEA139"/>
		<stop  offset="0.5955" style="stop-color:#BE820E"/>
		<stop  offset="0.8558" style="stop-color:#E8D56A"/>
		<stop  offset="0.8708" style="stop-color:#EADA6F"/>
		<stop  offset="1" style="stop-color:#FFFFBF"/>
	</linearGradient>
	<path fill="url(#SVGID_21_)" d="M56.114,141.77c-0.784,0.404-1.59,0.717-2.402,0.952l6.284,21.794
		c2.209-0.641,4.387-1.498,6.51-2.592c0.006-0.001,0.013-0.007,0.019-0.008l-10.393-20.157
		C56.128,141.762,56.119,141.764,56.114,141.77z"/>
	
		<linearGradient id="SVGID_22_" gradientUnits="userSpaceOnUse" x1="-150.8691" y1="1183.4287" x2="-143.9986" y2="1184.7483" gradientTransform="matrix(-0.7861 0.6182 -0.6182 -0.7861 678.3661 1173.0964)">
		<stop  offset="0.0056" style="stop-color:#FBCA11"/>
		<stop  offset="0.2528" style="stop-color:#FFFFBF"/>
		<stop  offset="0.2997" style="stop-color:#F9F3AE"/>
		<stop  offset="0.393" style="stop-color:#E8D381"/>
		<stop  offset="0.5226" style="stop-color:#CEA139"/>
		<stop  offset="0.5955" style="stop-color:#BE820E"/>
		<stop  offset="0.8558" style="stop-color:#E8D56A"/>
		<stop  offset="0.8708" style="stop-color:#EADA6F"/>
		<stop  offset="1" style="stop-color:#FFFFBF"/>
	</linearGradient>
	<path fill="url(#SVGID_22_)" d="M58.257,140.397c-0.694,0.546-1.426,1.005-2.179,1.39l10.295,20.211
		c2.048-1.047,4.023-2.301,5.901-3.777c0.006-0.002,0.012-0.008,0.017-0.011l-14.019-17.825
		C58.269,140.387,58.26,140.391,58.257,140.397z"/>
	
		<linearGradient id="SVGID_23_" gradientUnits="userSpaceOnUse" x1="-241.165" y1="1119.9697" x2="-234.2945" y2="1121.2893" gradientTransform="matrix(-0.6549 0.7557 -0.7557 -0.6549 757.3546 1062.0079)">
		<stop  offset="0.0056" style="stop-color:#FBCA11"/>
		<stop  offset="0.2528" style="stop-color:#FFFFBF"/>
		<stop  offset="0.2997" style="stop-color:#F9F3AE"/>
		<stop  offset="0.393" style="stop-color:#E8D381"/>
		<stop  offset="0.5226" style="stop-color:#CEA139"/>
		<stop  offset="0.5955" style="stop-color:#BE820E"/>
		<stop  offset="0.8558" style="stop-color:#E8D56A"/>
		<stop  offset="0.8708" style="stop-color:#EADA6F"/>
		<stop  offset="1" style="stop-color:#FFFFBF"/>
	</linearGradient>
	<path fill="url(#SVGID_23_)" d="M60.101,138.645c-0.578,0.668-1.21,1.257-1.876,1.777l13.934,17.896
		c1.813-1.415,3.516-3.02,5.08-4.825c0.005-0.003,0.01-0.01,0.015-0.014l-17.14-14.851C60.11,138.632,60.103,138.638,60.101,138.645
		z"/>
	
		<linearGradient id="SVGID_24_" gradientUnits="userSpaceOnUse" x1="-317.8169" y1="1040.5732" x2="-310.9464" y2="1041.8928" gradientTransform="matrix(-0.5 0.866 -0.866 -0.5 813.8947 937.9795)">
		<stop  offset="0.0056" style="stop-color:#FBCA11"/>
		<stop  offset="0.2528" style="stop-color:#FFFFBF"/>
		<stop  offset="0.2997" style="stop-color:#F9F3AE"/>
		<stop  offset="0.393" style="stop-color:#E8D381"/>
		<stop  offset="0.5226" style="stop-color:#CEA139"/>
		<stop  offset="0.5955" style="stop-color:#BE820E"/>
		<stop  offset="0.8558" style="stop-color:#E8D56A"/>
		<stop  offset="0.8708" style="stop-color:#EADA6F"/>
		<stop  offset="1" style="stop-color:#FFFFBF"/>
	</linearGradient>
	<path fill="url(#SVGID_24_)" d="M61.58,136.574c-0.441,0.766-0.95,1.463-1.506,2.101l17.068,14.937
		c1.512-1.733,2.881-3.631,4.075-5.7c0.004-0.004,0.008-0.011,0.012-0.016l-19.641-11.339
		C61.587,136.56,61.58,136.567,61.58,136.574z"/>
	
		<linearGradient id="SVGID_25_" gradientUnits="userSpaceOnUse" x1="-378.0557" y1="948.1035" x2="-371.1861" y2="949.4229" gradientTransform="matrix(-0.3271 0.945 -0.945 -0.3271 845.9395 805.4916)">
		<stop  offset="0.0056" style="stop-color:#FBCA11"/>
		<stop  offset="0.2528" style="stop-color:#FFFFBF"/>
		<stop  offset="0.2997" style="stop-color:#F9F3AE"/>
		<stop  offset="0.393" style="stop-color:#E8D381"/>
		<stop  offset="0.5226" style="stop-color:#CEA139"/>
		<stop  offset="0.5955" style="stop-color:#BE820E"/>
		<stop  offset="0.8558" style="stop-color:#E8D56A"/>
		<stop  offset="0.8708" style="stop-color:#EADA6F"/>
		<stop  offset="1" style="stop-color:#FFFFBF"/>
	</linearGradient>
	<path fill="url(#SVGID_25_)" d="M62.641,134.262c-0.289,0.835-0.656,1.615-1.081,2.348l19.587,11.436
		c1.156-1.988,2.141-4.11,2.922-6.367c0.004-0.005,0.006-0.012,0.009-0.018l-21.432-7.417
		C62.645,134.246,62.639,134.256,62.641,134.262z"/>
	
		<linearGradient id="SVGID_26_" gradientUnits="userSpaceOnUse" x1="-419.708" y1="845.9023" x2="-412.8384" y2="847.2217" gradientTransform="matrix(-0.1423 0.9898 -0.9898 -0.1423 852.3312 669.3337)">
		<stop  offset="0.0056" style="stop-color:#FBCA11"/>
		<stop  offset="0.2528" style="stop-color:#FFFFBF"/>
		<stop  offset="0.2997" style="stop-color:#F9F3AE"/>
		<stop  offset="0.393" style="stop-color:#E8D381"/>
		<stop  offset="0.5226" style="stop-color:#CEA139"/>
		<stop  offset="0.5955" style="stop-color:#BE820E"/>
		<stop  offset="0.8558" style="stop-color:#E8D56A"/>
		<stop  offset="0.8708" style="stop-color:#EADA6F"/>
		<stop  offset="1" style="stop-color:#FFFFBF"/>
	</linearGradient>
	<path fill="url(#SVGID_26_)" d="M63.244,131.79c-0.126,0.875-0.339,1.71-0.617,2.511l21.397,7.521
		c0.759-2.172,1.324-4.441,1.664-6.805c0.003-0.006,0.003-0.014,0.005-0.02l-22.447-3.227
		C63.245,131.774,63.241,131.785,63.244,131.79z"/>
	
		<linearGradient id="SVGID_27_" gradientUnits="userSpaceOnUse" x1="-441.2666" y1="737.667" x2="-434.397" y2="738.9864" gradientTransform="matrix(0.0476 0.9989 -0.9989 0.0476 832.8407 534.4268)">
		<stop  offset="0.0056" style="stop-color:#FBCA11"/>
		<stop  offset="0.2528" style="stop-color:#FFFFBF"/>
		<stop  offset="0.2997" style="stop-color:#F9F3AE"/>
		<stop  offset="0.393" style="stop-color:#E8D381"/>
		<stop  offset="0.5226" style="stop-color:#CEA139"/>
		<stop  offset="0.5955" style="stop-color:#BE820E"/>
		<stop  offset="0.8558" style="stop-color:#E8D56A"/>
		<stop  offset="0.8708" style="stop-color:#EADA6F"/>
		<stop  offset="1" style="stop-color:#FFFFBF"/>
	</linearGradient>
	<path fill="url(#SVGID_27_)" d="M63.369,129.249c0.042,0.884-0.009,1.743-0.131,2.583l22.434,3.335
		c0.334-2.275,0.46-4.611,0.347-6.997c0.002-0.006,0.001-0.013,0.001-0.02l-22.652,1.08
		C63.367,129.233,63.365,129.244,63.369,129.249z"/>
	
		<linearGradient id="SVGID_28_" gradientUnits="userSpaceOnUse" x1="-441.9536" y1="627.3086" x2="-435.0831" y2="628.6282" gradientTransform="matrix(0.2358 0.9718 -0.9718 0.2358 788.1707 405.6457)">
		<stop  offset="0.0056" style="stop-color:#FBCA11"/>
		<stop  offset="0.2528" style="stop-color:#FFFFBF"/>
		<stop  offset="0.2997" style="stop-color:#F9F3AE"/>
		<stop  offset="0.393" style="stop-color:#E8D381"/>
		<stop  offset="0.5226" style="stop-color:#CEA139"/>
		<stop  offset="0.5955" style="stop-color:#BE820E"/>
		<stop  offset="0.8558" style="stop-color:#E8D56A"/>
		<stop  offset="0.8708" style="stop-color:#EADA6F"/>
		<stop  offset="1" style="stop-color:#FFFFBF"/>
	</linearGradient>
	<path fill="url(#SVGID_28_)" d="M63.011,126.73c0.208,0.859,0.321,1.713,0.36,2.561l22.659-0.971
		c-0.103-2.297-0.421-4.615-0.983-6.936c0-0.007-0.002-0.014-0.003-0.021l-22.038,5.348
		C63.006,126.715,63.006,126.727,63.011,126.73z"/>
	
		<linearGradient id="SVGID_29_" gradientUnits="userSpaceOnUse" x1="-421.7383" y1="518.8145" x2="-414.8697" y2="520.1337" gradientTransform="matrix(0.4154 0.9096 -0.9096 0.4154 719.9354 287.6472)">
		<stop  offset="0.0056" style="stop-color:#FBCA11"/>
		<stop  offset="0.2528" style="stop-color:#FFFFBF"/>
		<stop  offset="0.2997" style="stop-color:#F9F3AE"/>
		<stop  offset="0.393" style="stop-color:#E8D381"/>
		<stop  offset="0.5226" style="stop-color:#CEA139"/>
		<stop  offset="0.5955" style="stop-color:#BE820E"/>
		<stop  offset="0.8558" style="stop-color:#E8D56A"/>
		<stop  offset="0.8708" style="stop-color:#EADA6F"/>
		<stop  offset="1" style="stop-color:#FFFFBF"/>
	</linearGradient>
	<path fill="url(#SVGID_29_)" d="M62.183,124.325c0.366,0.805,0.64,1.621,0.838,2.446l22.066-5.242
		c-0.535-2.235-1.287-4.451-2.278-6.623c-0.002-0.007-0.004-0.014-0.007-0.02l-20.628,9.421
		C62.175,124.311,62.177,124.322,62.183,124.325z"/>
	
		<linearGradient id="SVGID_30_" gradientUnits="userSpaceOnUse" x1="-381.3579" y1="416.1055" x2="-374.4903" y2="417.4245" gradientTransform="matrix(0.5801 0.8146 -0.8146 0.5801 630.6027 184.6931)">
		<stop  offset="0.0056" style="stop-color:#FBCA11"/>
		<stop  offset="0.2528" style="stop-color:#FFFFBF"/>
		<stop  offset="0.2997" style="stop-color:#F9F3AE"/>
		<stop  offset="0.393" style="stop-color:#E8D381"/>
		<stop  offset="0.5226" style="stop-color:#CEA139"/>
		<stop  offset="0.5955" style="stop-color:#BE820E"/>
		<stop  offset="0.8558" style="stop-color:#E8D56A"/>
		<stop  offset="0.8708" style="stop-color:#EADA6F"/>
		<stop  offset="1" style="stop-color:#FFFFBF"/>
	</linearGradient>
	<path fill="url(#SVGID_30_)" d="M60.914,122.12c0.512,0.721,0.935,1.471,1.286,2.243l20.675-9.323
		c-0.948-2.094-2.105-4.128-3.49-6.073c-0.004-0.005-0.007-0.012-0.01-0.017l-18.473,13.153
		C60.903,122.106,60.908,122.118,60.914,122.12z"/>
	
		<linearGradient id="SVGID_31_" gradientUnits="userSpaceOnUse" x1="-322.2686" y1="322.8955" x2="-315.4009" y2="324.2145" gradientTransform="matrix(0.7237 0.6901 -0.6901 0.7237 523.399 100.506)">
		<stop  offset="0.0056" style="stop-color:#FBCA11"/>
		<stop  offset="0.2528" style="stop-color:#FFFFBF"/>
		<stop  offset="0.2997" style="stop-color:#F9F3AE"/>
		<stop  offset="0.393" style="stop-color:#E8D381"/>
		<stop  offset="0.5226" style="stop-color:#CEA139"/>
		<stop  offset="0.5955" style="stop-color:#BE820E"/>
		<stop  offset="0.8558" style="stop-color:#E8D56A"/>
		<stop  offset="0.8708" style="stop-color:#EADA6F"/>
		<stop  offset="1" style="stop-color:#FFFFBF"/>
	</linearGradient>
	<path fill="url(#SVGID_31_)" d="M59.251,120.195c0.639,0.611,1.196,1.268,1.688,1.958l18.537-13.067
		c-1.328-1.875-2.849-3.654-4.577-5.303c-0.005-0.004-0.009-0.01-0.013-0.014l-15.649,16.411
		C59.238,120.184,59.245,120.194,59.251,120.195z"/>
	
		<linearGradient id="SVGID_32_" gradientUnits="userSpaceOnUse" x1="-246.6084" y1="242.5527" x2="-239.7398" y2="243.8719" gradientTransform="matrix(0.8413 0.5406 -0.5406 0.8413 402.2017 38.1296)">
		<stop  offset="0.0056" style="stop-color:#FBCA11"/>
		<stop  offset="0.2528" style="stop-color:#FFFFBF"/>
		<stop  offset="0.2997" style="stop-color:#F9F3AE"/>
		<stop  offset="0.393" style="stop-color:#E8D381"/>
		<stop  offset="0.5226" style="stop-color:#CEA139"/>
		<stop  offset="0.5955" style="stop-color:#BE820E"/>
		<stop  offset="0.8558" style="stop-color:#E8D56A"/>
		<stop  offset="0.8708" style="stop-color:#EADA6F"/>
		<stop  offset="1" style="stop-color:#FFFFBF"/>
	</linearGradient>
	<path fill="url(#SVGID_32_)" d="M57.254,118.62c0.743,0.479,1.414,1.018,2.027,1.603l15.729-16.34
		c-1.659-1.589-3.489-3.049-5.498-4.34c-0.006-0.004-0.011-0.009-0.015-0.011l-12.262,19.076
		C57.239,118.61,57.248,118.62,57.254,118.62z"/>
	
		<linearGradient id="SVGID_33_" gradientUnits="userSpaceOnUse" x1="-157.1069" y1="177.9795" x2="-150.2402" y2="179.2983" gradientTransform="matrix(0.9284 0.3717 -0.3717 0.9284 271.389 -0.1826)">
		<stop  offset="0.0056" style="stop-color:#FBCA11"/>
		<stop  offset="0.2528" style="stop-color:#FFFFBF"/>
		<stop  offset="0.2997" style="stop-color:#F9F3AE"/>
		<stop  offset="0.393" style="stop-color:#E8D381"/>
		<stop  offset="0.5226" style="stop-color:#CEA139"/>
		<stop  offset="0.5955" style="stop-color:#BE820E"/>
		<stop  offset="0.8558" style="stop-color:#E8D56A"/>
		<stop  offset="0.8708" style="stop-color:#EADA6F"/>
		<stop  offset="1" style="stop-color:#FFFFBF"/>
	</linearGradient>
	<path fill="url(#SVGID_33_)" d="M54.994,117.451c0.821,0.329,1.582,0.731,2.295,1.189l12.353-19.021
		c-1.931-1.246-4.003-2.333-6.221-3.221c-0.006-0.002-0.012-0.007-0.016-0.008l-8.43,21.052
		C54.979,117.444,54.988,117.452,54.994,117.451z"/>
	
		<linearGradient id="SVGID_34_" gradientUnits="userSpaceOnUse" x1="-57.0068" y1="131.5117" x2="-50.1402" y2="132.8306" gradientTransform="matrix(0.9819 0.1893 -0.1893 0.9819 135.6893 -13.0479)">
		<stop  offset="0.0056" style="stop-color:#FBCA11"/>
		<stop  offset="0.2528" style="stop-color:#FFFFBF"/>
		<stop  offset="0.2997" style="stop-color:#F9F3AE"/>
		<stop  offset="0.393" style="stop-color:#E8D381"/>
		<stop  offset="0.5226" style="stop-color:#CEA139"/>
		<stop  offset="0.5955" style="stop-color:#BE820E"/>
		<stop  offset="0.8558" style="stop-color:#E8D56A"/>
		<stop  offset="0.8708" style="stop-color:#EADA6F"/>
		<stop  offset="1" style="stop-color:#FFFFBF"/>
	</linearGradient>
	<path fill="url(#SVGID_34_)" d="M52.555,116.73c0.868,0.168,1.691,0.419,2.479,0.733l8.529-21.016
		c-2.132-0.858-4.372-1.533-6.718-1.984c-0.006-0.001-0.013-0.005-0.017-0.005l-4.294,22.268
		C52.538,116.727,52.549,116.732,52.555,116.73z"/>
	<linearGradient id="SVGID_35_" gradientUnits="userSpaceOnUse" x1="0.6411" y1="154.5537" x2="100.1668" y2="154.5537">
		<stop  offset="0.0056" style="stop-color:#FBCA11"/>
		<stop  offset="0.2528" style="stop-color:#FFFFBF"/>
		<stop  offset="0.2997" style="stop-color:#F9F3AE"/>
		<stop  offset="0.393" style="stop-color:#E8D381"/>
		<stop  offset="0.5226" style="stop-color:#CEA139"/>
		<stop  offset="0.5955" style="stop-color:#BE820E"/>
		<stop  offset="0.8558" style="stop-color:#E8D56A"/>
		<stop  offset="0.8708" style="stop-color:#EADA6F"/>
		<stop  offset="1" style="stop-color:#FFFFBF"/>
	</linearGradient>
	<polygon fill="url(#SVGID_35_)" points="100,143.18 48.729,143.186 46.656,165.927 100,165.762 	"/>
</g>
</svg>
