<?xml version="1.0" encoding="utf-8"?>
<!-- Generator: Adobe Illustrator 16.0.3, SVG Export Plug-In . SVG Version: 6.00 Build 0)  -->
<!DOCTYPE svg PUBLIC "-//W3C//DTD SVG 1.1//EN" "http://www.w3.org/Graphics/SVG/1.1/DTD/svg11.dtd">
<svg version="1.1" id="Layer_1" xmlns="http://www.w3.org/2000/svg" xmlns:xlink="http://www.w3.org/1999/xlink" x="0px" y="0px"
	 width="130px" height="260px" viewBox="0 0 130 260" enable-background="new 0 0 130 260" xml:space="preserve">
<g>
	<rect x="13.958" y="231.185" fill="#FFFFFF" width="110" height="27"/>
	<path d="M124.457,258.685h-111v-28h111V258.685z M14.458,257.685h109v-26h-109V257.685z"/>
</g>
<rect x="1.087" y="1.815" width="127.825" height="233.139"/>
<linearGradient id="SVGID_1_" gradientUnits="userSpaceOnUse" x1="110.1094" y1="601.002" x2="237.9355" y2="601.002" gradientTransform="matrix(1 0 0 1 -109.2559 -414.9766)">
	<stop  offset="0.0056" style="stop-color:#FBCB13"/>
	<stop  offset="0.2528" style="stop-color:#FCFEC2"/>
	<stop  offset="0.2986" style="stop-color:#F7EFA7"/>
	<stop  offset="0.3896" style="stop-color:#E6D074"/>
	<stop  offset="0.5159" style="stop-color:#CE9F31"/>
	<stop  offset="0.5955" style="stop-color:#BD810B"/>
	<stop  offset="0.8143" style="stop-color:#E0C454"/>
	<stop  offset="0.8708" style="stop-color:#EDD96B"/>
	<stop  offset="1" style="stop-color:#FCFEC2"/>
</linearGradient>
<rect x="0.854" y="179.473" fill="url(#SVGID_1_)" width="127.826" height="13.104"/>
<polygon fill="#CA9A3C" points="128.771,185.033 0.946,185.033 0.946,187.016 128.771,187.016 "/>
<g>
	
		<linearGradient id="SVGID_2_" gradientUnits="userSpaceOnUse" x1="530.0195" y1="737.3096" x2="533.9948" y2="738.0731" gradientTransform="matrix(1 0 0 1 -465.1992 -579.9805)">
		<stop  offset="0.0056" style="stop-color:#FBCA11"/>
		<stop  offset="0.2528" style="stop-color:#FFFFBF"/>
		<stop  offset="0.2997" style="stop-color:#F9F3AE"/>
		<stop  offset="0.393" style="stop-color:#E8D381"/>
		<stop  offset="0.5226" style="stop-color:#CEA139"/>
		<stop  offset="0.5955" style="stop-color:#BE820E"/>
		<stop  offset="0.8558" style="stop-color:#E8D56A"/>
		<stop  offset="0.8708" style="stop-color:#EADA6F"/>
		<stop  offset="1" style="stop-color:#FFFFBF"/>
	</linearGradient>
	<path fill="url(#SVGID_2_)" d="M64.781,164.068c0.508,0,1.004,0.053,1.488,0.146l2.546-12.867c-1.31-0.255-2.653-0.393-4.034-0.393
		c-0.005,0-0.008,0-0.012,0v13.113C64.773,164.068,64.776,164.068,64.781,164.068z"/>
	
		<linearGradient id="SVGID_3_" gradientUnits="userSpaceOnUse" x1="513.8477" y1="810.6338" x2="517.8199" y2="811.3967" gradientTransform="matrix(0.9819 -0.1893 0.1893 0.9819 -595.9238 -541.1084)">
		<stop  offset="0.0056" style="stop-color:#FBCA11"/>
		<stop  offset="0.2528" style="stop-color:#FFFFBF"/>
		<stop  offset="0.2997" style="stop-color:#F9F3AE"/>
		<stop  offset="0.393" style="stop-color:#E8D381"/>
		<stop  offset="0.5226" style="stop-color:#CEA139"/>
		<stop  offset="0.5955" style="stop-color:#BE820E"/>
		<stop  offset="0.8558" style="stop-color:#E8D56A"/>
		<stop  offset="0.8708" style="stop-color:#EADA6F"/>
		<stop  offset="1" style="stop-color:#FFFFBF"/>
	</linearGradient>
	<path fill="url(#SVGID_3_)" d="M63.316,164.205c0.5-0.096,0.998-0.139,1.487-0.137l0.063-13.115
		c-1.328-0.006-2.678,0.115-4.033,0.377c-0.004,0-0.006,0.001-0.012,0.001l2.481,12.877
		C63.31,164.208,63.313,164.207,63.316,164.205z"/>
	
		<linearGradient id="SVGID_4_" gradientUnits="userSpaceOnUse" x1="484.1396" y1="879.4688" x2="488.1129" y2="880.2318" gradientTransform="matrix(0.9284 -0.3717 0.3717 0.9284 -716.9287 -478.1987)">
		<stop  offset="0.0056" style="stop-color:#FBCA11"/>
		<stop  offset="0.2528" style="stop-color:#FFFFBF"/>
		<stop  offset="0.2997" style="stop-color:#F9F3AE"/>
		<stop  offset="0.393" style="stop-color:#E8D381"/>
		<stop  offset="0.5226" style="stop-color:#CEA139"/>
		<stop  offset="0.5955" style="stop-color:#BE820E"/>
		<stop  offset="0.8558" style="stop-color:#E8D56A"/>
		<stop  offset="0.8708" style="stop-color:#EADA6F"/>
		<stop  offset="1" style="stop-color:#FFFFBF"/>
	</linearGradient>
	<path fill="url(#SVGID_4_)" d="M61.904,164.617c0.473-0.188,0.953-0.325,1.436-0.416l-2.42-12.893
		c-1.307,0.248-2.608,0.621-3.889,1.135c-0.004,0-0.009,0.002-0.013,0.004l4.874,12.175C61.897,164.621,61.9,164.619,61.904,164.617
		z"/>
	
		<linearGradient id="SVGID_5_" gradientUnits="userSpaceOnUse" x1="442.0049" y1="941.4902" x2="445.9791" y2="942.2535" gradientTransform="matrix(0.8413 -0.5406 0.5406 0.8413 -823.8447 -393.5273)">
		<stop  offset="0.0056" style="stop-color:#FBCA11"/>
		<stop  offset="0.2528" style="stop-color:#FFFFBF"/>
		<stop  offset="0.2997" style="stop-color:#F9F3AE"/>
		<stop  offset="0.393" style="stop-color:#E8D381"/>
		<stop  offset="0.5226" style="stop-color:#CEA139"/>
		<stop  offset="0.5955" style="stop-color:#BE820E"/>
		<stop  offset="0.8558" style="stop-color:#E8D56A"/>
		<stop  offset="0.8708" style="stop-color:#EADA6F"/>
		<stop  offset="1" style="stop-color:#FFFFBF"/>
	</linearGradient>
	<path fill="url(#SVGID_5_)" d="M60.597,165.29c0.427-0.275,0.875-0.5,1.331-0.681l-4.814-12.201
		c-1.238,0.49-2.445,1.104-3.604,1.851c-0.005,0.002-0.007,0.004-0.011,0.006l7.09,11.031
		C60.59,165.295,60.593,165.293,60.597,165.29z"/>
	
		<linearGradient id="SVGID_6_" gradientUnits="userSpaceOnUse" x1="388.7275" y1="994.4824" x2="392.6999" y2="995.2454" gradientTransform="matrix(0.7237 -0.6901 0.6901 0.7237 -912.8008 -290.1528)">
		<stop  offset="0.0056" style="stop-color:#FBCA11"/>
		<stop  offset="0.2528" style="stop-color:#FFFFBF"/>
		<stop  offset="0.2997" style="stop-color:#F9F3AE"/>
		<stop  offset="0.393" style="stop-color:#E8D381"/>
		<stop  offset="0.5226" style="stop-color:#CEA139"/>
		<stop  offset="0.5955" style="stop-color:#BE820E"/>
		<stop  offset="0.8558" style="stop-color:#E8D56A"/>
		<stop  offset="0.8708" style="stop-color:#EADA6F"/>
		<stop  offset="1" style="stop-color:#FFFFBF"/>
	</linearGradient>
	<path fill="url(#SVGID_6_)" d="M59.438,166.195c0.368-0.35,0.765-0.655,1.177-0.918l-7.037-11.068
		c-1.121,0.714-2.189,1.546-3.189,2.497c-0.002,0.003-0.006,0.006-0.008,0.01l9.049,9.49
		C59.433,166.204,59.436,166.199,59.438,166.195z"/>
	
		<linearGradient id="SVGID_7_" gradientUnits="userSpaceOnUse" x1="326.5332" y1="1036.3105" x2="330.5055" y2="1037.0735" gradientTransform="matrix(0.5801 -0.8146 0.8146 0.5801 -980.5869 -171.8081)">
		<stop  offset="0.0056" style="stop-color:#FBCA11"/>
		<stop  offset="0.2528" style="stop-color:#FFFFBF"/>
		<stop  offset="0.2997" style="stop-color:#F9F3AE"/>
		<stop  offset="0.393" style="stop-color:#E8D381"/>
		<stop  offset="0.5226" style="stop-color:#CEA139"/>
		<stop  offset="0.5955" style="stop-color:#BE820E"/>
		<stop  offset="0.8558" style="stop-color:#E8D56A"/>
		<stop  offset="0.8708" style="stop-color:#EADA6F"/>
		<stop  offset="1" style="stop-color:#FFFFBF"/>
	</linearGradient>
	<path fill="url(#SVGID_7_)" d="M58.474,167.307c0.295-0.414,0.626-0.787,0.981-1.125l-9.004-9.537
		c-0.968,0.915-1.858,1.934-2.658,3.058c-0.002,0.002-0.006,0.006-0.008,0.009l10.682,7.605
		C58.47,167.314,58.472,167.313,58.474,167.307z"/>
	
		<linearGradient id="SVGID_8_" gradientUnits="userSpaceOnUse" x1="257.4551" y1="1065.7627" x2="261.4293" y2="1066.5259" gradientTransform="matrix(0.4154 -0.9096 0.9096 0.4154 -1024.75 -42.7776)">
		<stop  offset="0.0056" style="stop-color:#FBCA11"/>
		<stop  offset="0.2528" style="stop-color:#FFFFBF"/>
		<stop  offset="0.2997" style="stop-color:#F9F3AE"/>
		<stop  offset="0.393" style="stop-color:#E8D381"/>
		<stop  offset="0.5226" style="stop-color:#CEA139"/>
		<stop  offset="0.5955" style="stop-color:#BE820E"/>
		<stop  offset="0.8558" style="stop-color:#E8D56A"/>
		<stop  offset="0.8708" style="stop-color:#EADA6F"/>
		<stop  offset="1" style="stop-color:#FFFFBF"/>
	</linearGradient>
	<path fill="url(#SVGID_8_)" d="M57.735,168.58c0.212-0.462,0.466-0.893,0.753-1.291l-10.648-7.66
		c-0.775,1.081-1.457,2.25-2.033,3.505c-0.002,0.003-0.003,0.007-0.005,0.013l11.93,5.447
		C57.731,168.588,57.733,168.584,57.735,168.58z"/>
	
		<linearGradient id="SVGID_9_" gradientUnits="userSpaceOnUse" x1="184.1348" y1="1081.4805" x2="188.1071" y2="1082.2434" gradientTransform="matrix(0.2358 -0.9718 0.9718 0.2358 -1043.6953 92.2832)">
		<stop  offset="0.0056" style="stop-color:#FBCA11"/>
		<stop  offset="0.2528" style="stop-color:#FFFFBF"/>
		<stop  offset="0.2997" style="stop-color:#F9F3AE"/>
		<stop  offset="0.393" style="stop-color:#E8D381"/>
		<stop  offset="0.5226" style="stop-color:#CEA139"/>
		<stop  offset="0.5955" style="stop-color:#BE820E"/>
		<stop  offset="0.8558" style="stop-color:#E8D56A"/>
		<stop  offset="0.8708" style="stop-color:#EADA6F"/>
		<stop  offset="1" style="stop-color:#FFFFBF"/>
	</linearGradient>
	<path fill="url(#SVGID_9_)" d="M57.252,169.97c0.119-0.495,0.287-0.966,0.492-1.411l-11.904-5.506
		c-0.557,1.207-1.006,2.484-1.332,3.825c0,0.003-0.002,0.007-0.004,0.012l12.746,3.091C57.25,169.979,57.25,169.975,57.252,169.97z"
		/>
	
		<linearGradient id="SVGID_10_" gradientUnits="userSpaceOnUse" x1="109.1045" y1="1083.0527" x2="113.0768" y2="1083.8158" gradientTransform="matrix(0.0476 -0.9989 0.9989 0.0476 -1036.7412 228.4868)">
		<stop  offset="0.0056" style="stop-color:#FBCA11"/>
		<stop  offset="0.2528" style="stop-color:#FFFFBF"/>
		<stop  offset="0.2997" style="stop-color:#F9F3AE"/>
		<stop  offset="0.393" style="stop-color:#E8D381"/>
		<stop  offset="0.5226" style="stop-color:#CEA139"/>
		<stop  offset="0.5955" style="stop-color:#BE820E"/>
		<stop  offset="0.8558" style="stop-color:#E8D56A"/>
		<stop  offset="0.8708" style="stop-color:#EADA6F"/>
		<stop  offset="1" style="stop-color:#FFFFBF"/>
	</linearGradient>
	<path fill="url(#SVGID_10_)" d="M57.039,171.426c0.025-0.509,0.103-1.003,0.22-1.479l-12.731-3.153
		c-0.318,1.292-0.517,2.63-0.585,4.009c0,0.004,0,0.008,0,0.012l13.099,0.623C57.039,171.434,57.039,171.43,57.039,171.426z"/>
	
		<linearGradient id="SVGID_11_" gradientUnits="userSpaceOnUse" x1="35.1128" y1="1070.4814" x2="39.087" y2="1071.2448" gradientTransform="matrix(-0.1423 -0.9898 0.9898 -0.1423 -1004.1328 360.9141)">
		<stop  offset="0.0056" style="stop-color:#FBCA11"/>
		<stop  offset="0.2528" style="stop-color:#FFFFBF"/>
		<stop  offset="0.2997" style="stop-color:#F9F3AE"/>
		<stop  offset="0.393" style="stop-color:#E8D381"/>
		<stop  offset="0.5226" style="stop-color:#CEA139"/>
		<stop  offset="0.5955" style="stop-color:#BE820E"/>
		<stop  offset="0.8558" style="stop-color:#E8D56A"/>
		<stop  offset="0.8708" style="stop-color:#EADA6F"/>
		<stop  offset="1" style="stop-color:#FFFFBF"/>
	</linearGradient>
	<path fill="url(#SVGID_11_)" d="M57.106,172.896c-0.071-0.504-0.09-1.004-0.065-1.494l-13.096-0.688
		c-0.07,1.329-0.012,2.682,0.184,4.048c0,0.003,0.002,0.007,0.002,0.013l12.979-1.867C57.109,172.904,57.108,172.9,57.106,172.896z"
		/>
	
		<linearGradient id="SVGID_12_" gradientUnits="userSpaceOnUse" x1="-35.1475" y1="1044.0488" x2="-31.1723" y2="1044.8124" gradientTransform="matrix(-0.3271 -0.945 0.945 -0.3271 -947.0527 484.7764)">
		<stop  offset="0.0056" style="stop-color:#FBCA11"/>
		<stop  offset="0.2528" style="stop-color:#FFFFBF"/>
		<stop  offset="0.2997" style="stop-color:#F9F3AE"/>
		<stop  offset="0.393" style="stop-color:#E8D381"/>
		<stop  offset="0.5226" style="stop-color:#CEA139"/>
		<stop  offset="0.5955" style="stop-color:#BE820E"/>
		<stop  offset="0.8558" style="stop-color:#E8D56A"/>
		<stop  offset="0.8708" style="stop-color:#EADA6F"/>
		<stop  offset="1" style="stop-color:#FFFFBF"/>
	</linearGradient>
	<path fill="url(#SVGID_12_)" d="M57.453,174.327c-0.168-0.482-0.281-0.97-0.349-1.455l-12.991,1.803
		c0.184,1.317,0.495,2.636,0.946,3.938c0.001,0.005,0.004,0.009,0.004,0.014l12.392-4.291
		C57.455,174.333,57.455,174.329,57.453,174.327z"/>
	
		<linearGradient id="SVGID_13_" gradientUnits="userSpaceOnUse" x1="-99.124" y1="1004.8633" x2="-95.1488" y2="1005.6266" gradientTransform="matrix(-0.5 -0.866 0.866 -0.5 -867.5635 595.5986)">
		<stop  offset="0.0056" style="stop-color:#FBCA11"/>
		<stop  offset="0.2528" style="stop-color:#FFFFBF"/>
		<stop  offset="0.2997" style="stop-color:#F9F3AE"/>
		<stop  offset="0.393" style="stop-color:#E8D381"/>
		<stop  offset="0.5226" style="stop-color:#CEA139"/>
		<stop  offset="0.5955" style="stop-color:#BE820E"/>
		<stop  offset="0.8558" style="stop-color:#E8D56A"/>
		<stop  offset="0.8708" style="stop-color:#EADA6F"/>
		<stop  offset="1" style="stop-color:#FFFFBF"/>
	</linearGradient>
	<path fill="url(#SVGID_13_)" d="M58.062,175.665c-0.255-0.443-0.459-0.899-0.616-1.362l-12.414,4.229
		c0.43,1.261,0.984,2.494,1.674,3.689c0.002,0.004,0.004,0.008,0.008,0.012l11.355-6.558
		C58.066,175.671,58.064,175.667,58.062,175.665z"/>
	
		<linearGradient id="SVGID_14_" gradientUnits="userSpaceOnUse" x1="-154.5347" y1="954.2344" x2="-150.5623" y2="954.9972" gradientTransform="matrix(-0.6549 -0.7557 0.7557 -0.6549 -768.5352 689.373)">
		<stop  offset="0.0056" style="stop-color:#FBCA11"/>
		<stop  offset="0.2528" style="stop-color:#FFFFBF"/>
		<stop  offset="0.2997" style="stop-color:#F9F3AE"/>
		<stop  offset="0.393" style="stop-color:#E8D381"/>
		<stop  offset="0.5226" style="stop-color:#CEA139"/>
		<stop  offset="0.5955" style="stop-color:#BE820E"/>
		<stop  offset="0.8558" style="stop-color:#E8D56A"/>
		<stop  offset="0.8708" style="stop-color:#EADA6F"/>
		<stop  offset="1" style="stop-color:#FFFFBF"/>
	</linearGradient>
	<path fill="url(#SVGID_14_)" d="M58.914,176.865c-0.334-0.387-0.619-0.797-0.863-1.221l-11.389,6.502
		c0.66,1.154,1.438,2.262,2.342,3.306c0.002,0.003,0.005,0.006,0.007,0.009l9.911-8.588
		C58.918,176.87,58.916,176.867,58.914,176.865z"/>
	
		<linearGradient id="SVGID_15_" gradientUnits="userSpaceOnUse" x1="-199.2783" y1="893.9922" x2="-195.305" y2="894.7553" gradientTransform="matrix(-0.7861 -0.6182 0.6182 -0.7861 -653.5537 762.71)">
		<stop  offset="0.0056" style="stop-color:#FBCA11"/>
		<stop  offset="0.2528" style="stop-color:#FFFFBF"/>
		<stop  offset="0.2997" style="stop-color:#F9F3AE"/>
		<stop  offset="0.393" style="stop-color:#E8D381"/>
		<stop  offset="0.5226" style="stop-color:#CEA139"/>
		<stop  offset="0.5955" style="stop-color:#BE820E"/>
		<stop  offset="0.8558" style="stop-color:#E8D56A"/>
		<stop  offset="0.8708" style="stop-color:#EADA6F"/>
		<stop  offset="1" style="stop-color:#FFFFBF"/>
	</linearGradient>
	<path fill="url(#SVGID_15_)" d="M59.977,177.881c-0.4-0.314-0.76-0.662-1.078-1.034l-9.953,8.539
		c0.866,1.009,1.842,1.949,2.926,2.804c0.002,0.002,0.006,0.004,0.008,0.008l8.107-10.309
		C59.983,177.886,59.979,177.883,59.977,177.881z"/>
	
		<linearGradient id="SVGID_16_" gradientUnits="userSpaceOnUse" x1="-231.9644" y1="826.4941" x2="-227.9911" y2="827.2571" gradientTransform="matrix(-0.8888 -0.4582 0.4582 -0.8888 -526.7686 812.96)">
		<stop  offset="0.0056" style="stop-color:#FBCA11"/>
		<stop  offset="0.2528" style="stop-color:#FFFFBF"/>
		<stop  offset="0.2997" style="stop-color:#F9F3AE"/>
		<stop  offset="0.393" style="stop-color:#E8D381"/>
		<stop  offset="0.5226" style="stop-color:#CEA139"/>
		<stop  offset="0.5955" style="stop-color:#BE820E"/>
		<stop  offset="0.8558" style="stop-color:#E8D56A"/>
		<stop  offset="0.8708" style="stop-color:#EADA6F"/>
		<stop  offset="1" style="stop-color:#FFFFBF"/>
	</linearGradient>
	<path fill="url(#SVGID_16_)" d="M61.211,178.678c-0.452-0.234-0.871-0.508-1.254-0.813l-8.155,10.271
		c1.042,0.827,2.177,1.563,3.403,2.197c0.002,0.002,0.006,0.004,0.01,0.008l6.01-11.655
		C61.221,178.682,61.218,178.679,61.211,178.678z"/>
	
		<linearGradient id="SVGID_17_" gradientUnits="userSpaceOnUse" x1="-251.1816" y1="753.9336" x2="-247.2084" y2="754.6967" gradientTransform="matrix(-0.9595 -0.2817 0.2817 -0.9595 -392.7637 838.3135)">
		<stop  offset="0.0056" style="stop-color:#FBCA11"/>
		<stop  offset="0.2528" style="stop-color:#FFFFBF"/>
		<stop  offset="0.2997" style="stop-color:#F9F3AE"/>
		<stop  offset="0.393" style="stop-color:#E8D381"/>
		<stop  offset="0.5226" style="stop-color:#CEA139"/>
		<stop  offset="0.5955" style="stop-color:#BE820E"/>
		<stop  offset="0.8558" style="stop-color:#E8D56A"/>
		<stop  offset="0.8708" style="stop-color:#EADA6F"/>
		<stop  offset="1" style="stop-color:#FFFFBF"/>
	</linearGradient>
	<path fill="url(#SVGID_17_)" d="M62.576,179.227c-0.488-0.145-0.951-0.334-1.385-0.56l-6.066,11.627
		c1.18,0.614,2.434,1.125,3.759,1.515c0.003,0.002,0.007,0.002,0.01,0.004l3.694-12.584
		C62.584,179.229,62.58,179.227,62.576,179.227z"/>
	
		<linearGradient id="SVGID_18_" gradientUnits="userSpaceOnUse" x1="-256.3193" y1="679.0605" x2="-252.3451" y2="679.8237" gradientTransform="matrix(-0.9955 -0.0951 0.0951 -0.9955 -256.3838 837.8477)">
		<stop  offset="0.0056" style="stop-color:#FBCA11"/>
		<stop  offset="0.2528" style="stop-color:#FFFFBF"/>
		<stop  offset="0.2997" style="stop-color:#F9F3AE"/>
		<stop  offset="0.393" style="stop-color:#E8D381"/>
		<stop  offset="0.5226" style="stop-color:#CEA139"/>
		<stop  offset="0.5955" style="stop-color:#BE820E"/>
		<stop  offset="0.8558" style="stop-color:#E8D56A"/>
		<stop  offset="0.8708" style="stop-color:#EADA6F"/>
		<stop  offset="1" style="stop-color:#FFFFBF"/>
	</linearGradient>
	<path fill="url(#SVGID_18_)" d="M64.021,179.508c-0.508-0.049-0.999-0.148-1.468-0.288l-3.755,12.565
		c1.273,0.381,2.602,0.644,3.977,0.775c0.004,0,0.008,0,0.012,0.002l1.246-13.055C64.031,179.509,64.025,179.508,64.021,179.508z"/>
	
		<linearGradient id="SVGID_19_" gradientUnits="userSpaceOnUse" x1="-224.2222" y1="533.1787" x2="-220.2498" y2="533.9416" gradientTransform="matrix(-0.9595 0.2817 -0.2817 -0.9595 3.8779 760.4561)">
		<stop  offset="0.0056" style="stop-color:#FBCA11"/>
		<stop  offset="0.2528" style="stop-color:#FFFFBF"/>
		<stop  offset="0.2997" style="stop-color:#F9F3AE"/>
		<stop  offset="0.393" style="stop-color:#E8D381"/>
		<stop  offset="0.5226" style="stop-color:#CEA139"/>
		<stop  offset="0.5955" style="stop-color:#BE820E"/>
		<stop  offset="0.8558" style="stop-color:#E8D56A"/>
		<stop  offset="0.8708" style="stop-color:#EADA6F"/>
		<stop  offset="1" style="stop-color:#FFFFBF"/>
	</linearGradient>
	<path fill="url(#SVGID_19_)" d="M66.937,179.234c-0.489,0.144-0.979,0.233-1.468,0.276l1.184,13.063
		c1.324-0.122,2.655-0.37,3.979-0.76c0.005,0,0.009-0.002,0.013-0.002l-3.694-12.584C66.945,179.23,66.94,179.232,66.937,179.234z"
		/>
	
		<linearGradient id="SVGID_20_" gradientUnits="userSpaceOnUse" x1="-188.1045" y1="467.4277" x2="-184.1303" y2="468.1911" gradientTransform="matrix(-0.8888 0.4582 -0.4582 -0.8888 118.3555 686.3313)">
		<stop  offset="0.0056" style="stop-color:#FBCA11"/>
		<stop  offset="0.2528" style="stop-color:#FFFFBF"/>
		<stop  offset="0.2997" style="stop-color:#F9F3AE"/>
		<stop  offset="0.393" style="stop-color:#E8D381"/>
		<stop  offset="0.5226" style="stop-color:#CEA139"/>
		<stop  offset="0.5955" style="stop-color:#BE820E"/>
		<stop  offset="0.8558" style="stop-color:#E8D56A"/>
		<stop  offset="0.8708" style="stop-color:#EADA6F"/>
		<stop  offset="1" style="stop-color:#FFFFBF"/>
	</linearGradient>
	<path fill="url(#SVGID_20_)" d="M68.303,178.689c-0.451,0.233-0.919,0.416-1.389,0.551l3.635,12.603
		c1.275-0.371,2.535-0.866,3.765-1.5c0.004,0,0.007-0.003,0.011-0.005l-6.011-11.652C68.312,178.686,68.306,178.686,68.303,178.689z
		"/>
	
		<linearGradient id="SVGID_21_" gradientUnits="userSpaceOnUse" x1="-140.1558" y1="409.6406" x2="-136.1834" y2="410.4035" gradientTransform="matrix(-0.7861 0.6182 -0.6182 -0.7861 216.7383 591.8799)">
		<stop  offset="0.0056" style="stop-color:#FBCA11"/>
		<stop  offset="0.2528" style="stop-color:#FFFFBF"/>
		<stop  offset="0.2997" style="stop-color:#F9F3AE"/>
		<stop  offset="0.393" style="stop-color:#E8D381"/>
		<stop  offset="0.5226" style="stop-color:#CEA139"/>
		<stop  offset="0.5955" style="stop-color:#BE820E"/>
		<stop  offset="0.8558" style="stop-color:#E8D56A"/>
		<stop  offset="0.8708" style="stop-color:#EADA6F"/>
		<stop  offset="1" style="stop-color:#FFFFBF"/>
	</linearGradient>
	<path fill="url(#SVGID_21_)" d="M69.543,177.896c-0.401,0.315-0.824,0.582-1.262,0.803l5.955,11.688
		c1.184-0.605,2.325-1.33,3.411-2.184c0.002-0.001,0.009-0.006,0.011-0.008l-8.107-10.307
		C69.551,177.89,69.545,177.893,69.543,177.896z"/>
	
		<linearGradient id="SVGID_22_" gradientUnits="userSpaceOnUse" x1="-82.2031" y1="362.0352" x2="-78.2318" y2="362.7979" gradientTransform="matrix(-0.6549 0.7557 -0.7557 -0.6549 295.4658 480.5156)">
		<stop  offset="0.0056" style="stop-color:#FBCA11"/>
		<stop  offset="0.2528" style="stop-color:#FFFFBF"/>
		<stop  offset="0.2997" style="stop-color:#F9F3AE"/>
		<stop  offset="0.393" style="stop-color:#E8D381"/>
		<stop  offset="0.5226" style="stop-color:#CEA139"/>
		<stop  offset="0.5955" style="stop-color:#BE820E"/>
		<stop  offset="0.8558" style="stop-color:#E8D56A"/>
		<stop  offset="0.8708" style="stop-color:#EADA6F"/>
		<stop  offset="1" style="stop-color:#FFFFBF"/>
	</linearGradient>
	<path fill="url(#SVGID_22_)" d="M70.61,176.883c-0.335,0.387-0.7,0.727-1.087,1.025l8.061,10.349
		c1.047-0.817,2.031-1.746,2.936-2.789c0.004-0.002,0.006-0.006,0.01-0.008l-9.91-8.586C70.615,176.875,70.61,176.879,70.61,176.883
		z"/>
	
		<linearGradient id="SVGID_23_" gradientUnits="userSpaceOnUse" x1="-16.2383" y1="326.2461" x2="-12.266" y2="327.009" gradientTransform="matrix(-0.5 0.866 -0.866 -0.5 351.6934 356.2671)">
		<stop  offset="0.0056" style="stop-color:#FBCA11"/>
		<stop  offset="0.2528" style="stop-color:#FFFFBF"/>
		<stop  offset="0.2997" style="stop-color:#F9F3AE"/>
		<stop  offset="0.393" style="stop-color:#E8D381"/>
		<stop  offset="0.5226" style="stop-color:#CEA139"/>
		<stop  offset="0.5955" style="stop-color:#BE820E"/>
		<stop  offset="0.8558" style="stop-color:#E8D56A"/>
		<stop  offset="0.8708" style="stop-color:#EADA6F"/>
		<stop  offset="1" style="stop-color:#FFFFBF"/>
	</linearGradient>
	<path fill="url(#SVGID_23_)" d="M71.465,175.686c-0.256,0.442-0.551,0.846-0.871,1.215l9.869,8.637
		c0.873-1.002,1.666-2.1,2.357-3.295c0.002-0.002,0.006-0.008,0.006-0.01l-11.357-6.557
		C71.469,175.677,71.465,175.681,71.465,175.686z"/>
	
		<linearGradient id="SVGID_24_" gradientUnits="userSpaceOnUse" x1="55.2842" y1="303.5645" x2="59.2575" y2="304.3276" gradientTransform="matrix(-0.3271 0.945 -0.945 -0.3271 383.3945 223.6201)">
		<stop  offset="0.0056" style="stop-color:#FBCA11"/>
		<stop  offset="0.2528" style="stop-color:#FFFFBF"/>
		<stop  offset="0.2997" style="stop-color:#F9F3AE"/>
		<stop  offset="0.393" style="stop-color:#E8D381"/>
		<stop  offset="0.5226" style="stop-color:#CEA139"/>
		<stop  offset="0.5955" style="stop-color:#BE820E"/>
		<stop  offset="0.8558" style="stop-color:#E8D56A"/>
		<stop  offset="0.8708" style="stop-color:#EADA6F"/>
		<stop  offset="1" style="stop-color:#FFFFBF"/>
	</linearGradient>
	<path fill="url(#SVGID_24_)" d="M72.078,174.35c-0.166,0.482-0.379,0.934-0.625,1.355l11.326,6.613
		c0.67-1.148,1.237-2.377,1.689-3.682c0.002-0.003,0.004-0.007,0.006-0.01l-12.395-4.289
		C72.08,174.339,72.076,174.345,72.078,174.35z"/>
	
		<linearGradient id="SVGID_25_" gradientUnits="userSpaceOnUse" x1="129.832" y1="294.8594" x2="133.8063" y2="295.6228" gradientTransform="matrix(-0.1423 0.9898 -0.9898 -0.1423 389.416 87.3745)">
		<stop  offset="0.0056" style="stop-color:#FBCA11"/>
		<stop  offset="0.2528" style="stop-color:#FFFFBF"/>
		<stop  offset="0.2997" style="stop-color:#F9F3AE"/>
		<stop  offset="0.393" style="stop-color:#E8D381"/>
		<stop  offset="0.5226" style="stop-color:#CEA139"/>
		<stop  offset="0.5955" style="stop-color:#BE820E"/>
		<stop  offset="0.8558" style="stop-color:#E8D56A"/>
		<stop  offset="0.8708" style="stop-color:#EADA6F"/>
		<stop  offset="1" style="stop-color:#FFFFBF"/>
	</linearGradient>
	<path fill="url(#SVGID_25_)" d="M72.427,172.919c-0.074,0.507-0.195,0.989-0.356,1.452l12.371,4.35
		c0.439-1.256,0.768-2.568,0.963-3.935c0.002-0.003,0.002-0.009,0.004-0.013l-12.98-1.865
		C72.427,172.91,72.425,172.916,72.427,172.919z"/>
	
		<linearGradient id="SVGID_26_" gradientUnits="userSpaceOnUse" x1="204.6484" y1="300.3848" x2="208.6217" y2="301.1479" gradientTransform="matrix(0.0476 0.9989 -0.9989 0.0476 369.5439 -47.5508)">
		<stop  offset="0.0056" style="stop-color:#FBCA11"/>
		<stop  offset="0.2528" style="stop-color:#FFFFBF"/>
		<stop  offset="0.2997" style="stop-color:#F9F3AE"/>
		<stop  offset="0.393" style="stop-color:#E8D381"/>
		<stop  offset="0.5226" style="stop-color:#CEA139"/>
		<stop  offset="0.5955" style="stop-color:#BE820E"/>
		<stop  offset="0.8558" style="stop-color:#E8D56A"/>
		<stop  offset="0.8708" style="stop-color:#EADA6F"/>
		<stop  offset="1" style="stop-color:#FFFFBF"/>
	</linearGradient>
	<path fill="url(#SVGID_26_)" d="M72.498,171.449c0.023,0.512-0.004,1.008-0.076,1.494l12.974,1.928
		c0.192-1.315,0.265-2.666,0.201-4.047c0.002-0.002,0-0.006,0-0.012l-13.101,0.625C72.496,171.439,72.496,171.447,72.498,171.449z"
		/>
	
		<linearGradient id="SVGID_27_" gradientUnits="userSpaceOnUse" x1="277.0908" y1="320.0107" x2="281.065" y2="320.7741" gradientTransform="matrix(0.2358 0.9718 -0.9718 0.2358 324.499 -176.2783)">
		<stop  offset="0.0056" style="stop-color:#FBCA11"/>
		<stop  offset="0.2528" style="stop-color:#FFFFBF"/>
		<stop  offset="0.2997" style="stop-color:#F9F3AE"/>
		<stop  offset="0.393" style="stop-color:#E8D381"/>
		<stop  offset="0.5226" style="stop-color:#CEA139"/>
		<stop  offset="0.5955" style="stop-color:#BE820E"/>
		<stop  offset="0.8558" style="stop-color:#E8D56A"/>
		<stop  offset="0.8708" style="stop-color:#EADA6F"/>
		<stop  offset="1" style="stop-color:#FFFFBF"/>
	</linearGradient>
	<path fill="url(#SVGID_27_)" d="M72.291,169.993c0.121,0.495,0.188,0.989,0.209,1.481l13.103-0.563
		c-0.06-1.328-0.243-2.669-0.567-4.012c0-0.004-0.002-0.008-0.002-0.013l-12.744,3.093C72.289,169.982,72.289,169.99,72.291,169.993
		z"/>
	
		<linearGradient id="SVGID_28_" gradientUnits="userSpaceOnUse" x1="344.5195" y1="352.9658" x2="348.4919" y2="353.7287" gradientTransform="matrix(0.4154 0.9096 -0.9096 0.4154 255.9031 -294.1523)">
		<stop  offset="0.0056" style="stop-color:#FBCA11"/>
		<stop  offset="0.2528" style="stop-color:#FFFFBF"/>
		<stop  offset="0.2997" style="stop-color:#F9F3AE"/>
		<stop  offset="0.393" style="stop-color:#E8D381"/>
		<stop  offset="0.5226" style="stop-color:#CEA139"/>
		<stop  offset="0.5955" style="stop-color:#BE820E"/>
		<stop  offset="0.8558" style="stop-color:#E8D56A"/>
		<stop  offset="0.8708" style="stop-color:#EADA6F"/>
		<stop  offset="1" style="stop-color:#FFFFBF"/>
	</linearGradient>
	<path fill="url(#SVGID_28_)" d="M71.813,168.604c0.213,0.465,0.371,0.937,0.484,1.414l12.76-3.031
		c-0.307-1.293-0.742-2.574-1.316-3.83c-0.002-0.004-0.004-0.008-0.004-0.012l-11.929,5.447
		C71.809,168.594,71.811,168.602,71.813,168.604z"/>
	
		<linearGradient id="SVGID_29_" gradientUnits="userSpaceOnUse" x1="404.4297" y1="398.0625" x2="408.4011" y2="398.8252" gradientTransform="matrix(0.5801 0.8146 -0.8146 0.5801 166.2417 -396.916)">
		<stop  offset="0.0056" style="stop-color:#FBCA11"/>
		<stop  offset="0.2528" style="stop-color:#FFFFBF"/>
		<stop  offset="0.2997" style="stop-color:#F9F3AE"/>
		<stop  offset="0.393" style="stop-color:#E8D381"/>
		<stop  offset="0.5226" style="stop-color:#CEA139"/>
		<stop  offset="0.5955" style="stop-color:#BE820E"/>
		<stop  offset="0.8558" style="stop-color:#E8D56A"/>
		<stop  offset="0.8708" style="stop-color:#EADA6F"/>
		<stop  offset="1" style="stop-color:#FFFFBF"/>
	</linearGradient>
	<path fill="url(#SVGID_29_)" d="M71.08,167.328c0.295,0.417,0.541,0.851,0.744,1.297l11.955-5.393
		c-0.548-1.209-1.219-2.386-2.02-3.511c-0.004-0.003-0.004-0.007-0.006-0.01l-10.682,7.606
		C71.072,167.318,71.076,167.326,71.08,167.328z"/>
	
		<linearGradient id="SVGID_30_" gradientUnits="userSpaceOnUse" x1="454.8066" y1="453.709" x2="458.7761" y2="454.4713" gradientTransform="matrix(0.7237 0.6901 -0.6901 0.7237 58.7515 -480.8555)">
		<stop  offset="0.0056" style="stop-color:#FBCA11"/>
		<stop  offset="0.2528" style="stop-color:#FFFFBF"/>
		<stop  offset="0.2997" style="stop-color:#F9F3AE"/>
		<stop  offset="0.393" style="stop-color:#E8D381"/>
		<stop  offset="0.5226" style="stop-color:#CEA139"/>
		<stop  offset="0.5955" style="stop-color:#BE820E"/>
		<stop  offset="0.8558" style="stop-color:#E8D56A"/>
		<stop  offset="0.8708" style="stop-color:#EADA6F"/>
		<stop  offset="1" style="stop-color:#FFFFBF"/>
	</linearGradient>
	<path fill="url(#SVGID_30_)" d="M70.119,166.214c0.369,0.354,0.69,0.733,0.977,1.133l10.718-7.557
		c-0.769-1.083-1.646-2.112-2.646-3.066c-0.002-0.002-0.006-0.005-0.008-0.007l-9.051,9.489
		C70.11,166.207,70.115,166.214,70.119,166.214z"/>
	
		<linearGradient id="SVGID_31_" gradientUnits="userSpaceOnUse" x1="493.6523" y1="517.917" x2="497.6247" y2="518.68" gradientTransform="matrix(0.8413 0.5406 -0.5406 0.8413 -62.6812 -542.9316)">
		<stop  offset="0.0056" style="stop-color:#FBCA11"/>
		<stop  offset="0.2528" style="stop-color:#FFFFBF"/>
		<stop  offset="0.2997" style="stop-color:#F9F3AE"/>
		<stop  offset="0.393" style="stop-color:#E8D381"/>
		<stop  offset="0.5226" style="stop-color:#CEA139"/>
		<stop  offset="0.5955" style="stop-color:#BE820E"/>
		<stop  offset="0.8558" style="stop-color:#E8D56A"/>
		<stop  offset="0.8708" style="stop-color:#EADA6F"/>
		<stop  offset="1" style="stop-color:#FFFFBF"/>
	</linearGradient>
	<path fill="url(#SVGID_31_)" d="M68.963,165.303c0.43,0.277,0.818,0.59,1.173,0.928l9.096-9.448
		c-0.96-0.921-2.019-1.763-3.18-2.511c-0.005-0.002-0.007-0.004-0.009-0.006l-7.092,11.03
		C68.953,165.297,68.959,165.303,68.963,165.303z"/>
	
		<linearGradient id="SVGID_32_" gradientUnits="userSpaceOnUse" x1="519.7148" y1="588.2275" x2="523.6862" y2="588.9903" gradientTransform="matrix(0.9284 0.3717 -0.3717 0.9284 -193.6675 -580.9063)">
		<stop  offset="0.0056" style="stop-color:#FBCA11"/>
		<stop  offset="0.2528" style="stop-color:#FFFFBF"/>
		<stop  offset="0.2997" style="stop-color:#F9F3AE"/>
		<stop  offset="0.393" style="stop-color:#E8D381"/>
		<stop  offset="0.5226" style="stop-color:#CEA139"/>
		<stop  offset="0.5955" style="stop-color:#BE820E"/>
		<stop  offset="0.8558" style="stop-color:#E8D56A"/>
		<stop  offset="0.8708" style="stop-color:#EADA6F"/>
		<stop  offset="1" style="stop-color:#FFFFBF"/>
	</linearGradient>
	<path fill="url(#SVGID_32_)" d="M67.656,164.628c0.475,0.19,0.914,0.423,1.327,0.688l7.144-11c-1.117-0.721-2.315-1.35-3.598-1.862
		c-0.005-0.001-0.008-0.005-0.009-0.005l-4.876,12.173C67.646,164.623,67.652,164.629,67.656,164.628z"/>
	
		<linearGradient id="SVGID_33_" gradientUnits="userSpaceOnUse" x1="532.0273" y1="662.2803" x2="535.9977" y2="663.0428" gradientTransform="matrix(0.9819 0.1893 -0.1893 0.9819 -329.4731 -593.4063)">
		<stop  offset="0.0056" style="stop-color:#FBCA11"/>
		<stop  offset="0.2528" style="stop-color:#FFFFBF"/>
		<stop  offset="0.2997" style="stop-color:#F9F3AE"/>
		<stop  offset="0.393" style="stop-color:#E8D381"/>
		<stop  offset="0.5226" style="stop-color:#CEA139"/>
		<stop  offset="0.5955" style="stop-color:#BE820E"/>
		<stop  offset="0.8558" style="stop-color:#E8D56A"/>
		<stop  offset="0.8708" style="stop-color:#EADA6F"/>
		<stop  offset="1" style="stop-color:#FFFFBF"/>
	</linearGradient>
	<path fill="url(#SVGID_33_)" d="M66.246,164.211c0.502,0.098,0.979,0.242,1.435,0.424l4.931-12.152
		c-1.23-0.498-2.527-0.887-3.884-1.147c-0.004,0-0.008-0.003-0.01-0.003l-2.484,12.877
		C66.235,164.209,66.242,164.212,66.246,164.211z"/>
</g>
<linearGradient id="SVGID_34_" gradientUnits="userSpaceOnUse" x1="233.7021" y1="-215.0146" x2="361.5345" y2="-215.0146" gradientTransform="matrix(1 0 0 -1 -232.5996 -28.9902)">
	<stop  offset="0.0143" style="stop-color:#FBCB13"/>
	<stop  offset="0.2528" style="stop-color:#FCFEC2"/>
	<stop  offset="0.2986" style="stop-color:#F7EFA7"/>
	<stop  offset="0.3896" style="stop-color:#E6D074"/>
	<stop  offset="0.4799" style="stop-color:#FBCB13"/>
	<stop  offset="0.5159" style="stop-color:#CE9F31"/>
	<stop  offset="0.5955" style="stop-color:#BD810B"/>
	<stop  offset="0.8143" style="stop-color:#E0C454"/>
	<stop  offset="0.8708" style="stop-color:#EDD96B"/>
	<stop  offset="1" style="stop-color:#FCFEC2"/>
</linearGradient>
<polygon fill="url(#SVGID_34_)" points="128.768,179.473 64.078,179.509 62.853,192.563 128.768,192.576 "/>
<path fill="#CA9A3C" d="M76.236,179.502c1.938-2.436,2.887-5.516,2.887-8.574c0-7.896-6.426-14.322-14.326-14.322l0,0
	c-7.896,0-14.322,6.426-14.322,14.322s6.427,14.324,14.322,14.324h11.324h8.641h44.01v1.764l0,0H64.797
	c-8.872,0-16.09-7.217-16.09-16.088s7.218-16.089,16.09-16.089c8.869,0,16.087,7.218,16.087,16.089c0,2.221-0.444,4.373-1.324,6.398
	l-0.979,2.175L76.236,179.502z"/>
</svg>
