<?xml version="1.0" encoding="utf-8"?>
<!-- Generator: Adobe Illustrator 16.0.3, SVG Export Plug-In . SVG Version: 6.00 Build 0)  -->
<!DOCTYPE svg PUBLIC "-//W3C//DTD SVG 1.1//EN" "http://www.w3.org/Graphics/SVG/1.1/DTD/svg11.dtd">
<svg version="1.1" id="Layer_1" xmlns="http://www.w3.org/2000/svg" xmlns:xlink="http://www.w3.org/1999/xlink" x="0px" y="0px"
	 width="100px" height="231.515px" viewBox="0 0 100 231.515" enable-background="new 0 0 100 231.515" xml:space="preserve">
<g>
	<g>
		<polygon points="0.359,44.248 0.359,232.432 100.081,232.432 100.081,44.248 50.22,0.139 		"/>
		<path fill="#070606" d="M100.081,232.57H0.359c-0.078,0-0.139-0.063-0.139-0.139V44.248c0-0.04,0.017-0.078,0.047-0.104
			L50.127,0.035c0.053-0.047,0.131-0.047,0.185,0l49.861,44.108c0.029,0.026,0.047,0.065,0.047,0.104v188.184
			C100.22,232.507,100.156,232.57,100.081,232.57z M0.498,232.292h99.443V44.311L50.22,0.325L0.498,44.311V232.292z"/>
	</g>
	<g>
		<g>
			<g>
				
					<linearGradient id="SVGID_1_" gradientUnits="userSpaceOnUse" x1="-287.936" y1="-524.6479" x2="-269.2438" y2="-543.3402" gradientTransform="matrix(0 -1 1 0 584.2158 -246.584)">
					<stop  offset="0.0056" style="stop-color:#FBCA11"/>
					<stop  offset="0.2528" style="stop-color:#FFFFBF"/>
					<stop  offset="0.2997" style="stop-color:#F9F3AE"/>
					<stop  offset="0.393" style="stop-color:#E8D381"/>
					<stop  offset="0.5226" style="stop-color:#CEA139"/>
					<stop  offset="0.5955" style="stop-color:#BE820E"/>
					<stop  offset="0.8558" style="stop-color:#E8D56A"/>
					<stop  offset="0.8708" style="stop-color:#EADA6F"/>
					<stop  offset="1" style="stop-color:#FFFFBF"/>
				</linearGradient>
				<circle fill="url(#SVGID_1_)" cx="50.221" cy="32.005" r="13.218"/>
				<path fill="#D8962D" d="M50.221,45.473c-7.426,0-13.467-6.042-13.467-13.467c0-7.428,6.042-13.47,13.467-13.47
					c7.425,0,13.466,6.042,13.466,13.47C63.687,39.432,57.646,45.473,50.221,45.473z M50.221,19.038
					c-7.149,0-12.965,5.818-12.965,12.969c0,7.15,5.816,12.965,12.965,12.965c7.147,0,12.966-5.815,12.966-12.965
					C63.187,24.856,57.368,19.038,50.221,19.038z"/>
			</g>
			
				<radialGradient id="SVGID_2_" cx="-270.7808" cy="-542.105" r="22.9159" gradientTransform="matrix(0 -1 1 0 584.2163 -246.584)" gradientUnits="userSpaceOnUse">
				<stop  offset="0" style="stop-color:#FFFFBF"/>
				<stop  offset="0.1369" style="stop-color:#F9F3AE"/>
				<stop  offset="0.4091" style="stop-color:#E8D381"/>
				<stop  offset="0.7872" style="stop-color:#CEA139"/>
				<stop  offset="1" style="stop-color:#BE820E"/>
			</radialGradient>
			<path fill="url(#SVGID_2_)" d="M39.091,32.011c0.006,6.151,4.979,11.121,11.128,11.128l0,0
				c6.147-0.007,11.118-4.977,11.132-11.128l0,0c-0.014-6.146-4.984-11.125-11.132-11.138l0,0
				C44.07,20.886,39.097,25.865,39.091,32.011L39.091,32.011z"/>
		</g>
	</g>
</g>
<linearGradient id="rect2786_2_" gradientUnits="userSpaceOnUse" x1="0.0381" y1="213.0625" x2="99.8857" y2="213.0625">
	<stop  offset="0.0056" style="stop-color:#FBCA11"/>
	<stop  offset="0.2528" style="stop-color:#FFFFBF"/>
	<stop  offset="0.2997" style="stop-color:#F9F3AE"/>
	<stop  offset="0.393" style="stop-color:#E8D381"/>
	<stop  offset="0.5226" style="stop-color:#CEA139"/>
	<stop  offset="0.5955" style="stop-color:#BE820E"/>
	<stop  offset="0.8558" style="stop-color:#E8D56A"/>
	<stop  offset="0.8708" style="stop-color:#EADA6F"/>
	<stop  offset="1" style="stop-color:#FFFFBF"/>
</linearGradient>
<rect id="rect2786_1_" x="0.038" y="201.681" fill="url(#rect2786_2_)" width="99.848" height="22.764"/>
<g>
	<linearGradient id="SVGID_3_" gradientUnits="userSpaceOnUse" x1="50.0483" y1="163.3477" x2="56.9198" y2="164.6674">
		<stop  offset="0.0056" style="stop-color:#FBCA11"/>
		<stop  offset="0.2528" style="stop-color:#FFFFBF"/>
		<stop  offset="0.2997" style="stop-color:#F9F3AE"/>
		<stop  offset="0.393" style="stop-color:#E8D381"/>
		<stop  offset="0.5226" style="stop-color:#CEA139"/>
		<stop  offset="0.5955" style="stop-color:#BE820E"/>
		<stop  offset="0.8558" style="stop-color:#E8D56A"/>
		<stop  offset="0.8708" style="stop-color:#EADA6F"/>
		<stop  offset="1" style="stop-color:#FFFFBF"/>
	</linearGradient>
	<path fill="url(#SVGID_3_)" d="M49.985,175.001c0.88,0,1.739,0.091,2.572,0.254l4.401-22.251c-2.257-0.442-4.587-0.68-6.973-0.68
		c-0.007,0-0.014,0-0.021,0v22.678C49.971,175.002,49.978,175.001,49.985,175.001z"/>
	
		<linearGradient id="SVGID_4_" gradientUnits="userSpaceOnUse" x1="149.1748" y1="156.3457" x2="156.0453" y2="157.6653" gradientTransform="matrix(0.9819 -0.1893 0.1893 0.9819 -130.7607 38.4931)">
		<stop  offset="0.0056" style="stop-color:#FBCA11"/>
		<stop  offset="0.2528" style="stop-color:#FFFFBF"/>
		<stop  offset="0.2997" style="stop-color:#F9F3AE"/>
		<stop  offset="0.393" style="stop-color:#E8D381"/>
		<stop  offset="0.5226" style="stop-color:#CEA139"/>
		<stop  offset="0.5955" style="stop-color:#BE820E"/>
		<stop  offset="0.8558" style="stop-color:#E8D56A"/>
		<stop  offset="0.8708" style="stop-color:#EADA6F"/>
		<stop  offset="1" style="stop-color:#FFFFBF"/>
	</linearGradient>
	<path fill="url(#SVGID_4_)" d="M47.452,175.238c0.864-0.166,1.726-0.239,2.574-0.236l0.11-22.683
		c-2.3-0.008-4.633,0.201-6.976,0.652c-0.007,0.001-0.014,0.003-0.021,0.004l4.292,22.268
		C47.439,175.242,47.445,175.24,47.452,175.238z"/>
	
		<linearGradient id="SVGID_5_" gradientUnits="userSpaceOnUse" x1="247.8369" y1="168.2354" x2="254.7084" y2="169.5551" gradientTransform="matrix(0.9284 -0.3717 0.3717 0.9284 -251.8724 101.0376)">
		<stop  offset="0.0056" style="stop-color:#FBCA11"/>
		<stop  offset="0.2528" style="stop-color:#FFFFBF"/>
		<stop  offset="0.2997" style="stop-color:#F9F3AE"/>
		<stop  offset="0.393" style="stop-color:#E8D381"/>
		<stop  offset="0.5226" style="stop-color:#CEA139"/>
		<stop  offset="0.5955" style="stop-color:#BE820E"/>
		<stop  offset="0.8558" style="stop-color:#E8D56A"/>
		<stop  offset="0.8708" style="stop-color:#EADA6F"/>
		<stop  offset="1" style="stop-color:#FFFFBF"/>
	</linearGradient>
	<path fill="url(#SVGID_5_)" d="M45.009,175.951c0.817-0.326,1.649-0.562,2.483-0.719l-4.185-22.294
		c-2.26,0.427-4.511,1.074-6.727,1.961c-0.006,0.002-0.013,0.005-0.02,0.008l8.429,21.053
		C44.998,175.957,45.003,175.955,45.009,175.951z"/>
	
		<linearGradient id="SVGID_6_" gradientUnits="userSpaceOnUse" x1="342.4658" y1="198.5791" x2="349.3373" y2="199.8989" gradientTransform="matrix(0.8413 -0.5406 0.5406 0.8413 -358.9614 185.3723)">
		<stop  offset="0.0056" style="stop-color:#FBCA11"/>
		<stop  offset="0.2528" style="stop-color:#FFFFBF"/>
		<stop  offset="0.2997" style="stop-color:#F9F3AE"/>
		<stop  offset="0.393" style="stop-color:#E8D381"/>
		<stop  offset="0.5226" style="stop-color:#CEA139"/>
		<stop  offset="0.5955" style="stop-color:#BE820E"/>
		<stop  offset="0.8558" style="stop-color:#E8D56A"/>
		<stop  offset="0.8708" style="stop-color:#EADA6F"/>
		<stop  offset="1" style="stop-color:#FFFFBF"/>
	</linearGradient>
	<path fill="url(#SVGID_6_)" d="M42.746,177.113c0.741-0.475,1.514-0.863,2.303-1.176l-8.328-21.099
		c-2.139,0.847-4.226,1.909-6.233,3.198c-0.006,0.003-0.012,0.007-0.018,0.012l12.261,19.077
		C42.736,177.122,42.741,177.119,42.746,177.113z"/>
	
		<linearGradient id="SVGID_7_" gradientUnits="userSpaceOnUse" x1="429.6426" y1="246.2832" x2="436.515" y2="247.6031" gradientTransform="matrix(0.7237 -0.6901 0.6901 0.7237 -448.153 288.4484)">
		<stop  offset="0.0056" style="stop-color:#FBCA11"/>
		<stop  offset="0.2528" style="stop-color:#FFFFBF"/>
		<stop  offset="0.2997" style="stop-color:#F9F3AE"/>
		<stop  offset="0.393" style="stop-color:#E8D381"/>
		<stop  offset="0.5226" style="stop-color:#CEA139"/>
		<stop  offset="0.5955" style="stop-color:#BE820E"/>
		<stop  offset="0.8558" style="stop-color:#E8D56A"/>
		<stop  offset="0.8708" style="stop-color:#EADA6F"/>
		<stop  offset="1" style="stop-color:#FFFFBF"/>
	</linearGradient>
	<path fill="url(#SVGID_7_)" d="M40.744,178.683c0.638-0.606,1.322-1.134,2.038-1.59l-12.17-19.142
		c-1.94,1.236-3.788,2.675-5.517,4.32c-0.004,0.004-0.01,0.009-0.015,0.015l15.649,16.412
		C40.735,178.693,40.74,178.689,40.744,178.683z"/>
	
		<linearGradient id="SVGID_8_" gradientUnits="userSpaceOnUse" x1="506.2139" y1="309.624" x2="513.0863" y2="310.944" gradientTransform="matrix(0.5801 -0.8146 0.8146 0.5801 -516.2257 406.5428)">
		<stop  offset="0.0056" style="stop-color:#FBCA11"/>
		<stop  offset="0.2528" style="stop-color:#FFFFBF"/>
		<stop  offset="0.2997" style="stop-color:#F9F3AE"/>
		<stop  offset="0.393" style="stop-color:#E8D381"/>
		<stop  offset="0.5226" style="stop-color:#CEA139"/>
		<stop  offset="0.5955" style="stop-color:#BE820E"/>
		<stop  offset="0.8558" style="stop-color:#E8D56A"/>
		<stop  offset="0.8708" style="stop-color:#EADA6F"/>
		<stop  offset="1" style="stop-color:#FFFFBF"/>
	</linearGradient>
	<path fill="url(#SVGID_8_)" d="M39.075,180.603c0.511-0.716,1.084-1.363,1.7-1.946l-15.572-16.492
		c-1.672,1.58-3.214,3.343-4.6,5.286c-0.003,0.005-0.008,0.011-0.012,0.017l18.473,13.154
		C39.068,180.615,39.072,180.61,39.075,180.603z"/>
	
		<linearGradient id="SVGID_9_" gradientUnits="userSpaceOnUse" x1="569.415" y1="386.3115" x2="576.2865" y2="387.6313" gradientTransform="matrix(0.4154 -0.9096 0.9096 0.4154 -560.7195 535.3842)">
		<stop  offset="0.0056" style="stop-color:#FBCA11"/>
		<stop  offset="0.2528" style="stop-color:#FFFFBF"/>
		<stop  offset="0.2997" style="stop-color:#F9F3AE"/>
		<stop  offset="0.393" style="stop-color:#E8D381"/>
		<stop  offset="0.5226" style="stop-color:#CEA139"/>
		<stop  offset="0.5955" style="stop-color:#BE820E"/>
		<stop  offset="0.8558" style="stop-color:#E8D56A"/>
		<stop  offset="0.8708" style="stop-color:#EADA6F"/>
		<stop  offset="1" style="stop-color:#FFFFBF"/>
	</linearGradient>
	<path fill="url(#SVGID_9_)" d="M37.799,182.805c0.366-0.801,0.806-1.545,1.301-2.233l-18.412-13.247
		c-1.343,1.868-2.522,3.891-3.516,6.061c-0.003,0.006-0.006,0.013-0.009,0.02l20.629,9.42
		C37.794,182.817,37.797,182.812,37.799,182.805z"/>
	
		<linearGradient id="SVGID_10_" gradientUnits="userSpaceOnUse" x1="616.9609" y1="473.5732" x2="623.8334" y2="474.8932" gradientTransform="matrix(0.2358 -0.9718 0.9718 0.2358 -580.0242 670.319)">
		<stop  offset="0.0056" style="stop-color:#FBCA11"/>
		<stop  offset="0.2528" style="stop-color:#FFFFBF"/>
		<stop  offset="0.2997" style="stop-color:#F9F3AE"/>
		<stop  offset="0.393" style="stop-color:#E8D381"/>
		<stop  offset="0.5226" style="stop-color:#CEA139"/>
		<stop  offset="0.5955" style="stop-color:#BE820E"/>
		<stop  offset="0.8558" style="stop-color:#E8D56A"/>
		<stop  offset="0.8708" style="stop-color:#EADA6F"/>
		<stop  offset="1" style="stop-color:#FFFFBF"/>
	</linearGradient>
	<path fill="url(#SVGID_10_)" d="M36.963,185.208c0.208-0.855,0.499-1.671,0.854-2.44l-20.586-9.522
		c-0.965,2.089-1.741,4.298-2.306,6.616c-0.002,0.006-0.003,0.014-0.005,0.021l22.039,5.345
		C36.961,185.222,36.962,185.215,36.963,185.208z"/>
	
		<linearGradient id="SVGID_11_" gradientUnits="userSpaceOnUse" x1="647.1367" y1="568.2568" x2="654.0101" y2="569.577" gradientTransform="matrix(0.0476 -0.9989 0.9989 0.0476 -573.4447 806.4717)">
		<stop  offset="0.0056" style="stop-color:#FBCA11"/>
		<stop  offset="0.2528" style="stop-color:#FFFFBF"/>
		<stop  offset="0.2997" style="stop-color:#F9F3AE"/>
		<stop  offset="0.393" style="stop-color:#E8D381"/>
		<stop  offset="0.5226" style="stop-color:#CEA139"/>
		<stop  offset="0.5955" style="stop-color:#BE820E"/>
		<stop  offset="0.8558" style="stop-color:#E8D56A"/>
		<stop  offset="0.8708" style="stop-color:#EADA6F"/>
		<stop  offset="1" style="stop-color:#FFFFBF"/>
	</linearGradient>
	<path fill="url(#SVGID_11_)" d="M36.597,187.726c0.043-0.88,0.174-1.735,0.377-2.558l-22.016-5.455
		c-0.552,2.234-0.896,4.55-1.012,6.934c-0.001,0.006-0.001,0.014-0.001,0.021l22.652,1.078
		C36.598,187.739,36.598,187.732,36.597,187.726z"/>
	
		<linearGradient id="SVGID_12_" gradientUnits="userSpaceOnUse" x1="658.8457" y1="666.9414" x2="665.7191" y2="668.2615" gradientTransform="matrix(-0.1423 -0.9898 0.9898 -0.1423 -541.2175 938.9167)">
		<stop  offset="0.0056" style="stop-color:#FBCA11"/>
		<stop  offset="0.2528" style="stop-color:#FFFFBF"/>
		<stop  offset="0.2997" style="stop-color:#F9F3AE"/>
		<stop  offset="0.393" style="stop-color:#E8D381"/>
		<stop  offset="0.5226" style="stop-color:#CEA139"/>
		<stop  offset="0.5955" style="stop-color:#BE820E"/>
		<stop  offset="0.8558" style="stop-color:#E8D56A"/>
		<stop  offset="0.8708" style="stop-color:#EADA6F"/>
		<stop  offset="1" style="stop-color:#FFFFBF"/>
	</linearGradient>
	<path fill="url(#SVGID_12_)" d="M36.714,190.268c-0.124-0.873-0.158-1.737-0.114-2.584l-22.649-1.189
		c-0.119,2.299-0.02,4.638,0.318,7c0,0.006,0.002,0.014,0.003,0.021l22.447-3.229C36.718,190.281,36.716,190.273,36.714,190.268z"/>
	
		<linearGradient id="SVGID_13_" gradientUnits="userSpaceOnUse" x1="651.6641" y1="766.0547" x2="658.5365" y2="767.3746" gradientTransform="matrix(-0.3271 -0.945 0.945 -0.3271 -484.5068 1062.8666)">
		<stop  offset="0.0056" style="stop-color:#FBCA11"/>
		<stop  offset="0.2528" style="stop-color:#FFFFBF"/>
		<stop  offset="0.2997" style="stop-color:#F9F3AE"/>
		<stop  offset="0.393" style="stop-color:#E8D381"/>
		<stop  offset="0.5226" style="stop-color:#CEA139"/>
		<stop  offset="0.5955" style="stop-color:#BE820E"/>
		<stop  offset="0.8558" style="stop-color:#E8D56A"/>
		<stop  offset="0.8708" style="stop-color:#EADA6F"/>
		<stop  offset="1" style="stop-color:#FFFFBF"/>
	</linearGradient>
	<path fill="url(#SVGID_13_)" d="M37.31,192.741c-0.287-0.834-0.483-1.677-0.601-2.516l-22.466,3.118
		c0.318,2.279,0.858,4.558,1.638,6.813c0.001,0.006,0.005,0.013,0.007,0.021l21.431-7.419
		C37.317,192.753,37.314,192.746,37.31,192.741z"/>
	
		<linearGradient id="SVGID_14_" gradientUnits="userSpaceOnUse" x1="625.8574" y1="862.0205" x2="632.7299" y2="863.3405" gradientTransform="matrix(-0.5 -0.866 0.866 -0.5 -405.3625 1173.8452)">
		<stop  offset="0.0056" style="stop-color:#FBCA11"/>
		<stop  offset="0.2528" style="stop-color:#FFFFBF"/>
		<stop  offset="0.2997" style="stop-color:#F9F3AE"/>
		<stop  offset="0.393" style="stop-color:#E8D381"/>
		<stop  offset="0.5226" style="stop-color:#CEA139"/>
		<stop  offset="0.5955" style="stop-color:#BE820E"/>
		<stop  offset="0.8558" style="stop-color:#E8D56A"/>
		<stop  offset="0.8708" style="stop-color:#EADA6F"/>
		<stop  offset="1" style="stop-color:#FFFFBF"/>
	</linearGradient>
	<path fill="url(#SVGID_14_)" d="M38.364,195.057c-0.44-0.765-0.792-1.555-1.066-2.355l-21.469,7.313
		c0.743,2.179,1.705,4.313,2.897,6.381c0.002,0.006,0.007,0.012,0.01,0.019l19.64-11.34
		C38.373,195.067,38.369,195.062,38.364,195.057z"/>
	
		<linearGradient id="SVGID_15_" gradientUnits="userSpaceOnUse" x1="582.3545" y1="951.3672" x2="589.2279" y2="952.6873" gradientTransform="matrix(-0.6549 -0.7557 0.7557 -0.6549 -306.6456 1267.8424)">
		<stop  offset="0.0056" style="stop-color:#FBCA11"/>
		<stop  offset="0.2528" style="stop-color:#FFFFBF"/>
		<stop  offset="0.2997" style="stop-color:#F9F3AE"/>
		<stop  offset="0.393" style="stop-color:#E8D381"/>
		<stop  offset="0.5226" style="stop-color:#CEA139"/>
		<stop  offset="0.5955" style="stop-color:#BE820E"/>
		<stop  offset="0.8558" style="stop-color:#E8D56A"/>
		<stop  offset="0.8708" style="stop-color:#EADA6F"/>
		<stop  offset="1" style="stop-color:#FFFFBF"/>
	</linearGradient>
	<path fill="url(#SVGID_15_)" d="M39.836,197.131c-0.577-0.667-1.072-1.376-1.493-2.11l-19.696,11.243
		c1.142,1.998,2.49,3.912,4.053,5.717c0.003,0.006,0.009,0.011,0.013,0.017l17.139-14.852
		C39.847,197.141,39.842,197.135,39.836,197.131z"/>
	
		<linearGradient id="SVGID_16_" gradientUnits="userSpaceOnUse" x1="522.7295" y1="1030.8672" x2="529.6029" y2="1032.1873" gradientTransform="matrix(-0.7861 -0.6182 0.6182 -0.7861 -191.9242 1341.4543)">
		<stop  offset="0.0056" style="stop-color:#FBCA11"/>
		<stop  offset="0.2528" style="stop-color:#FFFFBF"/>
		<stop  offset="0.2997" style="stop-color:#F9F3AE"/>
		<stop  offset="0.393" style="stop-color:#E8D381"/>
		<stop  offset="0.5226" style="stop-color:#CEA139"/>
		<stop  offset="0.5955" style="stop-color:#BE820E"/>
		<stop  offset="0.8558" style="stop-color:#E8D56A"/>
		<stop  offset="0.8708" style="stop-color:#EADA6F"/>
		<stop  offset="1" style="stop-color:#FFFFBF"/>
	</linearGradient>
	<path fill="url(#SVGID_16_)" d="M41.675,198.89c-0.693-0.546-1.313-1.148-1.865-1.79l-17.213,14.768
		c1.499,1.746,3.186,3.37,5.062,4.847c0.003,0.005,0.01,0.009,0.015,0.015L41.692,198.9
		C41.687,198.897,41.681,198.893,41.675,198.89z"/>
	
		<linearGradient id="SVGID_17_" gradientUnits="userSpaceOnUse" x1="449.1357" y1="1097.6426" x2="456.0082" y2="1098.9625" gradientTransform="matrix(-0.8888 -0.4582 0.4582 -0.8888 -65.3451 1392.0256)">
		<stop  offset="0.0056" style="stop-color:#FBCA11"/>
		<stop  offset="0.2528" style="stop-color:#FFFFBF"/>
		<stop  offset="0.2997" style="stop-color:#F9F3AE"/>
		<stop  offset="0.393" style="stop-color:#E8D381"/>
		<stop  offset="0.5226" style="stop-color:#CEA139"/>
		<stop  offset="0.5955" style="stop-color:#BE820E"/>
		<stop  offset="0.8558" style="stop-color:#E8D56A"/>
		<stop  offset="0.8708" style="stop-color:#EADA6F"/>
		<stop  offset="1" style="stop-color:#FFFFBF"/>
	</linearGradient>
	<path fill="url(#SVGID_17_)" d="M43.813,200.268c-0.784-0.404-1.507-0.879-2.17-1.404l-14.107,17.759
		c1.803,1.431,3.766,2.706,5.888,3.801c0.004,0.005,0.012,0.007,0.017,0.012l10.392-20.159
		C43.827,200.273,43.82,200.27,43.813,200.268z"/>
	
		<linearGradient id="SVGID_18_" gradientUnits="userSpaceOnUse" x1="364.2314" y1="1149.2861" x2="371.1039" y2="1150.6061" gradientTransform="matrix(-0.9595 -0.2817 0.2817 -0.9595 68.5175 1417.7291)">
		<stop  offset="0.0056" style="stop-color:#FBCA11"/>
		<stop  offset="0.2528" style="stop-color:#FFFFBF"/>
		<stop  offset="0.2997" style="stop-color:#F9F3AE"/>
		<stop  offset="0.393" style="stop-color:#E8D381"/>
		<stop  offset="0.5226" style="stop-color:#CEA139"/>
		<stop  offset="0.5955" style="stop-color:#BE820E"/>
		<stop  offset="0.8558" style="stop-color:#E8D56A"/>
		<stop  offset="0.8708" style="stop-color:#EADA6F"/>
		<stop  offset="1" style="stop-color:#FFFFBF"/>
	</linearGradient>
	<path fill="url(#SVGID_18_)" d="M46.173,201.217c-0.847-0.249-1.646-0.578-2.396-0.968l-10.491,20.107
		c2.04,1.063,4.209,1.944,6.5,2.618c0.005,0.004,0.013,0.004,0.019,0.008l6.389-21.761C46.188,201.221,46.18,201.218,46.173,201.217
		z"/>
	
		<linearGradient id="SVGID_19_" gradientUnits="userSpaceOnUse" x1="271.0938" y1="1183.9307" x2="277.9652" y2="1185.2504" gradientTransform="matrix(-0.9955 -0.0951 0.0951 -0.9955 204.8255 1417.6362)">
		<stop  offset="0.0056" style="stop-color:#FBCA11"/>
		<stop  offset="0.2528" style="stop-color:#FFFFBF"/>
		<stop  offset="0.2997" style="stop-color:#F9F3AE"/>
		<stop  offset="0.393" style="stop-color:#E8D381"/>
		<stop  offset="0.5226" style="stop-color:#CEA139"/>
		<stop  offset="0.5955" style="stop-color:#BE820E"/>
		<stop  offset="0.8558" style="stop-color:#E8D56A"/>
		<stop  offset="0.8708" style="stop-color:#EADA6F"/>
		<stop  offset="1" style="stop-color:#FFFFBF"/>
	</linearGradient>
	<path fill="url(#SVGID_19_)" d="M48.67,201.702c-0.878-0.084-1.726-0.256-2.536-0.497l-6.496,21.73
		c2.204,0.657,4.501,1.112,6.878,1.341c0.006,0.002,0.014,0.001,0.02,0.003l2.155-22.576
		C48.686,201.703,48.677,201.701,48.67,201.702z"/>
	
		<linearGradient id="SVGID_20_" gradientUnits="userSpaceOnUse" x1="73.7334" y1="1197.8662" x2="80.6049" y2="1199.1859" gradientTransform="matrix(-0.9595 0.2817 -0.2817 -0.9595 465.1593 1340.9996)">
		<stop  offset="0.0056" style="stop-color:#FBCA11"/>
		<stop  offset="0.2528" style="stop-color:#FFFFBF"/>
		<stop  offset="0.2997" style="stop-color:#F9F3AE"/>
		<stop  offset="0.393" style="stop-color:#E8D381"/>
		<stop  offset="0.5226" style="stop-color:#CEA139"/>
		<stop  offset="0.5955" style="stop-color:#BE820E"/>
		<stop  offset="0.8558" style="stop-color:#E8D56A"/>
		<stop  offset="0.8708" style="stop-color:#EADA6F"/>
		<stop  offset="1" style="stop-color:#FFFFBF"/>
	</linearGradient>
	<path fill="url(#SVGID_20_)" d="M53.713,201.229c-0.847,0.249-1.697,0.404-2.539,0.48l2.046,22.59
		c2.29-0.211,4.591-0.641,6.883-1.313c0.006,0.001,0.014-0.004,0.02-0.004l-6.39-21.76
		C53.728,201.224,53.719,201.225,53.713,201.229z"/>
	
		<linearGradient id="SVGID_21_" gradientUnits="userSpaceOnUse" x1="-23.3501" y1="1176.6553" x2="-16.4796" y2="1177.9749" gradientTransform="matrix(-0.8888 0.4582 -0.4582 -0.8888 579.7792 1267.2273)">
		<stop  offset="0.0056" style="stop-color:#FBCA11"/>
		<stop  offset="0.2528" style="stop-color:#FFFFBF"/>
		<stop  offset="0.2997" style="stop-color:#F9F3AE"/>
		<stop  offset="0.393" style="stop-color:#E8D381"/>
		<stop  offset="0.5226" style="stop-color:#CEA139"/>
		<stop  offset="0.5955" style="stop-color:#BE820E"/>
		<stop  offset="0.8558" style="stop-color:#E8D56A"/>
		<stop  offset="0.8708" style="stop-color:#EADA6F"/>
		<stop  offset="1" style="stop-color:#FFFFBF"/>
	</linearGradient>
	<path fill="url(#SVGID_21_)" d="M56.076,200.287c-0.784,0.404-1.59,0.717-2.402,0.952l6.284,21.794
		c2.209-0.641,4.387-1.498,6.51-2.592c0.006-0.001,0.013-0.007,0.019-0.008l-10.393-20.157
		C56.09,200.279,56.081,200.281,56.076,200.287z"/>
	
		<linearGradient id="SVGID_22_" gradientUnits="userSpaceOnUse" x1="-114.667" y1="1137.4541" x2="-107.7955" y2="1138.7738" gradientTransform="matrix(-0.7861 0.6182 -0.6182 -0.7861 678.3661 1173.0964)">
		<stop  offset="0.0056" style="stop-color:#FBCA11"/>
		<stop  offset="0.2528" style="stop-color:#FFFFBF"/>
		<stop  offset="0.2997" style="stop-color:#F9F3AE"/>
		<stop  offset="0.393" style="stop-color:#E8D381"/>
		<stop  offset="0.5226" style="stop-color:#CEA139"/>
		<stop  offset="0.5955" style="stop-color:#BE820E"/>
		<stop  offset="0.8558" style="stop-color:#E8D56A"/>
		<stop  offset="0.8708" style="stop-color:#EADA6F"/>
		<stop  offset="1" style="stop-color:#FFFFBF"/>
	</linearGradient>
	<path fill="url(#SVGID_22_)" d="M58.219,198.915c-0.694,0.546-1.426,1.005-2.179,1.39l10.295,20.211
		c2.048-1.047,4.023-2.301,5.901-3.777c0.006-0.002,0.012-0.008,0.017-0.011l-14.019-17.825
		C58.23,198.904,58.222,198.908,58.219,198.915z"/>
	
		<linearGradient id="SVGID_23_" gradientUnits="userSpaceOnUse" x1="-196.9155" y1="1081.6777" x2="-190.045" y2="1082.9973" gradientTransform="matrix(-0.6549 0.7557 -0.7557 -0.6549 757.3546 1062.0079)">
		<stop  offset="0.0056" style="stop-color:#FBCA11"/>
		<stop  offset="0.2528" style="stop-color:#FFFFBF"/>
		<stop  offset="0.2997" style="stop-color:#F9F3AE"/>
		<stop  offset="0.393" style="stop-color:#E8D381"/>
		<stop  offset="0.5226" style="stop-color:#CEA139"/>
		<stop  offset="0.5955" style="stop-color:#BE820E"/>
		<stop  offset="0.8558" style="stop-color:#E8D56A"/>
		<stop  offset="0.8708" style="stop-color:#EADA6F"/>
		<stop  offset="1" style="stop-color:#FFFFBF"/>
	</linearGradient>
	<path fill="url(#SVGID_23_)" d="M60.063,197.162c-0.578,0.668-1.21,1.257-1.876,1.777l13.934,17.896
		c1.813-1.415,3.516-3.02,5.08-4.825c0.005-0.003,0.01-0.01,0.015-0.014l-17.14-14.851
		C60.072,197.149,60.064,197.155,60.063,197.162z"/>
	
		<linearGradient id="SVGID_24_" gradientUnits="userSpaceOnUse" x1="-267.1201" y1="1011.3467" x2="-260.2486" y2="1012.6664" gradientTransform="matrix(-0.5 0.866 -0.866 -0.5 813.8947 937.9795)">
		<stop  offset="0.0056" style="stop-color:#FBCA11"/>
		<stop  offset="0.2528" style="stop-color:#FFFFBF"/>
		<stop  offset="0.2997" style="stop-color:#F9F3AE"/>
		<stop  offset="0.393" style="stop-color:#E8D381"/>
		<stop  offset="0.5226" style="stop-color:#CEA139"/>
		<stop  offset="0.5955" style="stop-color:#BE820E"/>
		<stop  offset="0.8558" style="stop-color:#E8D56A"/>
		<stop  offset="0.8708" style="stop-color:#EADA6F"/>
		<stop  offset="1" style="stop-color:#FFFFBF"/>
	</linearGradient>
	<path fill="url(#SVGID_24_)" d="M61.542,195.092c-0.441,0.766-0.95,1.463-1.506,2.101l17.068,14.937
		c1.512-1.733,2.881-3.631,4.075-5.7c0.004-0.004,0.008-0.011,0.012-0.016l-19.641-11.339
		C61.549,195.077,61.542,195.085,61.542,195.092z"/>
	
		<linearGradient id="SVGID_25_" gradientUnits="userSpaceOnUse" x1="-322.7432" y1="929" x2="-315.8736" y2="930.3194" gradientTransform="matrix(-0.3271 0.945 -0.945 -0.3271 845.9395 805.4916)">
		<stop  offset="0.0056" style="stop-color:#FBCA11"/>
		<stop  offset="0.2528" style="stop-color:#FFFFBF"/>
		<stop  offset="0.2997" style="stop-color:#F9F3AE"/>
		<stop  offset="0.393" style="stop-color:#E8D381"/>
		<stop  offset="0.5226" style="stop-color:#CEA139"/>
		<stop  offset="0.5955" style="stop-color:#BE820E"/>
		<stop  offset="0.8558" style="stop-color:#E8D56A"/>
		<stop  offset="0.8708" style="stop-color:#EADA6F"/>
		<stop  offset="1" style="stop-color:#FFFFBF"/>
	</linearGradient>
	<path fill="url(#SVGID_25_)" d="M62.603,192.779c-0.289,0.835-0.656,1.615-1.081,2.348l19.587,11.436
		c1.156-1.988,2.141-4.11,2.922-6.367c0.004-0.005,0.006-0.012,0.009-0.018l-21.432-7.417
		C62.606,192.764,62.601,192.773,62.603,192.779z"/>
	
		<linearGradient id="SVGID_26_" gradientUnits="userSpaceOnUse" x1="-361.7813" y1="837.6113" x2="-354.9107" y2="838.9309" gradientTransform="matrix(-0.1423 0.9898 -0.9898 -0.1423 852.3312 669.3337)">
		<stop  offset="0.0056" style="stop-color:#FBCA11"/>
		<stop  offset="0.2528" style="stop-color:#FFFFBF"/>
		<stop  offset="0.2997" style="stop-color:#F9F3AE"/>
		<stop  offset="0.393" style="stop-color:#E8D381"/>
		<stop  offset="0.5226" style="stop-color:#CEA139"/>
		<stop  offset="0.5955" style="stop-color:#BE820E"/>
		<stop  offset="0.8558" style="stop-color:#E8D56A"/>
		<stop  offset="0.8708" style="stop-color:#EADA6F"/>
		<stop  offset="1" style="stop-color:#FFFFBF"/>
	</linearGradient>
	<path fill="url(#SVGID_26_)" d="M63.206,190.308c-0.126,0.875-0.339,1.71-0.617,2.511l21.397,7.521
		c0.759-2.172,1.324-4.441,1.664-6.805c0.003-0.006,0.003-0.014,0.005-0.02l-22.447-3.227
		C63.207,190.292,63.203,190.303,63.206,190.308z"/>
	
		<linearGradient id="SVGID_27_" gradientUnits="userSpaceOnUse" x1="-382.8164" y1="740.4902" x2="-375.9468" y2="741.8096" gradientTransform="matrix(0.0476 0.9989 -0.9989 0.0476 832.8407 534.4268)">
		<stop  offset="0.0056" style="stop-color:#FBCA11"/>
		<stop  offset="0.2528" style="stop-color:#FFFFBF"/>
		<stop  offset="0.2997" style="stop-color:#F9F3AE"/>
		<stop  offset="0.393" style="stop-color:#E8D381"/>
		<stop  offset="0.5226" style="stop-color:#CEA139"/>
		<stop  offset="0.5955" style="stop-color:#BE820E"/>
		<stop  offset="0.8558" style="stop-color:#E8D56A"/>
		<stop  offset="0.8708" style="stop-color:#EADA6F"/>
		<stop  offset="1" style="stop-color:#FFFFBF"/>
	</linearGradient>
	<path fill="url(#SVGID_27_)" d="M63.331,187.767c0.042,0.884-0.009,1.743-0.131,2.583l22.434,3.335
		c0.334-2.275,0.46-4.611,0.347-6.997c0.002-0.006,0.001-0.013,0.001-0.02l-22.652,1.08
		C63.329,187.751,63.327,187.762,63.331,187.767z"/>
	
		<linearGradient id="SVGID_28_" gradientUnits="userSpaceOnUse" x1="-385.0938" y1="641.1406" x2="-378.2242" y2="642.46" gradientTransform="matrix(0.2358 0.9718 -0.9718 0.2358 788.1707 405.6457)">
		<stop  offset="0.0056" style="stop-color:#FBCA11"/>
		<stop  offset="0.2528" style="stop-color:#FFFFBF"/>
		<stop  offset="0.2997" style="stop-color:#F9F3AE"/>
		<stop  offset="0.393" style="stop-color:#E8D381"/>
		<stop  offset="0.5226" style="stop-color:#CEA139"/>
		<stop  offset="0.5955" style="stop-color:#BE820E"/>
		<stop  offset="0.8558" style="stop-color:#E8D56A"/>
		<stop  offset="0.8708" style="stop-color:#EADA6F"/>
		<stop  offset="1" style="stop-color:#FFFFBF"/>
	</linearGradient>
	<path fill="url(#SVGID_28_)" d="M62.973,185.248c0.208,0.859,0.321,1.713,0.36,2.561l22.659-0.971
		c-0.103-2.297-0.421-4.615-0.983-6.936c0-0.007-0.002-0.014-0.003-0.021l-22.038,5.348
		C62.968,185.232,62.968,185.244,62.973,185.248z"/>
	
		<linearGradient id="SVGID_29_" gradientUnits="userSpaceOnUse" x1="-368.5244" y1="543.1582" x2="-361.6548" y2="544.4776" gradientTransform="matrix(0.4154 0.9096 -0.9096 0.4154 719.9354 287.6472)">
		<stop  offset="0.0056" style="stop-color:#FBCA11"/>
		<stop  offset="0.2528" style="stop-color:#FFFFBF"/>
		<stop  offset="0.2997" style="stop-color:#F9F3AE"/>
		<stop  offset="0.393" style="stop-color:#E8D381"/>
		<stop  offset="0.5226" style="stop-color:#CEA139"/>
		<stop  offset="0.5955" style="stop-color:#BE820E"/>
		<stop  offset="0.8558" style="stop-color:#E8D56A"/>
		<stop  offset="0.8708" style="stop-color:#EADA6F"/>
		<stop  offset="1" style="stop-color:#FFFFBF"/>
	</linearGradient>
	<path fill="url(#SVGID_29_)" d="M62.145,182.843c0.366,0.805,0.64,1.621,0.838,2.446l22.066-5.242
		c-0.535-2.235-1.287-4.451-2.278-6.623c-0.002-0.007-0.004-0.014-0.007-0.02l-20.628,9.421
		C62.137,182.828,62.139,182.84,62.145,182.843z"/>
	
		<linearGradient id="SVGID_30_" gradientUnits="userSpaceOnUse" x1="-333.7129" y1="450.0791" x2="-326.8452" y2="451.3981" gradientTransform="matrix(0.5801 0.8146 -0.8146 0.5801 630.6027 184.6931)">
		<stop  offset="0.0056" style="stop-color:#FBCA11"/>
		<stop  offset="0.2528" style="stop-color:#FFFFBF"/>
		<stop  offset="0.2997" style="stop-color:#F9F3AE"/>
		<stop  offset="0.393" style="stop-color:#E8D381"/>
		<stop  offset="0.5226" style="stop-color:#CEA139"/>
		<stop  offset="0.5955" style="stop-color:#BE820E"/>
		<stop  offset="0.8558" style="stop-color:#E8D56A"/>
		<stop  offset="0.8708" style="stop-color:#EADA6F"/>
		<stop  offset="1" style="stop-color:#FFFFBF"/>
	</linearGradient>
	<path fill="url(#SVGID_30_)" d="M60.876,180.638c0.512,0.721,0.935,1.471,1.286,2.243l20.675-9.323
		c-0.948-2.094-2.105-4.128-3.49-6.073c-0.004-0.005-0.007-0.012-0.01-0.017l-18.473,13.153
		C60.865,180.624,60.87,180.636,60.876,180.638z"/>
	
		<linearGradient id="SVGID_31_" gradientUnits="userSpaceOnUse" x1="-281.9141" y1="365.2725" x2="-275.0464" y2="366.5915" gradientTransform="matrix(0.7237 0.6901 -0.6901 0.7237 523.399 100.506)">
		<stop  offset="0.0056" style="stop-color:#FBCA11"/>
		<stop  offset="0.2528" style="stop-color:#FFFFBF"/>
		<stop  offset="0.2997" style="stop-color:#F9F3AE"/>
		<stop  offset="0.393" style="stop-color:#E8D381"/>
		<stop  offset="0.5226" style="stop-color:#CEA139"/>
		<stop  offset="0.5955" style="stop-color:#BE820E"/>
		<stop  offset="0.8558" style="stop-color:#E8D56A"/>
		<stop  offset="0.8708" style="stop-color:#EADA6F"/>
		<stop  offset="1" style="stop-color:#FFFFBF"/>
	</linearGradient>
	<path fill="url(#SVGID_31_)" d="M59.213,178.713c0.639,0.611,1.196,1.268,1.688,1.958l18.537-13.067
		c-1.328-1.875-2.849-3.654-4.577-5.303c-0.005-0.004-0.009-0.01-0.013-0.014l-15.649,16.411
		C59.2,178.701,59.207,178.712,59.213,178.713z"/>
	
		<linearGradient id="SVGID_32_" gradientUnits="userSpaceOnUse" x1="-215.002" y1="291.8018" x2="-208.1353" y2="293.1206" gradientTransform="matrix(0.8413 0.5406 -0.5406 0.8413 402.2017 38.1296)">
		<stop  offset="0.0056" style="stop-color:#FBCA11"/>
		<stop  offset="0.2528" style="stop-color:#FFFFBF"/>
		<stop  offset="0.2997" style="stop-color:#F9F3AE"/>
		<stop  offset="0.393" style="stop-color:#E8D381"/>
		<stop  offset="0.5226" style="stop-color:#CEA139"/>
		<stop  offset="0.5955" style="stop-color:#BE820E"/>
		<stop  offset="0.8558" style="stop-color:#E8D56A"/>
		<stop  offset="0.8708" style="stop-color:#EADA6F"/>
		<stop  offset="1" style="stop-color:#FFFFBF"/>
	</linearGradient>
	<path fill="url(#SVGID_32_)" d="M57.216,177.138c0.743,0.479,1.414,1.018,2.027,1.603l15.729-16.34
		c-1.659-1.589-3.489-3.049-5.498-4.34c-0.006-0.004-0.011-0.009-0.015-0.011l-12.262,19.076
		C57.201,177.128,57.21,177.138,57.216,177.138z"/>
	
		<linearGradient id="SVGID_33_" gradientUnits="userSpaceOnUse" x1="-135.395" y1="232.3193" x2="-128.5283" y2="233.6382" gradientTransform="matrix(0.9284 0.3717 -0.3717 0.9284 271.389 -0.1826)">
		<stop  offset="0.0056" style="stop-color:#FBCA11"/>
		<stop  offset="0.2528" style="stop-color:#FFFFBF"/>
		<stop  offset="0.2997" style="stop-color:#F9F3AE"/>
		<stop  offset="0.393" style="stop-color:#E8D381"/>
		<stop  offset="0.5226" style="stop-color:#CEA139"/>
		<stop  offset="0.5955" style="stop-color:#BE820E"/>
		<stop  offset="0.8558" style="stop-color:#E8D56A"/>
		<stop  offset="0.8708" style="stop-color:#EADA6F"/>
		<stop  offset="1" style="stop-color:#FFFFBF"/>
	</linearGradient>
	<path fill="url(#SVGID_33_)" d="M54.956,175.969c0.821,0.329,1.582,0.731,2.295,1.189l12.353-19.021
		c-1.931-1.246-4.003-2.333-6.221-3.221c-0.006-0.002-0.012-0.007-0.016-0.008l-8.43,21.052
		C54.94,175.962,54.95,175.97,54.956,175.969z"/>
	
		<linearGradient id="SVGID_34_" gradientUnits="userSpaceOnUse" x1="-45.9697" y1="188.9795" x2="-39.103" y2="190.2983" gradientTransform="matrix(0.9819 0.1893 -0.1893 0.9819 135.6893 -13.0479)">
		<stop  offset="0.0056" style="stop-color:#FBCA11"/>
		<stop  offset="0.2528" style="stop-color:#FFFFBF"/>
		<stop  offset="0.2997" style="stop-color:#F9F3AE"/>
		<stop  offset="0.393" style="stop-color:#E8D381"/>
		<stop  offset="0.5226" style="stop-color:#CEA139"/>
		<stop  offset="0.5955" style="stop-color:#BE820E"/>
		<stop  offset="0.8558" style="stop-color:#E8D56A"/>
		<stop  offset="0.8708" style="stop-color:#EADA6F"/>
		<stop  offset="1" style="stop-color:#FFFFBF"/>
	</linearGradient>
	<path fill="url(#SVGID_34_)" d="M52.517,175.248c0.868,0.168,1.691,0.419,2.479,0.733l8.529-21.016
		c-2.132-0.858-4.372-1.533-6.718-1.984c-0.006-0.001-0.013-0.005-0.017-0.005l-4.294,22.268
		C52.5,175.244,52.511,175.25,52.517,175.248z"/>
	<linearGradient id="SVGID_35_" gradientUnits="userSpaceOnUse" x1="0.603" y1="213.0713" x2="100.1287" y2="213.0713">
		<stop  offset="0.0056" style="stop-color:#FBCA11"/>
		<stop  offset="0.2528" style="stop-color:#FFFFBF"/>
		<stop  offset="0.2997" style="stop-color:#F9F3AE"/>
		<stop  offset="0.393" style="stop-color:#E8D381"/>
		<stop  offset="0.5226" style="stop-color:#CEA139"/>
		<stop  offset="0.5955" style="stop-color:#BE820E"/>
		<stop  offset="0.8558" style="stop-color:#E8D56A"/>
		<stop  offset="0.8708" style="stop-color:#EADA6F"/>
		<stop  offset="1" style="stop-color:#FFFFBF"/>
	</linearGradient>
	<polygon fill="url(#SVGID_35_)" points="99.962,201.697 48.691,201.703 46.618,224.444 99.962,224.279 	"/>
</g>
</svg>
