<?xml version="1.0" encoding="utf-8"?>
<!-- Generator: Adobe Illustrator 16.0.3, SVG Export Plug-In . SVG Version: 6.00 Build 0)  -->
<!DOCTYPE svg PUBLIC "-//W3C//DTD SVG 1.1//EN" "http://www.w3.org/Graphics/SVG/1.1/DTD/svg11.dtd">
<svg version="1.1" id="Layer_1" xmlns="http://www.w3.org/2000/svg" xmlns:xlink="http://www.w3.org/1999/xlink" x="0px" y="0px"
	 width="130px" height="260px" viewBox="0 0 130 260" enable-background="new 0 0 130 260" xml:space="preserve">
<g>
	<rect x="13.958" y="231.185" fill="#FFFFFF" width="110" height="27"/>
	<path d="M124.457,258.685h-111v-28h111V258.685z M14.458,257.685h109v-26h-109V257.685z"/>
</g>
<rect x="1.087" y="1.815" width="127.825" height="233.139"/>
<linearGradient id="SVGID_1_" gradientUnits="userSpaceOnUse" x1="-122.2578" y1="-16.9785" x2="5.5684" y2="-16.9785" gradientTransform="matrix(1 0 0 -1 123.3447 136.0137)">
	<stop  offset="0.0056" style="stop-color:#FBCB13"/>
	<stop  offset="0.2528" style="stop-color:#FCFEC2"/>
	<stop  offset="0.2986" style="stop-color:#F7EFA7"/>
	<stop  offset="0.3896" style="stop-color:#E6D074"/>
	<stop  offset="0.5159" style="stop-color:#CE9F31"/>
	<stop  offset="0.5955" style="stop-color:#BD810B"/>
	<stop  offset="0.8143" style="stop-color:#E0C454"/>
	<stop  offset="0.8708" style="stop-color:#EDD96B"/>
	<stop  offset="1" style="stop-color:#FCFEC2"/>
</linearGradient>
<rect x="1.087" y="146.44" fill="url(#SVGID_1_)" width="127.826" height="13.104"/>
<linearGradient id="SVGID_2_" gradientUnits="userSpaceOnUse" x1="-122.2578" y1="-52.479" x2="5.5674" y2="-52.479" gradientTransform="matrix(1 0 0 -1 123.3447 136.0137)">
	<stop  offset="0.0056" style="stop-color:#FBCB13"/>
	<stop  offset="0.2528" style="stop-color:#FCFEC2"/>
	<stop  offset="0.2986" style="stop-color:#F7EFA7"/>
	<stop  offset="0.3896" style="stop-color:#E6D074"/>
	<stop  offset="0.5159" style="stop-color:#CE9F31"/>
	<stop  offset="0.5955" style="stop-color:#BD810B"/>
	<stop  offset="0.8143" style="stop-color:#E0C454"/>
	<stop  offset="0.8708" style="stop-color:#EDD96B"/>
	<stop  offset="1" style="stop-color:#FCFEC2"/>
</linearGradient>
<rect x="1.087" y="165.387" fill="url(#SVGID_2_)" width="127.825" height="46.212"/>
<linearGradient id="SVGID_3_" gradientUnits="userSpaceOnUse" x1="-122.2583" y1="2.1182" x2="5.5674" y2="2.1182" gradientTransform="matrix(1 0 0 -1 123.3447 136.0137)">
	<stop  offset="0.0056" style="stop-color:#FBCB13"/>
	<stop  offset="0.2528" style="stop-color:#FCFEC2"/>
	<stop  offset="0.2986" style="stop-color:#F7EFA7"/>
	<stop  offset="0.3896" style="stop-color:#E6D074"/>
	<stop  offset="0.5159" style="stop-color:#CE9F31"/>
	<stop  offset="0.5955" style="stop-color:#BD810B"/>
	<stop  offset="0.8143" style="stop-color:#E0C454"/>
	<stop  offset="0.8708" style="stop-color:#EDD96B"/>
	<stop  offset="1" style="stop-color:#FCFEC2"/>
</linearGradient>
<rect x="1.086" y="127.344" fill="url(#SVGID_3_)" width="127.826" height="13.104"/>
<polygon fill="#CA9A3C" points="128.912,171.481 1.087,171.481 1.087,178.099 128.912,178.099 "/>
<polygon fill="#CA9A3C" points="128.912,199.981 1.087,199.981 1.087,206.599 128.912,206.599 "/>
<polygon fill="#CA9A3C" points="128.912,152.116 1.087,152.116 1.087,154.099 128.912,154.099 "/>
<polygon fill="#CA9A3C" points="129.003,132.904 1.178,132.904 1.178,134.887 129.003,134.887 "/>
<g>
	
		<linearGradient id="SVGID_4_" gradientUnits="userSpaceOnUse" x1="297.6523" y1="-134.1909" x2="301.6275" y2="-134.9544" gradientTransform="matrix(1 0 0 -1 -232.5996 -28.9902)">
		<stop  offset="0.0056" style="stop-color:#FBCA11"/>
		<stop  offset="0.2528" style="stop-color:#FFFFBF"/>
		<stop  offset="0.2997" style="stop-color:#F9F3AE"/>
		<stop  offset="0.393" style="stop-color:#E8D381"/>
		<stop  offset="0.5226" style="stop-color:#CEA139"/>
		<stop  offset="0.5955" style="stop-color:#BE820E"/>
		<stop  offset="0.8558" style="stop-color:#E8D56A"/>
		<stop  offset="0.8708" style="stop-color:#EADA6F"/>
		<stop  offset="1" style="stop-color:#FFFFBF"/>
	</linearGradient>
	<path fill="url(#SVGID_4_)" d="M65.013,111.939c0.509,0,1.005,0.053,1.489,0.147l2.546-12.867
		c-1.309-0.255-2.653-0.393-4.035-0.393c-0.004,0-0.007,0-0.011,0v13.114C65.006,111.94,65.009,111.939,65.013,111.939z"/>
	
		<linearGradient id="SVGID_5_" gradientUnits="userSpaceOnUse" x1="350.4258" y1="-169.8945" x2="354.399" y2="-170.6577" gradientTransform="matrix(0.9819 -0.1893 -0.1893 -0.9819 -313.9351 4.9688)">
		<stop  offset="0.0056" style="stop-color:#FBCA11"/>
		<stop  offset="0.2528" style="stop-color:#FFFFBF"/>
		<stop  offset="0.2997" style="stop-color:#F9F3AE"/>
		<stop  offset="0.393" style="stop-color:#E8D381"/>
		<stop  offset="0.5226" style="stop-color:#CEA139"/>
		<stop  offset="0.5955" style="stop-color:#BE820E"/>
		<stop  offset="0.8558" style="stop-color:#E8D56A"/>
		<stop  offset="0.8708" style="stop-color:#EADA6F"/>
		<stop  offset="1" style="stop-color:#FFFFBF"/>
	</linearGradient>
	<path fill="url(#SVGID_5_)" d="M63.549,112.076c0.5-0.095,0.998-0.138,1.487-0.136l0.064-13.116
		c-1.329-0.005-2.678,0.116-4.033,0.377c-0.005,0-0.007,0.001-0.013,0.001l2.482,12.877
		C63.542,112.079,63.545,112.078,63.549,112.076z"/>
	
		<linearGradient id="SVGID_6_" gradientUnits="userSpaceOnUse" x1="395.5088" y1="-214.8813" x2="399.4821" y2="-215.6445" gradientTransform="matrix(0.9284 -0.3717 -0.3717 -0.9284 -387.3877 53.7324)">
		<stop  offset="0.0056" style="stop-color:#FBCA11"/>
		<stop  offset="0.2528" style="stop-color:#FFFFBF"/>
		<stop  offset="0.2997" style="stop-color:#F9F3AE"/>
		<stop  offset="0.393" style="stop-color:#E8D381"/>
		<stop  offset="0.5226" style="stop-color:#CEA139"/>
		<stop  offset="0.5955" style="stop-color:#BE820E"/>
		<stop  offset="0.8558" style="stop-color:#E8D56A"/>
		<stop  offset="0.8708" style="stop-color:#EADA6F"/>
		<stop  offset="1" style="stop-color:#FFFFBF"/>
	</linearGradient>
	<path fill="url(#SVGID_6_)" d="M62.136,112.488c0.473-0.188,0.954-0.325,1.436-0.416l-2.42-12.892
		c-1.307,0.248-2.608,0.621-3.889,1.134c-0.003,0.001-0.008,0.003-0.012,0.005l4.874,12.174
		C62.13,112.492,62.133,112.49,62.136,112.488z"/>
	
		<linearGradient id="SVGID_7_" gradientUnits="userSpaceOnUse" x1="431.3047" y1="-267.6016" x2="435.2789" y2="-268.3649" gradientTransform="matrix(0.8413 -0.5406 -0.5406 -0.8413 -450.3066 115.502)">
		<stop  offset="0.0056" style="stop-color:#FBCA11"/>
		<stop  offset="0.2528" style="stop-color:#FFFFBF"/>
		<stop  offset="0.2997" style="stop-color:#F9F3AE"/>
		<stop  offset="0.393" style="stop-color:#E8D381"/>
		<stop  offset="0.5226" style="stop-color:#CEA139"/>
		<stop  offset="0.5955" style="stop-color:#BE820E"/>
		<stop  offset="0.8558" style="stop-color:#E8D56A"/>
		<stop  offset="0.8708" style="stop-color:#EADA6F"/>
		<stop  offset="1" style="stop-color:#FFFFBF"/>
	</linearGradient>
	<path fill="url(#SVGID_7_)" d="M60.829,113.161c0.427-0.275,0.875-0.5,1.331-0.681l-4.815-12.2
		c-1.237,0.489-2.444,1.104-3.604,1.85c-0.004,0.002-0.007,0.004-0.011,0.006l7.09,11.031
		C60.823,113.166,60.825,113.164,60.829,113.161z"/>
	
		<linearGradient id="SVGID_8_" gradientUnits="userSpaceOnUse" x1="456.3848" y1="-326.2158" x2="460.358" y2="-326.979" gradientTransform="matrix(0.7237 -0.6901 -0.6901 -0.7237 -500.3604 188.0332)">
		<stop  offset="0.0056" style="stop-color:#FBCA11"/>
		<stop  offset="0.2528" style="stop-color:#FFFFBF"/>
		<stop  offset="0.2997" style="stop-color:#F9F3AE"/>
		<stop  offset="0.393" style="stop-color:#E8D381"/>
		<stop  offset="0.5226" style="stop-color:#CEA139"/>
		<stop  offset="0.5955" style="stop-color:#BE820E"/>
		<stop  offset="0.8558" style="stop-color:#E8D56A"/>
		<stop  offset="0.8708" style="stop-color:#EADA6F"/>
		<stop  offset="1" style="stop-color:#FFFFBF"/>
	</linearGradient>
	<path fill="url(#SVGID_8_)" d="M59.671,114.067c0.368-0.35,0.764-0.656,1.177-0.919l-7.038-11.068
		c-1.121,0.714-2.19,1.546-3.19,2.497c-0.002,0.003-0.006,0.006-0.008,0.01l9.049,9.49
		C59.665,114.075,59.668,114.071,59.671,114.067z"/>
	
		<linearGradient id="SVGID_9_" gradientUnits="userSpaceOnUse" x1="469.9932" y1="-388.4092" x2="473.9669" y2="-389.1724" gradientTransform="matrix(0.5801 -0.8146 -0.8146 -0.5801 -535.7954 268.7734)">
		<stop  offset="0.0056" style="stop-color:#FBCA11"/>
		<stop  offset="0.2528" style="stop-color:#FFFFBF"/>
		<stop  offset="0.2997" style="stop-color:#F9F3AE"/>
		<stop  offset="0.393" style="stop-color:#E8D381"/>
		<stop  offset="0.5226" style="stop-color:#CEA139"/>
		<stop  offset="0.5955" style="stop-color:#BE820E"/>
		<stop  offset="0.8558" style="stop-color:#E8D56A"/>
		<stop  offset="0.8708" style="stop-color:#EADA6F"/>
		<stop  offset="1" style="stop-color:#FFFFBF"/>
	</linearGradient>
	<path fill="url(#SVGID_9_)" d="M58.706,115.178c0.295-0.414,0.626-0.788,0.982-1.125l-9.004-9.537
		c-0.968,0.914-1.859,1.933-2.659,3.057c-0.002,0.002-0.005,0.006-0.008,0.009l10.682,7.606
		C58.702,115.186,58.704,115.183,58.706,115.178z"/>
	
		<linearGradient id="SVGID_10_" gradientUnits="userSpaceOnUse" x1="471.5518" y1="-452.1689" x2="475.5269" y2="-452.9324" gradientTransform="matrix(0.4154 -0.9096 -0.9096 -0.4154 -555.3293 354.7227)">
		<stop  offset="0.0056" style="stop-color:#FBCA11"/>
		<stop  offset="0.2528" style="stop-color:#FFFFBF"/>
		<stop  offset="0.2997" style="stop-color:#F9F3AE"/>
		<stop  offset="0.393" style="stop-color:#E8D381"/>
		<stop  offset="0.5226" style="stop-color:#CEA139"/>
		<stop  offset="0.5955" style="stop-color:#BE820E"/>
		<stop  offset="0.8558" style="stop-color:#E8D56A"/>
		<stop  offset="0.8708" style="stop-color:#EADA6F"/>
		<stop  offset="1" style="stop-color:#FFFFBF"/>
	</linearGradient>
	<path fill="url(#SVGID_10_)" d="M57.968,116.451c0.211-0.462,0.466-0.893,0.752-1.291L48.073,107.5
		c-0.776,1.081-1.458,2.25-2.034,3.505c-0.002,0.003-0.003,0.007-0.005,0.012l11.93,5.448
		C57.964,116.459,57.966,116.455,57.968,116.451z"/>
	
		<linearGradient id="SVGID_11_" gradientUnits="userSpaceOnUse" x1="461.0508" y1="-514.9658" x2="465.0236" y2="-515.7288" gradientTransform="matrix(0.2358 -0.9718 -0.9718 -0.2358 -558.2197 442.8457)">
		<stop  offset="0.0056" style="stop-color:#FBCA11"/>
		<stop  offset="0.2528" style="stop-color:#FFFFBF"/>
		<stop  offset="0.2997" style="stop-color:#F9F3AE"/>
		<stop  offset="0.393" style="stop-color:#E8D381"/>
		<stop  offset="0.5226" style="stop-color:#CEA139"/>
		<stop  offset="0.5955" style="stop-color:#BE820E"/>
		<stop  offset="0.8558" style="stop-color:#E8D56A"/>
		<stop  offset="0.8708" style="stop-color:#EADA6F"/>
		<stop  offset="1" style="stop-color:#FFFFBF"/>
	</linearGradient>
	<path fill="url(#SVGID_11_)" d="M57.484,117.841c0.12-0.495,0.288-0.966,0.493-1.412l-11.904-5.505
		c-0.558,1.207-1.006,2.484-1.333,3.825c0,0.003-0.001,0.007-0.003,0.012l12.745,3.091
		C57.482,117.849,57.482,117.845,57.484,117.841z"/>
	
		<linearGradient id="SVGID_12_" gradientUnits="userSpaceOnUse" x1="438.8125" y1="-574.6709" x2="442.7858" y2="-575.434" gradientTransform="matrix(0.0476 -0.9989 -0.9989 -0.0476 -544.3799 529.9023)">
		<stop  offset="0.0056" style="stop-color:#FBCA11"/>
		<stop  offset="0.2528" style="stop-color:#FFFFBF"/>
		<stop  offset="0.2997" style="stop-color:#F9F3AE"/>
		<stop  offset="0.393" style="stop-color:#E8D381"/>
		<stop  offset="0.5226" style="stop-color:#CEA139"/>
		<stop  offset="0.5955" style="stop-color:#BE820E"/>
		<stop  offset="0.8558" style="stop-color:#E8D56A"/>
		<stop  offset="0.8708" style="stop-color:#EADA6F"/>
		<stop  offset="1" style="stop-color:#FFFFBF"/>
	</linearGradient>
	<path fill="url(#SVGID_12_)" d="M57.272,119.297c0.025-0.509,0.102-1.003,0.219-1.479l-12.731-3.153
		c-0.319,1.292-0.517,2.63-0.585,4.009c0,0.004,0,0.007,0,0.012l13.098,0.623C57.272,119.305,57.272,119.301,57.272,119.297z"/>
	
		<linearGradient id="SVGID_13_" gradientUnits="userSpaceOnUse" x1="405.6836" y1="-629.1489" x2="409.6578" y2="-629.9122" gradientTransform="matrix(-0.1423 -0.9898 -0.9898 0.1423 -514.3379 612.7759)">
		<stop  offset="0.0056" style="stop-color:#FBCA11"/>
		<stop  offset="0.2528" style="stop-color:#FFFFBF"/>
		<stop  offset="0.2997" style="stop-color:#F9F3AE"/>
		<stop  offset="0.393" style="stop-color:#E8D381"/>
		<stop  offset="0.5226" style="stop-color:#CEA139"/>
		<stop  offset="0.5955" style="stop-color:#BE820E"/>
		<stop  offset="0.8558" style="stop-color:#E8D56A"/>
		<stop  offset="0.8708" style="stop-color:#EADA6F"/>
		<stop  offset="1" style="stop-color:#FFFFBF"/>
	</linearGradient>
	<path fill="url(#SVGID_13_)" d="M57.339,120.767c-0.071-0.504-0.09-1.004-0.065-1.494l-13.097-0.687
		c-0.069,1.329-0.011,2.681,0.185,4.048c0,0.003,0.001,0.007,0.001,0.012l12.98-1.867C57.342,120.775,57.341,120.771,57.339,120.767
		z"/>
	
		<linearGradient id="SVGID_14_" gradientUnits="userSpaceOnUse" x1="362.8291" y1="-676.3164" x2="366.8043" y2="-677.08" gradientTransform="matrix(-0.3271 -0.945 -0.945 0.3271 -469.1348 688.4482)">
		<stop  offset="0.0056" style="stop-color:#FBCA11"/>
		<stop  offset="0.2528" style="stop-color:#FFFFBF"/>
		<stop  offset="0.2997" style="stop-color:#F9F3AE"/>
		<stop  offset="0.393" style="stop-color:#E8D381"/>
		<stop  offset="0.5226" style="stop-color:#CEA139"/>
		<stop  offset="0.5955" style="stop-color:#BE820E"/>
		<stop  offset="0.8558" style="stop-color:#E8D56A"/>
		<stop  offset="0.8708" style="stop-color:#EADA6F"/>
		<stop  offset="1" style="stop-color:#FFFFBF"/>
	</linearGradient>
	<path fill="url(#SVGID_14_)" d="M57.685,122.198c-0.167-0.482-0.281-0.97-0.348-1.455l-12.992,1.803
		c0.185,1.317,0.496,2.636,0.947,3.939c0.001,0.004,0.004,0.008,0.004,0.013l12.392-4.291
		C57.688,122.204,57.687,122.2,57.685,122.198z"/>
	
		<linearGradient id="SVGID_15_" gradientUnits="userSpaceOnUse" x1="311.8535" y1="-714.5591" x2="315.8278" y2="-715.3223" gradientTransform="matrix(-0.5 -0.866 -0.866 0.5 -410.4375 754.2217)">
		<stop  offset="0.0056" style="stop-color:#FBCA11"/>
		<stop  offset="0.2528" style="stop-color:#FFFFBF"/>
		<stop  offset="0.2997" style="stop-color:#F9F3AE"/>
		<stop  offset="0.393" style="stop-color:#E8D381"/>
		<stop  offset="0.5226" style="stop-color:#CEA139"/>
		<stop  offset="0.5955" style="stop-color:#BE820E"/>
		<stop  offset="0.8558" style="stop-color:#E8D56A"/>
		<stop  offset="0.8708" style="stop-color:#EADA6F"/>
		<stop  offset="1" style="stop-color:#FFFFBF"/>
	</linearGradient>
	<path fill="url(#SVGID_15_)" d="M58.294,123.536c-0.255-0.443-0.459-0.899-0.617-1.362l-12.414,4.229
		c0.43,1.26,0.985,2.494,1.675,3.689c0.001,0.004,0.004,0.008,0.007,0.011l11.356-6.557
		C58.299,123.542,58.297,123.538,58.294,123.536z"/>
	
		<linearGradient id="SVGID_16_" gradientUnits="userSpaceOnUse" x1="254.5361" y1="-742.4463" x2="258.5094" y2="-743.2094" gradientTransform="matrix(-0.6549 -0.7557 -0.7557 0.6549 -340.3525 807.6782)">
		<stop  offset="0.0056" style="stop-color:#FBCA11"/>
		<stop  offset="0.2528" style="stop-color:#FFFFBF"/>
		<stop  offset="0.2997" style="stop-color:#F9F3AE"/>
		<stop  offset="0.393" style="stop-color:#E8D381"/>
		<stop  offset="0.5226" style="stop-color:#CEA139"/>
		<stop  offset="0.5955" style="stop-color:#BE820E"/>
		<stop  offset="0.8558" style="stop-color:#E8D56A"/>
		<stop  offset="0.8708" style="stop-color:#EADA6F"/>
		<stop  offset="1" style="stop-color:#FFFFBF"/>
	</linearGradient>
	<path fill="url(#SVGID_16_)" d="M59.146,124.736c-0.333-0.387-0.619-0.796-0.863-1.221l-11.389,6.502
		c0.66,1.155,1.439,2.262,2.342,3.306c0.002,0.004,0.005,0.007,0.007,0.01l9.912-8.588
		C59.151,124.741,59.149,124.738,59.146,124.736z"/>
	
		<linearGradient id="SVGID_17_" gradientUnits="userSpaceOnUse" x1="193.0488" y1="-758.8853" x2="197.024" y2="-759.6487" gradientTransform="matrix(-0.7861 -0.6182 -0.6182 0.7861 -261.3887 846.9102)">
		<stop  offset="0.0056" style="stop-color:#FBCA11"/>
		<stop  offset="0.2528" style="stop-color:#FFFFBF"/>
		<stop  offset="0.2997" style="stop-color:#F9F3AE"/>
		<stop  offset="0.393" style="stop-color:#E8D381"/>
		<stop  offset="0.5226" style="stop-color:#CEA139"/>
		<stop  offset="0.5955" style="stop-color:#BE820E"/>
		<stop  offset="0.8558" style="stop-color:#E8D56A"/>
		<stop  offset="0.8708" style="stop-color:#EADA6F"/>
		<stop  offset="1" style="stop-color:#FFFFBF"/>
	</linearGradient>
	<path fill="url(#SVGID_17_)" d="M60.209,125.752c-0.4-0.315-0.76-0.662-1.078-1.034l-9.954,8.539
		c0.867,1.009,1.843,1.949,2.927,2.804c0.002,0.002,0.006,0.004,0.008,0.008l8.107-10.308
		C60.216,125.757,60.212,125.754,60.209,125.752z"/>
	
		<linearGradient id="SVGID_18_" gradientUnits="userSpaceOnUse" x1="129.4648" y1="-763.5757" x2="133.4391" y2="-764.3389" gradientTransform="matrix(-0.8888 -0.4582 -0.4582 0.8888 -176.4668 870.5168)">
		<stop  offset="0.0056" style="stop-color:#FBCA11"/>
		<stop  offset="0.2528" style="stop-color:#FFFFBF"/>
		<stop  offset="0.2997" style="stop-color:#F9F3AE"/>
		<stop  offset="0.393" style="stop-color:#E8D381"/>
		<stop  offset="0.5226" style="stop-color:#CEA139"/>
		<stop  offset="0.5955" style="stop-color:#BE820E"/>
		<stop  offset="0.8558" style="stop-color:#E8D56A"/>
		<stop  offset="0.8708" style="stop-color:#EADA6F"/>
		<stop  offset="1" style="stop-color:#FFFFBF"/>
	</linearGradient>
	<path fill="url(#SVGID_18_)" d="M61.444,126.549c-0.453-0.234-0.871-0.508-1.254-0.812l-8.156,10.27
		c1.042,0.827,2.177,1.564,3.403,2.197c0.002,0.003,0.007,0.004,0.01,0.008l6.01-11.656C61.453,126.553,61.45,126.55,61.444,126.549
		z"/>
	
		<linearGradient id="SVGID_19_" gradientUnits="userSpaceOnUse" x1="66.1934" y1="-756.0186" x2="70.1666" y2="-756.7817" gradientTransform="matrix(-0.9595 -0.2817 -0.2817 0.9595 -88.5986 877.5918)">
		<stop  offset="0.0056" style="stop-color:#FBCA11"/>
		<stop  offset="0.2528" style="stop-color:#FFFFBF"/>
		<stop  offset="0.2997" style="stop-color:#F9F3AE"/>
		<stop  offset="0.393" style="stop-color:#E8D381"/>
		<stop  offset="0.5226" style="stop-color:#CEA139"/>
		<stop  offset="0.5955" style="stop-color:#BE820E"/>
		<stop  offset="0.8558" style="stop-color:#E8D56A"/>
		<stop  offset="0.8708" style="stop-color:#EADA6F"/>
		<stop  offset="1" style="stop-color:#FFFFBF"/>
	</linearGradient>
	<path fill="url(#SVGID_19_)" d="M62.809,127.098c-0.489-0.145-0.951-0.334-1.385-0.56l-6.067,11.628
		c1.18,0.615,2.434,1.125,3.759,1.514c0.003,0.002,0.007,0.002,0.01,0.004l3.694-12.583C62.817,127.1,62.813,127.098,62.809,127.098
		z"/>
	
		<linearGradient id="SVGID_20_" gradientUnits="userSpaceOnUse" x1="5.5254" y1="-736.6187" x2="9.4977" y2="-737.3815" gradientTransform="matrix(-0.9955 -0.0951 -0.0951 0.9955 -0.958 867.9165)">
		<stop  offset="0.0056" style="stop-color:#FBCA11"/>
		<stop  offset="0.2528" style="stop-color:#FFFFBF"/>
		<stop  offset="0.2997" style="stop-color:#F9F3AE"/>
		<stop  offset="0.393" style="stop-color:#E8D381"/>
		<stop  offset="0.5226" style="stop-color:#CEA139"/>
		<stop  offset="0.5955" style="stop-color:#BE820E"/>
		<stop  offset="0.8558" style="stop-color:#E8D56A"/>
		<stop  offset="0.8708" style="stop-color:#EADA6F"/>
		<stop  offset="1" style="stop-color:#FFFFBF"/>
	</linearGradient>
	<path fill="url(#SVGID_20_)" d="M64.254,127.379c-0.508-0.049-0.999-0.148-1.468-0.288l-3.755,12.565
		c1.273,0.381,2.602,0.644,3.977,0.775c0.003,0.002,0.007,0.002,0.011,0.002l1.247-13.054
		C64.263,127.38,64.258,127.379,64.254,127.379z"/>
	
		<linearGradient id="SVGID_21_" gradientUnits="userSpaceOnUse" x1="-99.5996" y1="-665.6211" x2="-95.6268" y2="-666.3842" gradientTransform="matrix(-0.9595 0.2817 0.2817 0.9595 160.9951 800.2988)">
		<stop  offset="0.0056" style="stop-color:#FBCA11"/>
		<stop  offset="0.2528" style="stop-color:#FFFFBF"/>
		<stop  offset="0.2997" style="stop-color:#F9F3AE"/>
		<stop  offset="0.393" style="stop-color:#E8D381"/>
		<stop  offset="0.5226" style="stop-color:#CEA139"/>
		<stop  offset="0.5955" style="stop-color:#BE820E"/>
		<stop  offset="0.8558" style="stop-color:#E8D56A"/>
		<stop  offset="0.8708" style="stop-color:#EADA6F"/>
		<stop  offset="1" style="stop-color:#FFFFBF"/>
	</linearGradient>
	<path fill="url(#SVGID_21_)" d="M67.169,127.105c-0.489,0.144-0.979,0.234-1.468,0.277l1.184,13.063
		c1.324-0.121,2.655-0.37,3.979-0.76c0.004,0,0.008-0.002,0.012-0.002L67.182,127.1C67.178,127.102,67.173,127.103,67.169,127.105z"
		/>
	
		<linearGradient id="SVGID_22_" gradientUnits="userSpaceOnUse" x1="-140.2188" y1="-616.5518" x2="-136.2459" y2="-617.3148" gradientTransform="matrix(-0.8888 0.4582 0.4582 0.8888 229.4775 744.8027)">
		<stop  offset="0.0056" style="stop-color:#FBCA11"/>
		<stop  offset="0.2528" style="stop-color:#FFFFBF"/>
		<stop  offset="0.2997" style="stop-color:#F9F3AE"/>
		<stop  offset="0.393" style="stop-color:#E8D381"/>
		<stop  offset="0.5226" style="stop-color:#CEA139"/>
		<stop  offset="0.5955" style="stop-color:#BE820E"/>
		<stop  offset="0.8558" style="stop-color:#E8D56A"/>
		<stop  offset="0.8708" style="stop-color:#EADA6F"/>
		<stop  offset="1" style="stop-color:#FFFFBF"/>
	</linearGradient>
	<path fill="url(#SVGID_22_)" d="M68.535,126.561c-0.451,0.233-0.919,0.415-1.388,0.55l3.634,12.602
		c1.276-0.371,2.536-0.866,3.765-1.499c0.004,0,0.007-0.003,0.01-0.005l-6.01-11.653C68.544,126.556,68.538,126.557,68.535,126.561z
		"/>
	
		<linearGradient id="SVGID_23_" gradientUnits="userSpaceOnUse" x1="-170.7725" y1="-560.5591" x2="-166.7997" y2="-561.3221" gradientTransform="matrix(-0.7861 0.6182 0.6182 0.7861 286.2012 677.3164)">
		<stop  offset="0.0056" style="stop-color:#FBCA11"/>
		<stop  offset="0.2528" style="stop-color:#FFFFBF"/>
		<stop  offset="0.2997" style="stop-color:#F9F3AE"/>
		<stop  offset="0.393" style="stop-color:#E8D381"/>
		<stop  offset="0.5226" style="stop-color:#CEA139"/>
		<stop  offset="0.5955" style="stop-color:#BE820E"/>
		<stop  offset="0.8558" style="stop-color:#E8D56A"/>
		<stop  offset="0.8708" style="stop-color:#EADA6F"/>
		<stop  offset="1" style="stop-color:#FFFFBF"/>
	</linearGradient>
	<path fill="url(#SVGID_23_)" d="M69.775,125.767c-0.401,0.316-0.824,0.582-1.261,0.804l5.955,11.687
		c1.183-0.605,2.325-1.33,3.411-2.184c0.002-0.002,0.008-0.006,0.011-0.008l-8.108-10.306
		C69.783,125.761,69.777,125.764,69.775,125.767z"/>
	
		<linearGradient id="SVGID_24_" gradientUnits="userSpaceOnUse" x1="-190.2231" y1="-499.9434" x2="-186.2513" y2="-500.7062" gradientTransform="matrix(-0.6549 0.7557 0.7557 0.6549 329.1724 600.332)">
		<stop  offset="0.0056" style="stop-color:#FBCA11"/>
		<stop  offset="0.2528" style="stop-color:#FFFFBF"/>
		<stop  offset="0.2997" style="stop-color:#F9F3AE"/>
		<stop  offset="0.393" style="stop-color:#E8D381"/>
		<stop  offset="0.5226" style="stop-color:#CEA139"/>
		<stop  offset="0.5955" style="stop-color:#BE820E"/>
		<stop  offset="0.8558" style="stop-color:#E8D56A"/>
		<stop  offset="0.8708" style="stop-color:#EADA6F"/>
		<stop  offset="1" style="stop-color:#FFFFBF"/>
	</linearGradient>
	<path fill="url(#SVGID_24_)" d="M70.843,124.754c-0.335,0.386-0.701,0.726-1.087,1.026l8.061,10.349
		c1.046-0.817,2.031-1.746,2.935-2.789c0.004-0.003,0.006-0.006,0.01-0.009l-9.911-8.586
		C70.847,124.746,70.843,124.75,70.843,124.754z"/>
	
		<linearGradient id="SVGID_25_" gradientUnits="userSpaceOnUse" x1="-197.8379" y1="-436.6846" x2="-193.8661" y2="-437.4474" gradientTransform="matrix(-0.5 0.866 0.866 0.5 356.769 516.623)">
		<stop  offset="0.0056" style="stop-color:#FBCA11"/>
		<stop  offset="0.2528" style="stop-color:#FFFFBF"/>
		<stop  offset="0.2997" style="stop-color:#F9F3AE"/>
		<stop  offset="0.393" style="stop-color:#E8D381"/>
		<stop  offset="0.5226" style="stop-color:#CEA139"/>
		<stop  offset="0.5955" style="stop-color:#BE820E"/>
		<stop  offset="0.8558" style="stop-color:#E8D56A"/>
		<stop  offset="0.8708" style="stop-color:#EADA6F"/>
		<stop  offset="1" style="stop-color:#FFFFBF"/>
	</linearGradient>
	<path fill="url(#SVGID_25_)" d="M71.698,123.556c-0.257,0.443-0.552,0.846-0.872,1.216l9.87,8.636
		c0.873-1.002,1.666-2.1,2.356-3.295c0.002-0.002,0.006-0.007,0.006-0.009l-11.357-6.557
		C71.701,123.548,71.698,123.552,71.698,123.556z"/>
	
		<linearGradient id="SVGID_26_" gradientUnits="userSpaceOnUse" x1="-193.3311" y1="-373.1064" x2="-189.3578" y2="-373.8696" gradientTransform="matrix(-0.3271 0.945 0.945 0.3271 368.022 429.1826)">
		<stop  offset="0.0056" style="stop-color:#FBCA11"/>
		<stop  offset="0.2528" style="stop-color:#FFFFBF"/>
		<stop  offset="0.2997" style="stop-color:#F9F3AE"/>
		<stop  offset="0.393" style="stop-color:#E8D381"/>
		<stop  offset="0.5226" style="stop-color:#CEA139"/>
		<stop  offset="0.5955" style="stop-color:#BE820E"/>
		<stop  offset="0.8558" style="stop-color:#E8D56A"/>
		<stop  offset="0.8708" style="stop-color:#EADA6F"/>
		<stop  offset="1" style="stop-color:#FFFFBF"/>
	</linearGradient>
	<path fill="url(#SVGID_26_)" d="M72.31,122.22c-0.166,0.483-0.379,0.934-0.624,1.356l11.325,6.614
		c0.67-1.149,1.238-2.377,1.69-3.682c0.002-0.003,0.004-0.007,0.006-0.01l-12.394-4.289C72.313,122.21,72.308,122.216,72.31,122.22z
		"/>
	
		<linearGradient id="SVGID_27_" gradientUnits="userSpaceOnUse" x1="-176.8872" y1="-311.5654" x2="-172.9139" y2="-312.3286" gradientTransform="matrix(-0.1423 0.9898 0.9898 0.1423 362.5366 341.2139)">
		<stop  offset="0.0056" style="stop-color:#FBCA11"/>
		<stop  offset="0.2528" style="stop-color:#FFFFBF"/>
		<stop  offset="0.2997" style="stop-color:#F9F3AE"/>
		<stop  offset="0.393" style="stop-color:#E8D381"/>
		<stop  offset="0.5226" style="stop-color:#CEA139"/>
		<stop  offset="0.5955" style="stop-color:#BE820E"/>
		<stop  offset="0.8558" style="stop-color:#E8D56A"/>
		<stop  offset="0.8708" style="stop-color:#EADA6F"/>
		<stop  offset="1" style="stop-color:#FFFFBF"/>
	</linearGradient>
	<path fill="url(#SVGID_27_)" d="M72.659,120.79c-0.074,0.507-0.195,0.989-0.357,1.452l12.372,4.35
		c0.44-1.256,0.768-2.568,0.963-3.935c0.002-0.003,0.002-0.009,0.004-0.012l-12.981-1.866
		C72.659,120.781,72.657,120.787,72.659,120.79z"/>
	
		<linearGradient id="SVGID_28_" gradientUnits="userSpaceOnUse" x1="-149.085" y1="-254.2002" x2="-145.1126" y2="-254.9631" gradientTransform="matrix(0.0476 0.9989 0.9989 -0.0476 340.4795 255.8618)">
		<stop  offset="0.0056" style="stop-color:#FBCA11"/>
		<stop  offset="0.2528" style="stop-color:#FFFFBF"/>
		<stop  offset="0.2997" style="stop-color:#F9F3AE"/>
		<stop  offset="0.393" style="stop-color:#E8D381"/>
		<stop  offset="0.5226" style="stop-color:#CEA139"/>
		<stop  offset="0.5955" style="stop-color:#BE820E"/>
		<stop  offset="0.8558" style="stop-color:#E8D56A"/>
		<stop  offset="0.8708" style="stop-color:#EADA6F"/>
		<stop  offset="1" style="stop-color:#FFFFBF"/>
	</linearGradient>
	<path fill="url(#SVGID_28_)" d="M72.731,119.32c0.023,0.512-0.005,1.008-0.076,1.494l12.973,1.928
		c0.193-1.315,0.264-2.666,0.201-4.046c0.002-0.003,0-0.007,0-0.012l-13.1,0.625C72.729,119.311,72.728,119.318,72.731,119.32z"/>
	
		<linearGradient id="SVGID_29_" gradientUnits="userSpaceOnUse" x1="-110.939" y1="-203.1846" x2="-106.9657" y2="-203.9477" gradientTransform="matrix(0.2358 0.9718 0.9718 -0.2358 302.6953 176.2275)">
		<stop  offset="0.0056" style="stop-color:#FBCA11"/>
		<stop  offset="0.2528" style="stop-color:#FFFFBF"/>
		<stop  offset="0.2997" style="stop-color:#F9F3AE"/>
		<stop  offset="0.393" style="stop-color:#E8D381"/>
		<stop  offset="0.5226" style="stop-color:#CEA139"/>
		<stop  offset="0.5955" style="stop-color:#BE820E"/>
		<stop  offset="0.8558" style="stop-color:#E8D56A"/>
		<stop  offset="0.8708" style="stop-color:#EADA6F"/>
		<stop  offset="1" style="stop-color:#FFFFBF"/>
	</linearGradient>
	<path fill="url(#SVGID_29_)" d="M72.523,117.864c0.122,0.496,0.188,0.99,0.21,1.481l13.102-0.562
		c-0.059-1.328-0.243-2.669-0.567-4.011c0-0.004-0.002-0.008-0.002-0.013l-12.744,3.093
		C72.521,117.854,72.521,117.862,72.523,117.864z"/>
	
		<linearGradient id="SVGID_30_" gradientUnits="userSpaceOnUse" x1="-63.812" y1="-160.3066" x2="-59.8397" y2="-161.0696" gradientTransform="matrix(0.4154 0.9096 0.9096 -0.4154 250.5137 105.1663)">
		<stop  offset="0.0056" style="stop-color:#FBCA11"/>
		<stop  offset="0.2528" style="stop-color:#FFFFBF"/>
		<stop  offset="0.2997" style="stop-color:#F9F3AE"/>
		<stop  offset="0.393" style="stop-color:#E8D381"/>
		<stop  offset="0.5226" style="stop-color:#CEA139"/>
		<stop  offset="0.5955" style="stop-color:#BE820E"/>
		<stop  offset="0.8558" style="stop-color:#E8D56A"/>
		<stop  offset="0.8708" style="stop-color:#EADA6F"/>
		<stop  offset="1" style="stop-color:#FFFFBF"/>
	</linearGradient>
	<path fill="url(#SVGID_30_)" d="M72.045,116.474c0.213,0.465,0.371,0.937,0.485,1.415l12.759-3.032
		c-0.307-1.292-0.742-2.574-1.317-3.83c-0.002-0.004-0.003-0.008-0.003-0.011l-11.929,5.448
		C72.041,116.465,72.043,116.472,72.045,116.474z"/>
	
		<linearGradient id="SVGID_31_" gradientUnits="userSpaceOnUse" x1="-9.4414" y1="-127.0728" x2="-5.47" y2="-127.8355" gradientTransform="matrix(0.5801 0.8146 0.8146 -0.5801 185.8115 45.2949)">
		<stop  offset="0.0056" style="stop-color:#FBCA11"/>
		<stop  offset="0.2528" style="stop-color:#FFFFBF"/>
		<stop  offset="0.2997" style="stop-color:#F9F3AE"/>
		<stop  offset="0.393" style="stop-color:#E8D381"/>
		<stop  offset="0.5226" style="stop-color:#CEA139"/>
		<stop  offset="0.5955" style="stop-color:#BE820E"/>
		<stop  offset="0.8558" style="stop-color:#E8D56A"/>
		<stop  offset="0.8708" style="stop-color:#EADA6F"/>
		<stop  offset="1" style="stop-color:#FFFFBF"/>
	</linearGradient>
	<path fill="url(#SVGID_31_)" d="M71.313,115.199c0.295,0.417,0.54,0.851,0.744,1.297l11.954-5.392
		c-0.547-1.21-1.218-2.386-2.019-3.511c-0.004-0.003-0.004-0.007-0.006-0.01l-10.682,7.606
		C71.305,115.19,71.309,115.197,71.313,115.199z"/>
	
		<linearGradient id="SVGID_32_" gradientUnits="userSpaceOnUse" x1="50.2607" y1="-104.7822" x2="54.2311" y2="-105.5448" gradientTransform="matrix(0.7237 0.6901 0.6901 -0.7237 110.959 -1.2886)">
		<stop  offset="0.0056" style="stop-color:#FBCA11"/>
		<stop  offset="0.2528" style="stop-color:#FFFFBF"/>
		<stop  offset="0.2997" style="stop-color:#F9F3AE"/>
		<stop  offset="0.393" style="stop-color:#E8D381"/>
		<stop  offset="0.5226" style="stop-color:#CEA139"/>
		<stop  offset="0.5955" style="stop-color:#BE820E"/>
		<stop  offset="0.8558" style="stop-color:#E8D56A"/>
		<stop  offset="0.8708" style="stop-color:#EADA6F"/>
		<stop  offset="1" style="stop-color:#FFFFBF"/>
	</linearGradient>
	<path fill="url(#SVGID_32_)" d="M70.351,114.085c0.37,0.354,0.691,0.733,0.977,1.133l10.718-7.557
		c-0.769-1.083-1.646-2.112-2.646-3.066c-0.002-0.002-0.005-0.005-0.007-0.007l-9.051,9.489
		C70.343,114.078,70.347,114.085,70.351,114.085z"/>
	
		<linearGradient id="SVGID_33_" gradientUnits="userSpaceOnUse" x1="113.0684" y1="-94.1738" x2="117.0397" y2="-94.9366" gradientTransform="matrix(0.8413 0.5406 0.5406 -0.8413 28.6641 -32.8213)">
		<stop  offset="0.0056" style="stop-color:#FBCA11"/>
		<stop  offset="0.2528" style="stop-color:#FFFFBF"/>
		<stop  offset="0.2997" style="stop-color:#F9F3AE"/>
		<stop  offset="0.393" style="stop-color:#E8D381"/>
		<stop  offset="0.5226" style="stop-color:#CEA139"/>
		<stop  offset="0.5955" style="stop-color:#BE820E"/>
		<stop  offset="0.8558" style="stop-color:#E8D56A"/>
		<stop  offset="0.8708" style="stop-color:#EADA6F"/>
		<stop  offset="1" style="stop-color:#FFFFBF"/>
	</linearGradient>
	<path fill="url(#SVGID_33_)" d="M69.196,113.174c0.429,0.277,0.817,0.589,1.172,0.927l9.096-9.448
		c-0.96-0.92-2.019-1.763-3.18-2.51c-0.004-0.002-0.007-0.005-0.009-0.006l-7.092,11.03
		C69.186,113.168,69.192,113.174,69.196,113.174z"/>
	
		<linearGradient id="SVGID_34_" gradientUnits="userSpaceOnUse" x1="176.7773" y1="-95.6255" x2="180.7468" y2="-96.3879" gradientTransform="matrix(0.9284 0.3717 0.3717 -0.9284 -58.1523 -48.2319)">
		<stop  offset="0.0056" style="stop-color:#FBCA11"/>
		<stop  offset="0.2528" style="stop-color:#FFFFBF"/>
		<stop  offset="0.2997" style="stop-color:#F9F3AE"/>
		<stop  offset="0.393" style="stop-color:#E8D381"/>
		<stop  offset="0.5226" style="stop-color:#CEA139"/>
		<stop  offset="0.5955" style="stop-color:#BE820E"/>
		<stop  offset="0.8558" style="stop-color:#E8D56A"/>
		<stop  offset="0.8708" style="stop-color:#EADA6F"/>
		<stop  offset="1" style="stop-color:#FFFFBF"/>
	</linearGradient>
	<path fill="url(#SVGID_34_)" d="M67.889,112.499c0.475,0.19,0.914,0.423,1.327,0.688l7.143-11c-1.117-0.72-2.315-1.349-3.598-1.862
		c-0.004-0.001-0.007-0.004-0.008-0.005l-4.876,12.173C67.879,112.494,67.885,112.5,67.889,112.499z"/>
	
		<linearGradient id="SVGID_35_" gradientUnits="userSpaceOnUse" x1="239.0732" y1="-109.1382" x2="243.0436" y2="-109.9007" gradientTransform="matrix(0.9819 0.1893 0.1893 -0.9819 -146.2988 -46.9512)">
		<stop  offset="0.0056" style="stop-color:#FBCA11"/>
		<stop  offset="0.2528" style="stop-color:#FFFFBF"/>
		<stop  offset="0.2997" style="stop-color:#F9F3AE"/>
		<stop  offset="0.393" style="stop-color:#E8D381"/>
		<stop  offset="0.5226" style="stop-color:#CEA139"/>
		<stop  offset="0.5955" style="stop-color:#BE820E"/>
		<stop  offset="0.8558" style="stop-color:#E8D56A"/>
		<stop  offset="0.8708" style="stop-color:#EADA6F"/>
		<stop  offset="1" style="stop-color:#FFFFBF"/>
	</linearGradient>
	<path fill="url(#SVGID_35_)" d="M66.478,112.082c0.503,0.097,0.979,0.242,1.435,0.424l4.931-12.153
		c-1.231-0.497-2.528-0.886-3.884-1.147c-0.004,0-0.008-0.003-0.01-0.003l-2.483,12.877
		C66.468,112.08,66.475,112.083,66.478,112.082z"/>
</g>
<linearGradient id="SVGID_36_" gradientUnits="userSpaceOnUse" x1="1.3335" y1="133.8955" x2="129.1677" y2="133.8955">
	<stop  offset="0.0143" style="stop-color:#FBCB13"/>
	<stop  offset="0.2528" style="stop-color:#FCFEC2"/>
	<stop  offset="0.2986" style="stop-color:#F7EFA7"/>
	<stop  offset="0.3896" style="stop-color:#E6D074"/>
	<stop  offset="0.4799" style="stop-color:#FBCB13"/>
	<stop  offset="0.5159" style="stop-color:#CE9F31"/>
	<stop  offset="0.5955" style="stop-color:#BD810B"/>
	<stop  offset="0.8143" style="stop-color:#E0C454"/>
	<stop  offset="0.8708" style="stop-color:#EDD96B"/>
	<stop  offset="1" style="stop-color:#FCFEC2"/>
</linearGradient>
<polygon fill="url(#SVGID_36_)" points="129,127.344 64.31,127.38 63.085,140.434 129,140.447 "/>
<path fill="#CA9A3C" d="M76.469,127.373c1.938-2.436,2.887-5.516,2.887-8.574c0-7.896-6.427-14.322-14.326-14.322l0,0
	c-7.896,0-14.323,6.426-14.323,14.322c0,7.897,6.427,14.324,14.323,14.324h11.324h8.64h44.01v1.764l0,0H65.029
	c-8.872,0-16.09-7.217-16.09-16.088s7.218-16.089,16.09-16.089c8.87,0,16.087,7.218,16.087,16.089c0,2.22-0.444,4.373-1.324,6.398
	l-0.979,2.175L76.469,127.373z"/>
</svg>
