<?xml version="1.0" encoding="utf-8"?>
<!-- Generator: Adobe Illustrator 16.0.3, SVG Export Plug-In . SVG Version: 6.00 Build 0)  -->
<!DOCTYPE svg PUBLIC "-//W3C//DTD SVG 1.1//EN" "http://www.w3.org/Graphics/SVG/1.1/DTD/svg11.dtd">
<svg version="1.1" id="Layer_1" xmlns="http://www.w3.org/2000/svg" xmlns:xlink="http://www.w3.org/1999/xlink" x="0px" y="0px"
	 width="100px" height="231.515px" viewBox="0 0 100 231.515" enable-background="new 0 0 100 231.515" xml:space="preserve">
<g>
	<g>
		<polygon points="0.359,44.248 0.359,232.432 100.081,232.432 100.081,44.248 50.22,0.139 		"/>
		<path fill="#070606" d="M100.081,232.57H0.359c-0.078,0-0.139-0.063-0.139-0.139V44.248c0-0.04,0.017-0.078,0.047-0.104
			L50.127,0.035c0.053-0.047,0.131-0.047,0.185,0l49.861,44.108c0.029,0.026,0.047,0.065,0.047,0.104v188.184
			C100.22,232.507,100.156,232.57,100.081,232.57z M0.498,232.292h99.443V44.311L50.22,0.325L0.498,44.311V232.292z"/>
	</g>
	<g>
		<g>
			<g>
				
					<linearGradient id="SVGID_1_" gradientUnits="userSpaceOnUse" x1="-287.936" y1="-524.6479" x2="-269.2438" y2="-543.3402" gradientTransform="matrix(0 -1 1 0 584.2158 -246.584)">
					<stop  offset="0.0056" style="stop-color:#FBCA11"/>
					<stop  offset="0.2528" style="stop-color:#FFFFBF"/>
					<stop  offset="0.2997" style="stop-color:#F9F3AE"/>
					<stop  offset="0.393" style="stop-color:#E8D381"/>
					<stop  offset="0.5226" style="stop-color:#CEA139"/>
					<stop  offset="0.5955" style="stop-color:#BE820E"/>
					<stop  offset="0.8558" style="stop-color:#E8D56A"/>
					<stop  offset="0.8708" style="stop-color:#EADA6F"/>
					<stop  offset="1" style="stop-color:#FFFFBF"/>
				</linearGradient>
				<circle fill="url(#SVGID_1_)" cx="50.221" cy="32.005" r="13.218"/>
				<path fill="#D8962D" d="M50.221,45.473c-7.426,0-13.467-6.042-13.467-13.467c0-7.428,6.042-13.47,13.467-13.47
					c7.425,0,13.466,6.042,13.466,13.47C63.687,39.432,57.646,45.473,50.221,45.473z M50.221,19.038
					c-7.149,0-12.965,5.818-12.965,12.969c0,7.15,5.816,12.965,12.965,12.965c7.147,0,12.966-5.815,12.966-12.965
					C63.187,24.856,57.368,19.038,50.221,19.038z"/>
			</g>
			
				<radialGradient id="SVGID_2_" cx="-270.7808" cy="-542.105" r="22.9159" gradientTransform="matrix(0 -1 1 0 584.2163 -246.584)" gradientUnits="userSpaceOnUse">
				<stop  offset="0" style="stop-color:#FFFFBF"/>
				<stop  offset="0.1369" style="stop-color:#F9F3AE"/>
				<stop  offset="0.4091" style="stop-color:#E8D381"/>
				<stop  offset="0.7872" style="stop-color:#CEA139"/>
				<stop  offset="1" style="stop-color:#BE820E"/>
			</radialGradient>
			<path fill="url(#SVGID_2_)" d="M39.091,32.011c0.006,6.151,4.979,11.121,11.128,11.128l0,0
				c6.147-0.007,11.118-4.977,11.132-11.128l0,0c-0.014-6.146-4.984-11.125-11.132-11.138l0,0
				C44.07,20.886,39.097,25.865,39.091,32.011L39.091,32.011z"/>
		</g>
	</g>
</g>
<linearGradient id="rect2786_2_" gradientUnits="userSpaceOnUse" x1="0.0762" y1="190.5674" x2="99.9238" y2="190.5674">
	<stop  offset="0.0056" style="stop-color:#FBCA11"/>
	<stop  offset="0.2528" style="stop-color:#FFFFBF"/>
	<stop  offset="0.2997" style="stop-color:#F9F3AE"/>
	<stop  offset="0.393" style="stop-color:#E8D381"/>
	<stop  offset="0.5226" style="stop-color:#CEA139"/>
	<stop  offset="0.5955" style="stop-color:#BE820E"/>
	<stop  offset="0.8558" style="stop-color:#E8D56A"/>
	<stop  offset="0.8708" style="stop-color:#EADA6F"/>
	<stop  offset="1" style="stop-color:#FFFFBF"/>
</linearGradient>
<rect id="rect2786" x="0.076" y="186.186" fill="url(#rect2786_2_)" width="99.848" height="8.764"/>
<linearGradient id="rect2786_3_" gradientUnits="userSpaceOnUse" x1="0.0762" y1="168.1768" x2="99.9238" y2="168.1768">
	<stop  offset="0.0056" style="stop-color:#FBCA11"/>
	<stop  offset="0.2528" style="stop-color:#FFFFBF"/>
	<stop  offset="0.2997" style="stop-color:#F9F3AE"/>
	<stop  offset="0.393" style="stop-color:#E8D381"/>
	<stop  offset="0.5226" style="stop-color:#CEA139"/>
	<stop  offset="0.5955" style="stop-color:#BE820E"/>
	<stop  offset="0.8558" style="stop-color:#E8D56A"/>
	<stop  offset="0.8708" style="stop-color:#EADA6F"/>
	<stop  offset="1" style="stop-color:#FFFFBF"/>
</linearGradient>
<rect id="rect2786_1_" x="0.076" y="156.795" fill="url(#rect2786_3_)" width="99.848" height="22.764"/>
<linearGradient id="rect2678_2_" gradientUnits="userSpaceOnUse" x1="0.0762" y1="213.1387" x2="99.9238" y2="213.1387">
	<stop  offset="0.0056" style="stop-color:#FBCA11"/>
	<stop  offset="0.2528" style="stop-color:#FFFFBF"/>
	<stop  offset="0.2997" style="stop-color:#F9F3AE"/>
	<stop  offset="0.393" style="stop-color:#E8D381"/>
	<stop  offset="0.5226" style="stop-color:#CEA139"/>
	<stop  offset="0.5955" style="stop-color:#BE820E"/>
	<stop  offset="0.8558" style="stop-color:#E8D56A"/>
	<stop  offset="0.8708" style="stop-color:#EADA6F"/>
	<stop  offset="1" style="stop-color:#FFFFBF"/>
</linearGradient>
<rect id="rect2678_1_" x="0.076" y="201.757" fill="url(#rect2678_2_)" width="99.848" height="22.764"/>
<g>
	<linearGradient id="SVGID_3_" gradientUnits="userSpaceOnUse" x1="50.0869" y1="118.4609" x2="56.9584" y2="119.7807">
		<stop  offset="0.0056" style="stop-color:#FBCA11"/>
		<stop  offset="0.2528" style="stop-color:#FFFFBF"/>
		<stop  offset="0.2997" style="stop-color:#F9F3AE"/>
		<stop  offset="0.393" style="stop-color:#E8D381"/>
		<stop  offset="0.5226" style="stop-color:#CEA139"/>
		<stop  offset="0.5955" style="stop-color:#BE820E"/>
		<stop  offset="0.8558" style="stop-color:#E8D56A"/>
		<stop  offset="0.8708" style="stop-color:#EADA6F"/>
		<stop  offset="1" style="stop-color:#FFFFBF"/>
	</linearGradient>
	<path fill="url(#SVGID_3_)" d="M50.023,130.115c0.88,0,1.739,0.091,2.572,0.254l4.401-22.251c-2.257-0.442-4.587-0.68-6.973-0.68
		c-0.007,0-0.014,0-0.021,0v22.678C50.009,130.116,50.016,130.115,50.023,130.115z"/>
	
		<linearGradient id="SVGID_4_" gradientUnits="userSpaceOnUse" x1="157.7061" y1="112.2783" x2="164.5775" y2="113.5981" gradientTransform="matrix(0.9819 -0.1893 0.1893 0.9819 -130.7607 38.4931)">
		<stop  offset="0.0056" style="stop-color:#FBCA11"/>
		<stop  offset="0.2528" style="stop-color:#FFFFBF"/>
		<stop  offset="0.2997" style="stop-color:#F9F3AE"/>
		<stop  offset="0.393" style="stop-color:#E8D381"/>
		<stop  offset="0.5226" style="stop-color:#CEA139"/>
		<stop  offset="0.5955" style="stop-color:#BE820E"/>
		<stop  offset="0.8558" style="stop-color:#E8D56A"/>
		<stop  offset="0.8708" style="stop-color:#EADA6F"/>
		<stop  offset="1" style="stop-color:#FFFFBF"/>
	</linearGradient>
	<path fill="url(#SVGID_4_)" d="M47.49,130.353c0.864-0.166,1.726-0.239,2.574-0.236l0.11-22.683
		c-2.3-0.008-4.633,0.201-6.976,0.652c-0.007,0.001-0.014,0.003-0.021,0.004l4.292,22.268
		C47.477,130.356,47.483,130.354,47.49,130.353z"/>
	
		<linearGradient id="SVGID_5_" gradientUnits="userSpaceOnUse" x1="264.5557" y1="126.5781" x2="271.4262" y2="127.8977" gradientTransform="matrix(0.9284 -0.3717 0.3717 0.9284 -251.8724 101.0376)">
		<stop  offset="0.0056" style="stop-color:#FBCA11"/>
		<stop  offset="0.2528" style="stop-color:#FFFFBF"/>
		<stop  offset="0.2997" style="stop-color:#F9F3AE"/>
		<stop  offset="0.393" style="stop-color:#E8D381"/>
		<stop  offset="0.5226" style="stop-color:#CEA139"/>
		<stop  offset="0.5955" style="stop-color:#BE820E"/>
		<stop  offset="0.8558" style="stop-color:#E8D56A"/>
		<stop  offset="0.8708" style="stop-color:#EADA6F"/>
		<stop  offset="1" style="stop-color:#FFFFBF"/>
	</linearGradient>
	<path fill="url(#SVGID_5_)" d="M45.047,131.065c0.817-0.326,1.649-0.562,2.483-0.719l-4.185-22.294
		c-2.26,0.427-4.511,1.074-6.727,1.961c-0.006,0.002-0.013,0.005-0.02,0.008l8.429,21.053
		C45.036,131.071,45.042,131.069,45.047,131.065z"/>
	
		<linearGradient id="SVGID_6_" gradientUnits="userSpaceOnUse" x1="366.7646" y1="160.8389" x2="373.6352" y2="162.1584" gradientTransform="matrix(0.8413 -0.5406 0.5406 0.8413 -358.9614 185.3723)">
		<stop  offset="0.0056" style="stop-color:#FBCA11"/>
		<stop  offset="0.2528" style="stop-color:#FFFFBF"/>
		<stop  offset="0.2997" style="stop-color:#F9F3AE"/>
		<stop  offset="0.393" style="stop-color:#E8D381"/>
		<stop  offset="0.5226" style="stop-color:#CEA139"/>
		<stop  offset="0.5955" style="stop-color:#BE820E"/>
		<stop  offset="0.8558" style="stop-color:#E8D56A"/>
		<stop  offset="0.8708" style="stop-color:#EADA6F"/>
		<stop  offset="1" style="stop-color:#FFFFBF"/>
	</linearGradient>
	<path fill="url(#SVGID_6_)" d="M42.784,132.228c0.741-0.475,1.514-0.863,2.303-1.176l-8.328-21.099
		c-2.139,0.847-4.226,1.909-6.233,3.198c-0.006,0.003-0.012,0.007-0.018,0.012l12.261,19.077
		C42.774,132.236,42.779,132.233,42.784,132.228z"/>
	
		<linearGradient id="SVGID_7_" gradientUnits="userSpaceOnUse" x1="460.6445" y1="213.8232" x2="467.516" y2="215.143" gradientTransform="matrix(0.7237 -0.6901 0.6901 0.7237 -448.153 288.4484)">
		<stop  offset="0.0056" style="stop-color:#FBCA11"/>
		<stop  offset="0.2528" style="stop-color:#FFFFBF"/>
		<stop  offset="0.2997" style="stop-color:#F9F3AE"/>
		<stop  offset="0.393" style="stop-color:#E8D381"/>
		<stop  offset="0.5226" style="stop-color:#CEA139"/>
		<stop  offset="0.5955" style="stop-color:#BE820E"/>
		<stop  offset="0.8558" style="stop-color:#E8D56A"/>
		<stop  offset="0.8708" style="stop-color:#EADA6F"/>
		<stop  offset="1" style="stop-color:#FFFFBF"/>
	</linearGradient>
	<path fill="url(#SVGID_7_)" d="M40.782,133.797c0.638-0.606,1.322-1.134,2.038-1.59l-12.17-19.142
		c-1.94,1.236-3.788,2.675-5.517,4.32c-0.004,0.004-0.01,0.009-0.015,0.015l15.649,16.412
		C40.773,133.808,40.778,133.804,40.782,133.797z"/>
	
		<linearGradient id="SVGID_8_" gradientUnits="userSpaceOnUse" x1="542.7988" y1="283.6182" x2="549.6703" y2="284.9379" gradientTransform="matrix(0.5801 -0.8146 0.8146 0.5801 -516.2257 406.5428)">
		<stop  offset="0.0056" style="stop-color:#FBCA11"/>
		<stop  offset="0.2528" style="stop-color:#FFFFBF"/>
		<stop  offset="0.2997" style="stop-color:#F9F3AE"/>
		<stop  offset="0.393" style="stop-color:#E8D381"/>
		<stop  offset="0.5226" style="stop-color:#CEA139"/>
		<stop  offset="0.5955" style="stop-color:#BE820E"/>
		<stop  offset="0.8558" style="stop-color:#E8D56A"/>
		<stop  offset="0.8708" style="stop-color:#EADA6F"/>
		<stop  offset="1" style="stop-color:#FFFFBF"/>
	</linearGradient>
	<path fill="url(#SVGID_8_)" d="M39.113,135.717c0.511-0.716,1.084-1.363,1.7-1.946l-15.572-16.492
		c-1.672,1.58-3.214,3.343-4.6,5.286c-0.003,0.005-0.008,0.011-0.012,0.017l18.473,13.154
		C39.106,135.729,39.11,135.725,39.113,135.717z"/>
	
		<linearGradient id="SVGID_9_" gradientUnits="userSpaceOnUse" x1="610.2607" y1="367.7002" x2="617.1332" y2="369.0201" gradientTransform="matrix(0.4154 -0.9096 0.9096 0.4154 -560.7195 535.3842)">
		<stop  offset="0.0056" style="stop-color:#FBCA11"/>
		<stop  offset="0.2528" style="stop-color:#FFFFBF"/>
		<stop  offset="0.2997" style="stop-color:#F9F3AE"/>
		<stop  offset="0.393" style="stop-color:#E8D381"/>
		<stop  offset="0.5226" style="stop-color:#CEA139"/>
		<stop  offset="0.5955" style="stop-color:#BE820E"/>
		<stop  offset="0.8558" style="stop-color:#E8D56A"/>
		<stop  offset="0.8708" style="stop-color:#EADA6F"/>
		<stop  offset="1" style="stop-color:#FFFFBF"/>
	</linearGradient>
	<path fill="url(#SVGID_9_)" d="M37.837,137.919c0.366-0.801,0.806-1.545,1.301-2.233l-18.412-13.247
		c-1.343,1.868-2.522,3.891-3.516,6.061c-0.003,0.006-0.006,0.013-0.009,0.02l20.629,9.42
		C37.833,137.932,37.835,137.926,37.837,137.919z"/>
	
		<linearGradient id="SVGID_10_" gradientUnits="userSpaceOnUse" x1="660.5898" y1="463.0283" x2="667.4623" y2="464.3483" gradientTransform="matrix(0.2358 -0.9718 0.9718 0.2358 -580.0242 670.319)">
		<stop  offset="0.0056" style="stop-color:#FBCA11"/>
		<stop  offset="0.2528" style="stop-color:#FFFFBF"/>
		<stop  offset="0.2997" style="stop-color:#F9F3AE"/>
		<stop  offset="0.393" style="stop-color:#E8D381"/>
		<stop  offset="0.5226" style="stop-color:#CEA139"/>
		<stop  offset="0.5955" style="stop-color:#BE820E"/>
		<stop  offset="0.8558" style="stop-color:#E8D56A"/>
		<stop  offset="0.8708" style="stop-color:#EADA6F"/>
		<stop  offset="1" style="stop-color:#FFFFBF"/>
	</linearGradient>
	<path fill="url(#SVGID_10_)" d="M37.001,140.322c0.208-0.855,0.499-1.671,0.854-2.44l-20.586-9.522
		c-0.965,2.089-1.741,4.298-2.306,6.616c-0.002,0.006-0.003,0.014-0.005,0.021l22.039,5.345C37,140.336,37,140.329,37.001,140.322z"
		/>
	
		<linearGradient id="SVGID_11_" gradientUnits="userSpaceOnUse" x1="691.9727" y1="566.1602" x2="698.8441" y2="567.4799" gradientTransform="matrix(0.0476 -0.9989 0.9989 0.0476 -573.4447 806.4717)">
		<stop  offset="0.0056" style="stop-color:#FBCA11"/>
		<stop  offset="0.2528" style="stop-color:#FFFFBF"/>
		<stop  offset="0.2997" style="stop-color:#F9F3AE"/>
		<stop  offset="0.393" style="stop-color:#E8D381"/>
		<stop  offset="0.5226" style="stop-color:#CEA139"/>
		<stop  offset="0.5955" style="stop-color:#BE820E"/>
		<stop  offset="0.8558" style="stop-color:#E8D56A"/>
		<stop  offset="0.8708" style="stop-color:#EADA6F"/>
		<stop  offset="1" style="stop-color:#FFFFBF"/>
	</linearGradient>
	<path fill="url(#SVGID_11_)" d="M36.635,142.84c0.043-0.88,0.174-1.735,0.377-2.558l-22.016-5.455
		c-0.552,2.234-0.896,4.55-1.012,6.934c-0.001,0.006-0.001,0.014-0.001,0.021l22.652,1.078
		C36.636,142.854,36.636,142.847,36.635,142.84z"/>
	
		<linearGradient id="SVGID_12_" gradientUnits="userSpaceOnUse" x1="703.2695" y1="673.3672" x2="710.142" y2="674.6871" gradientTransform="matrix(-0.1423 -0.9898 0.9898 -0.1423 -541.2175 938.9167)">
		<stop  offset="0.0056" style="stop-color:#FBCA11"/>
		<stop  offset="0.2528" style="stop-color:#FFFFBF"/>
		<stop  offset="0.2997" style="stop-color:#F9F3AE"/>
		<stop  offset="0.393" style="stop-color:#E8D381"/>
		<stop  offset="0.5226" style="stop-color:#CEA139"/>
		<stop  offset="0.5955" style="stop-color:#BE820E"/>
		<stop  offset="0.8558" style="stop-color:#E8D56A"/>
		<stop  offset="0.8708" style="stop-color:#EADA6F"/>
		<stop  offset="1" style="stop-color:#FFFFBF"/>
	</linearGradient>
	<path fill="url(#SVGID_12_)" d="M36.752,145.382c-0.124-0.873-0.158-1.737-0.114-2.584l-22.649-1.189
		c-0.119,2.299-0.02,4.638,0.318,7c0,0.006,0.002,0.014,0.003,0.021l22.447-3.229C36.756,145.396,36.754,145.388,36.752,145.382z"/>
	
		<linearGradient id="SVGID_13_" gradientUnits="userSpaceOnUse" x1="694.0674" y1="780.7715" x2="700.9398" y2="782.0914" gradientTransform="matrix(-0.3271 -0.945 0.945 -0.3271 -484.5068 1062.8666)">
		<stop  offset="0.0056" style="stop-color:#FBCA11"/>
		<stop  offset="0.2528" style="stop-color:#FFFFBF"/>
		<stop  offset="0.2997" style="stop-color:#F9F3AE"/>
		<stop  offset="0.393" style="stop-color:#E8D381"/>
		<stop  offset="0.5226" style="stop-color:#CEA139"/>
		<stop  offset="0.5955" style="stop-color:#BE820E"/>
		<stop  offset="0.8558" style="stop-color:#E8D56A"/>
		<stop  offset="0.8708" style="stop-color:#EADA6F"/>
		<stop  offset="1" style="stop-color:#FFFFBF"/>
	</linearGradient>
	<path fill="url(#SVGID_13_)" d="M37.348,147.855c-0.287-0.834-0.483-1.677-0.601-2.516l-22.466,3.118
		c0.318,2.279,0.858,4.558,1.638,6.813c0.001,0.006,0.005,0.013,0.007,0.021l21.431-7.419
		C37.355,147.867,37.352,147.86,37.348,147.855z"/>
	
		<linearGradient id="SVGID_14_" gradientUnits="userSpaceOnUse" x1="664.71" y1="884.4961" x2="671.5834" y2="885.8162" gradientTransform="matrix(-0.5 -0.866 0.866 -0.5 -405.3625 1173.8452)">
		<stop  offset="0.0056" style="stop-color:#FBCA11"/>
		<stop  offset="0.2528" style="stop-color:#FFFFBF"/>
		<stop  offset="0.2997" style="stop-color:#F9F3AE"/>
		<stop  offset="0.393" style="stop-color:#E8D381"/>
		<stop  offset="0.5226" style="stop-color:#CEA139"/>
		<stop  offset="0.5955" style="stop-color:#BE820E"/>
		<stop  offset="0.8558" style="stop-color:#E8D56A"/>
		<stop  offset="0.8708" style="stop-color:#EADA6F"/>
		<stop  offset="1" style="stop-color:#FFFFBF"/>
	</linearGradient>
	<path fill="url(#SVGID_14_)" d="M38.402,150.171c-0.44-0.765-0.792-1.555-1.066-2.355l-21.469,7.313
		c0.743,2.179,1.705,4.313,2.897,6.381c0.002,0.006,0.007,0.012,0.01,0.019l19.64-11.34
		C38.411,150.182,38.407,150.176,38.402,150.171z"/>
	
		<linearGradient id="SVGID_15_" gradientUnits="userSpaceOnUse" x1="616.2529" y1="980.791" x2="623.1254" y2="982.111" gradientTransform="matrix(-0.6549 -0.7557 0.7557 -0.6549 -306.6456 1267.8424)">
		<stop  offset="0.0056" style="stop-color:#FBCA11"/>
		<stop  offset="0.2528" style="stop-color:#FFFFBF"/>
		<stop  offset="0.2997" style="stop-color:#F9F3AE"/>
		<stop  offset="0.393" style="stop-color:#E8D381"/>
		<stop  offset="0.5226" style="stop-color:#CEA139"/>
		<stop  offset="0.5955" style="stop-color:#BE820E"/>
		<stop  offset="0.8558" style="stop-color:#E8D56A"/>
		<stop  offset="0.8708" style="stop-color:#EADA6F"/>
		<stop  offset="1" style="stop-color:#FFFFBF"/>
	</linearGradient>
	<path fill="url(#SVGID_15_)" d="M39.875,152.245c-0.577-0.667-1.072-1.376-1.493-2.11l-19.696,11.243
		c1.142,1.998,2.49,3.912,4.053,5.717c0.003,0.006,0.009,0.011,0.013,0.017l17.139-14.852
		C39.885,152.255,39.88,152.249,39.875,152.245z"/>
	
		<linearGradient id="SVGID_16_" gradientUnits="userSpaceOnUse" x1="550.4453" y1="1066.1729" x2="557.3187" y2="1067.4929" gradientTransform="matrix(-0.7861 -0.6182 0.6182 -0.7861 -191.9242 1341.4543)">
		<stop  offset="0.0056" style="stop-color:#FBCA11"/>
		<stop  offset="0.2528" style="stop-color:#FFFFBF"/>
		<stop  offset="0.2997" style="stop-color:#F9F3AE"/>
		<stop  offset="0.393" style="stop-color:#E8D381"/>
		<stop  offset="0.5226" style="stop-color:#CEA139"/>
		<stop  offset="0.5955" style="stop-color:#BE820E"/>
		<stop  offset="0.8558" style="stop-color:#E8D56A"/>
		<stop  offset="0.8708" style="stop-color:#EADA6F"/>
		<stop  offset="1" style="stop-color:#FFFFBF"/>
	</linearGradient>
	<path fill="url(#SVGID_16_)" d="M41.713,154.004c-0.693-0.546-1.313-1.148-1.865-1.79l-17.213,14.768
		c1.499,1.746,3.186,3.37,5.062,4.847c0.003,0.005,0.01,0.009,0.015,0.015l14.019-17.828
		C41.725,154.012,41.719,154.007,41.713,154.004z"/>
	
		<linearGradient id="SVGID_17_" gradientUnits="userSpaceOnUse" x1="469.6689" y1="1137.5557" x2="476.5423" y2="1138.8757" gradientTransform="matrix(-0.8888 -0.4582 0.4582 -0.8888 -65.3451 1392.0256)">
		<stop  offset="0.0056" style="stop-color:#FBCA11"/>
		<stop  offset="0.2528" style="stop-color:#FFFFBF"/>
		<stop  offset="0.2997" style="stop-color:#F9F3AE"/>
		<stop  offset="0.393" style="stop-color:#E8D381"/>
		<stop  offset="0.5226" style="stop-color:#CEA139"/>
		<stop  offset="0.5955" style="stop-color:#BE820E"/>
		<stop  offset="0.8558" style="stop-color:#E8D56A"/>
		<stop  offset="0.8708" style="stop-color:#EADA6F"/>
		<stop  offset="1" style="stop-color:#FFFFBF"/>
	</linearGradient>
	<path fill="url(#SVGID_17_)" d="M43.851,155.382c-0.784-0.404-1.507-0.879-2.17-1.404l-14.107,17.759
		c1.803,1.431,3.766,2.706,5.888,3.801c0.004,0.005,0.012,0.007,0.017,0.012L43.87,155.39
		C43.865,155.388,43.858,155.384,43.851,155.382z"/>
	
		<linearGradient id="SVGID_18_" gradientUnits="userSpaceOnUse" x1="376.8398" y1="1192.3643" x2="383.7113" y2="1193.684" gradientTransform="matrix(-0.9595 -0.2817 0.2817 -0.9595 68.5175 1417.7291)">
		<stop  offset="0.0056" style="stop-color:#FBCA11"/>
		<stop  offset="0.2528" style="stop-color:#FFFFBF"/>
		<stop  offset="0.2997" style="stop-color:#F9F3AE"/>
		<stop  offset="0.393" style="stop-color:#E8D381"/>
		<stop  offset="0.5226" style="stop-color:#CEA139"/>
		<stop  offset="0.5955" style="stop-color:#BE820E"/>
		<stop  offset="0.8558" style="stop-color:#E8D56A"/>
		<stop  offset="0.8708" style="stop-color:#EADA6F"/>
		<stop  offset="1" style="stop-color:#FFFFBF"/>
	</linearGradient>
	<path fill="url(#SVGID_18_)" d="M46.211,156.331c-0.847-0.249-1.646-0.578-2.396-0.968l-10.491,20.107
		c2.04,1.063,4.209,1.944,6.5,2.618c0.005,0.004,0.013,0.004,0.019,0.008l6.389-21.761
		C46.226,156.335,46.218,156.332,46.211,156.331z"/>
	
		<linearGradient id="SVGID_19_" gradientUnits="userSpaceOnUse" x1="275.3232" y1="1228.6172" x2="282.1957" y2="1229.9371" gradientTransform="matrix(-0.9955 -0.0951 0.0951 -0.9955 204.8255 1417.6362)">
		<stop  offset="0.0056" style="stop-color:#FBCA11"/>
		<stop  offset="0.2528" style="stop-color:#FFFFBF"/>
		<stop  offset="0.2997" style="stop-color:#F9F3AE"/>
		<stop  offset="0.393" style="stop-color:#E8D381"/>
		<stop  offset="0.5226" style="stop-color:#CEA139"/>
		<stop  offset="0.5955" style="stop-color:#BE820E"/>
		<stop  offset="0.8558" style="stop-color:#E8D56A"/>
		<stop  offset="0.8708" style="stop-color:#EADA6F"/>
		<stop  offset="1" style="stop-color:#FFFFBF"/>
	</linearGradient>
	<path fill="url(#SVGID_19_)" d="M48.708,156.816c-0.878-0.084-1.726-0.256-2.536-0.497l-6.496,21.73
		c2.204,0.657,4.501,1.112,6.878,1.341c0.006,0.002,0.014,0.001,0.02,0.003l2.155-22.576
		C48.724,156.817,48.715,156.815,48.708,156.816z"/>
	
		<linearGradient id="SVGID_20_" gradientUnits="userSpaceOnUse" x1="61.0518" y1="1240.9229" x2="67.9223" y2="1242.2424" gradientTransform="matrix(-0.9595 0.2817 -0.2817 -0.9595 465.1593 1340.9996)">
		<stop  offset="0.0056" style="stop-color:#FBCA11"/>
		<stop  offset="0.2528" style="stop-color:#FFFFBF"/>
		<stop  offset="0.2997" style="stop-color:#F9F3AE"/>
		<stop  offset="0.393" style="stop-color:#E8D381"/>
		<stop  offset="0.5226" style="stop-color:#CEA139"/>
		<stop  offset="0.5955" style="stop-color:#BE820E"/>
		<stop  offset="0.8558" style="stop-color:#E8D56A"/>
		<stop  offset="0.8708" style="stop-color:#EADA6F"/>
		<stop  offset="1" style="stop-color:#FFFFBF"/>
	</linearGradient>
	<path fill="url(#SVGID_20_)" d="M53.751,156.343c-0.847,0.249-1.697,0.404-2.539,0.48l2.046,22.59
		c2.29-0.211,4.591-0.641,6.883-1.313c0.006,0.001,0.014-0.004,0.02-0.004l-6.39-21.76
		C53.766,156.338,53.757,156.339,53.751,156.343z"/>
	
		<linearGradient id="SVGID_21_" gradientUnits="userSpaceOnUse" x1="-43.9512" y1="1216.5332" x2="-37.0807" y2="1217.8528" gradientTransform="matrix(-0.8888 0.4582 -0.4582 -0.8888 579.7792 1267.2273)">
		<stop  offset="0.0056" style="stop-color:#FBCA11"/>
		<stop  offset="0.2528" style="stop-color:#FFFFBF"/>
		<stop  offset="0.2997" style="stop-color:#F9F3AE"/>
		<stop  offset="0.393" style="stop-color:#E8D381"/>
		<stop  offset="0.5226" style="stop-color:#CEA139"/>
		<stop  offset="0.5955" style="stop-color:#BE820E"/>
		<stop  offset="0.8558" style="stop-color:#E8D56A"/>
		<stop  offset="0.8708" style="stop-color:#EADA6F"/>
		<stop  offset="1" style="stop-color:#FFFFBF"/>
	</linearGradient>
	<path fill="url(#SVGID_21_)" d="M56.114,155.401c-0.784,0.404-1.59,0.717-2.402,0.952l6.284,21.794
		c2.209-0.641,4.387-1.498,6.51-2.592c0.006-0.001,0.013-0.007,0.019-0.008l-10.393-20.157
		C56.128,155.394,56.119,155.396,56.114,155.401z"/>
	
		<linearGradient id="SVGID_22_" gradientUnits="userSpaceOnUse" x1="-142.4429" y1="1172.7139" x2="-135.5724" y2="1174.0334" gradientTransform="matrix(-0.7861 0.6182 -0.6182 -0.7861 678.3661 1173.0964)">
		<stop  offset="0.0056" style="stop-color:#FBCA11"/>
		<stop  offset="0.2528" style="stop-color:#FFFFBF"/>
		<stop  offset="0.2997" style="stop-color:#F9F3AE"/>
		<stop  offset="0.393" style="stop-color:#E8D381"/>
		<stop  offset="0.5226" style="stop-color:#CEA139"/>
		<stop  offset="0.5955" style="stop-color:#BE820E"/>
		<stop  offset="0.8558" style="stop-color:#E8D56A"/>
		<stop  offset="0.8708" style="stop-color:#EADA6F"/>
		<stop  offset="1" style="stop-color:#FFFFBF"/>
	</linearGradient>
	<path fill="url(#SVGID_22_)" d="M58.257,154.029c-0.694,0.546-1.426,1.005-2.179,1.39l10.295,20.211
		c2.048-1.047,4.023-2.301,5.901-3.777c0.006-0.002,0.012-0.008,0.017-0.011l-14.019-17.825
		C58.269,154.019,58.26,154.022,58.257,154.029z"/>
	
		<linearGradient id="SVGID_23_" gradientUnits="userSpaceOnUse" x1="-230.8623" y1="1111.043" x2="-223.9918" y2="1112.3625" gradientTransform="matrix(-0.6549 0.7557 -0.7557 -0.6549 757.3546 1062.0079)">
		<stop  offset="0.0056" style="stop-color:#FBCA11"/>
		<stop  offset="0.2528" style="stop-color:#FFFFBF"/>
		<stop  offset="0.2997" style="stop-color:#F9F3AE"/>
		<stop  offset="0.393" style="stop-color:#E8D381"/>
		<stop  offset="0.5226" style="stop-color:#CEA139"/>
		<stop  offset="0.5955" style="stop-color:#BE820E"/>
		<stop  offset="0.8558" style="stop-color:#E8D56A"/>
		<stop  offset="0.8708" style="stop-color:#EADA6F"/>
		<stop  offset="1" style="stop-color:#FFFFBF"/>
	</linearGradient>
	<path fill="url(#SVGID_23_)" d="M60.101,152.276c-0.578,0.668-1.21,1.257-1.876,1.777l13.934,17.896
		c1.813-1.415,3.516-3.02,5.08-4.825c0.005-0.003,0.01-0.01,0.015-0.014l-17.14-14.851C60.11,152.264,60.103,152.27,60.101,152.276z
		"/>
	
		<linearGradient id="SVGID_24_" gradientUnits="userSpaceOnUse" x1="-306.0103" y1="1033.7568" x2="-299.1397" y2="1035.0764" gradientTransform="matrix(-0.5 0.866 -0.866 -0.5 813.8947 937.9795)">
		<stop  offset="0.0056" style="stop-color:#FBCA11"/>
		<stop  offset="0.2528" style="stop-color:#FFFFBF"/>
		<stop  offset="0.2997" style="stop-color:#F9F3AE"/>
		<stop  offset="0.393" style="stop-color:#E8D381"/>
		<stop  offset="0.5226" style="stop-color:#CEA139"/>
		<stop  offset="0.5955" style="stop-color:#BE820E"/>
		<stop  offset="0.8558" style="stop-color:#E8D56A"/>
		<stop  offset="0.8708" style="stop-color:#EADA6F"/>
		<stop  offset="1" style="stop-color:#FFFFBF"/>
	</linearGradient>
	<path fill="url(#SVGID_24_)" d="M61.58,150.206c-0.441,0.766-0.95,1.463-1.506,2.101l17.068,14.937
		c1.512-1.733,2.881-3.631,4.075-5.7c0.004-0.004,0.008-0.011,0.012-0.016l-19.641-11.339
		C61.587,150.191,61.58,150.199,61.58,150.206z"/>
	
		<linearGradient id="SVGID_25_" gradientUnits="userSpaceOnUse" x1="-365.1733" y1="943.6445" x2="-358.3028" y2="944.9641" gradientTransform="matrix(-0.3271 0.945 -0.945 -0.3271 845.9395 805.4916)">
		<stop  offset="0.0056" style="stop-color:#FBCA11"/>
		<stop  offset="0.2528" style="stop-color:#FFFFBF"/>
		<stop  offset="0.2997" style="stop-color:#F9F3AE"/>
		<stop  offset="0.393" style="stop-color:#E8D381"/>
		<stop  offset="0.5226" style="stop-color:#CEA139"/>
		<stop  offset="0.5955" style="stop-color:#BE820E"/>
		<stop  offset="0.8558" style="stop-color:#E8D56A"/>
		<stop  offset="0.8708" style="stop-color:#EADA6F"/>
		<stop  offset="1" style="stop-color:#FFFFBF"/>
	</linearGradient>
	<path fill="url(#SVGID_25_)" d="M62.641,147.894c-0.289,0.835-0.656,1.615-1.081,2.348l19.587,11.436
		c1.156-1.988,2.141-4.11,2.922-6.367c0.004-0.005,0.006-0.012,0.009-0.018l-21.432-7.417
		C62.645,147.878,62.639,147.888,62.641,147.894z"/>
	
		<linearGradient id="SVGID_26_" gradientUnits="userSpaceOnUse" x1="-406.2153" y1="843.9629" x2="-399.3458" y2="845.2823" gradientTransform="matrix(-0.1423 0.9898 -0.9898 -0.1423 852.3312 669.3337)">
		<stop  offset="0.0056" style="stop-color:#FBCA11"/>
		<stop  offset="0.2528" style="stop-color:#FFFFBF"/>
		<stop  offset="0.2997" style="stop-color:#F9F3AE"/>
		<stop  offset="0.393" style="stop-color:#E8D381"/>
		<stop  offset="0.5226" style="stop-color:#CEA139"/>
		<stop  offset="0.5955" style="stop-color:#BE820E"/>
		<stop  offset="0.8558" style="stop-color:#E8D56A"/>
		<stop  offset="0.8708" style="stop-color:#EADA6F"/>
		<stop  offset="1" style="stop-color:#FFFFBF"/>
	</linearGradient>
	<path fill="url(#SVGID_26_)" d="M63.244,145.422c-0.126,0.875-0.339,1.71-0.617,2.511l21.397,7.521
		c0.759-2.172,1.324-4.441,1.664-6.805c0.003-0.006,0.003-0.014,0.005-0.02l-22.447-3.227
		C63.245,145.406,63.241,145.417,63.244,145.422z"/>
	
		<linearGradient id="SVGID_27_" gradientUnits="userSpaceOnUse" x1="-427.6504" y1="738.3154" x2="-420.7808" y2="739.6348" gradientTransform="matrix(0.0476 0.9989 -0.9989 0.0476 832.8407 534.4268)">
		<stop  offset="0.0056" style="stop-color:#FBCA11"/>
		<stop  offset="0.2528" style="stop-color:#FFFFBF"/>
		<stop  offset="0.2997" style="stop-color:#F9F3AE"/>
		<stop  offset="0.393" style="stop-color:#E8D381"/>
		<stop  offset="0.5226" style="stop-color:#CEA139"/>
		<stop  offset="0.5955" style="stop-color:#BE820E"/>
		<stop  offset="0.8558" style="stop-color:#E8D56A"/>
		<stop  offset="0.8708" style="stop-color:#EADA6F"/>
		<stop  offset="1" style="stop-color:#FFFFBF"/>
	</linearGradient>
	<path fill="url(#SVGID_27_)" d="M63.369,142.881c0.042,0.884-0.009,1.743-0.131,2.583l22.434,3.335
		c0.334-2.275,0.46-4.611,0.347-6.997c0.002-0.006,0.001-0.013,0.001-0.02l-22.652,1.08
		C63.367,142.865,63.365,142.876,63.369,142.881z"/>
	
		<linearGradient id="SVGID_28_" gradientUnits="userSpaceOnUse" x1="-428.7051" y1="630.5215" x2="-421.8355" y2="631.8409" gradientTransform="matrix(0.2358 0.9718 -0.9718 0.2358 788.1707 405.6457)">
		<stop  offset="0.0056" style="stop-color:#FBCA11"/>
		<stop  offset="0.2528" style="stop-color:#FFFFBF"/>
		<stop  offset="0.2997" style="stop-color:#F9F3AE"/>
		<stop  offset="0.393" style="stop-color:#E8D381"/>
		<stop  offset="0.5226" style="stop-color:#CEA139"/>
		<stop  offset="0.5955" style="stop-color:#BE820E"/>
		<stop  offset="0.8558" style="stop-color:#E8D56A"/>
		<stop  offset="0.8708" style="stop-color:#EADA6F"/>
		<stop  offset="1" style="stop-color:#FFFFBF"/>
	</linearGradient>
	<path fill="url(#SVGID_28_)" d="M63.011,140.362c0.208,0.859,0.321,1.713,0.36,2.561l22.659-0.971
		c-0.103-2.297-0.421-4.615-0.983-6.936c0-0.007-0.002-0.014-0.003-0.021l-22.038,5.348
		C63.006,140.347,63.006,140.358,63.011,140.362z"/>
	
		<linearGradient id="SVGID_29_" gradientUnits="userSpaceOnUse" x1="-409.3389" y1="524.4775" x2="-402.4703" y2="525.7968" gradientTransform="matrix(0.4154 0.9096 -0.9096 0.4154 719.9354 287.6472)">
		<stop  offset="0.0056" style="stop-color:#FBCA11"/>
		<stop  offset="0.2528" style="stop-color:#FFFFBF"/>
		<stop  offset="0.2997" style="stop-color:#F9F3AE"/>
		<stop  offset="0.393" style="stop-color:#E8D381"/>
		<stop  offset="0.5226" style="stop-color:#CEA139"/>
		<stop  offset="0.5955" style="stop-color:#BE820E"/>
		<stop  offset="0.8558" style="stop-color:#E8D56A"/>
		<stop  offset="0.8708" style="stop-color:#EADA6F"/>
		<stop  offset="1" style="stop-color:#FFFFBF"/>
	</linearGradient>
	<path fill="url(#SVGID_29_)" d="M62.183,137.957c0.366,0.805,0.64,1.621,0.838,2.446l22.066-5.242
		c-0.535-2.235-1.287-4.451-2.278-6.623c-0.002-0.007-0.004-0.014-0.007-0.02l-20.628,9.421
		C62.175,137.942,62.177,137.954,62.183,137.957z"/>
	
		<linearGradient id="SVGID_30_" gradientUnits="userSpaceOnUse" x1="-370.2539" y1="424.0127" x2="-363.3863" y2="425.3317" gradientTransform="matrix(0.5801 0.8146 -0.8146 0.5801 630.6027 184.6931)">
		<stop  offset="0.0056" style="stop-color:#FBCA11"/>
		<stop  offset="0.2528" style="stop-color:#FFFFBF"/>
		<stop  offset="0.2997" style="stop-color:#F9F3AE"/>
		<stop  offset="0.393" style="stop-color:#E8D381"/>
		<stop  offset="0.5226" style="stop-color:#CEA139"/>
		<stop  offset="0.5955" style="stop-color:#BE820E"/>
		<stop  offset="0.8558" style="stop-color:#E8D56A"/>
		<stop  offset="0.8708" style="stop-color:#EADA6F"/>
		<stop  offset="1" style="stop-color:#FFFFBF"/>
	</linearGradient>
	<path fill="url(#SVGID_30_)" d="M60.914,135.752c0.512,0.721,0.935,1.471,1.286,2.243l20.675-9.323
		c-0.948-2.094-2.105-4.128-3.49-6.073c-0.004-0.005-0.007-0.012-0.01-0.017l-18.473,13.153
		C60.903,135.738,60.908,135.75,60.914,135.752z"/>
	
		<linearGradient id="SVGID_31_" gradientUnits="userSpaceOnUse" x1="-312.8623" y1="332.7607" x2="-305.9947" y2="334.0798" gradientTransform="matrix(0.7237 0.6901 -0.6901 0.7237 523.399 100.506)">
		<stop  offset="0.0056" style="stop-color:#FBCA11"/>
		<stop  offset="0.2528" style="stop-color:#FFFFBF"/>
		<stop  offset="0.2997" style="stop-color:#F9F3AE"/>
		<stop  offset="0.393" style="stop-color:#E8D381"/>
		<stop  offset="0.5226" style="stop-color:#CEA139"/>
		<stop  offset="0.5955" style="stop-color:#BE820E"/>
		<stop  offset="0.8558" style="stop-color:#E8D56A"/>
		<stop  offset="0.8708" style="stop-color:#EADA6F"/>
		<stop  offset="1" style="stop-color:#FFFFBF"/>
	</linearGradient>
	<path fill="url(#SVGID_31_)" d="M59.251,133.827c0.639,0.611,1.196,1.268,1.688,1.958l18.537-13.067
		c-1.328-1.875-2.849-3.654-4.577-5.303c-0.005-0.004-0.009-0.01-0.013-0.014l-15.649,16.411
		C59.238,133.815,59.245,133.826,59.251,133.827z"/>
	
		<linearGradient id="SVGID_32_" gradientUnits="userSpaceOnUse" x1="-239.2368" y1="254.0205" x2="-232.3701" y2="255.3393" gradientTransform="matrix(0.8413 0.5406 -0.5406 0.8413 402.2017 38.1296)">
		<stop  offset="0.0056" style="stop-color:#FBCA11"/>
		<stop  offset="0.2528" style="stop-color:#FFFFBF"/>
		<stop  offset="0.2997" style="stop-color:#F9F3AE"/>
		<stop  offset="0.393" style="stop-color:#E8D381"/>
		<stop  offset="0.5226" style="stop-color:#CEA139"/>
		<stop  offset="0.5955" style="stop-color:#BE820E"/>
		<stop  offset="0.8558" style="stop-color:#E8D56A"/>
		<stop  offset="0.8708" style="stop-color:#EADA6F"/>
		<stop  offset="1" style="stop-color:#FFFFBF"/>
	</linearGradient>
	<path fill="url(#SVGID_32_)" d="M57.254,132.252c0.743,0.479,1.414,1.018,2.027,1.603l15.729-16.34
		c-1.659-1.589-3.489-3.049-5.498-4.34c-0.006-0.004-0.011-0.009-0.015-0.011L57.236,132.24
		C57.239,132.242,57.248,132.252,57.254,132.252z"/>
	
		<linearGradient id="SVGID_33_" gradientUnits="userSpaceOnUse" x1="-152.0425" y1="190.6348" x2="-145.1758" y2="191.9536" gradientTransform="matrix(0.9284 0.3717 -0.3717 0.9284 271.389 -0.1826)">
		<stop  offset="0.0056" style="stop-color:#FBCA11"/>
		<stop  offset="0.2528" style="stop-color:#FFFFBF"/>
		<stop  offset="0.2997" style="stop-color:#F9F3AE"/>
		<stop  offset="0.393" style="stop-color:#E8D381"/>
		<stop  offset="0.5226" style="stop-color:#CEA139"/>
		<stop  offset="0.5955" style="stop-color:#BE820E"/>
		<stop  offset="0.8558" style="stop-color:#E8D56A"/>
		<stop  offset="0.8708" style="stop-color:#EADA6F"/>
		<stop  offset="1" style="stop-color:#FFFFBF"/>
	</linearGradient>
	<path fill="url(#SVGID_33_)" d="M54.994,131.083c0.821,0.329,1.582,0.731,2.295,1.189l12.353-19.021
		c-1.931-1.246-4.003-2.333-6.221-3.221c-0.006-0.002-0.012-0.007-0.016-0.008l-8.43,21.052
		C54.979,131.076,54.988,131.084,54.994,131.083z"/>
	
		<linearGradient id="SVGID_34_" gradientUnits="userSpaceOnUse" x1="-54.4277" y1="144.8965" x2="-47.562" y2="146.2151" gradientTransform="matrix(0.9819 0.1893 -0.1893 0.9819 135.6893 -13.0479)">
		<stop  offset="0.0056" style="stop-color:#FBCA11"/>
		<stop  offset="0.2528" style="stop-color:#FFFFBF"/>
		<stop  offset="0.2997" style="stop-color:#F9F3AE"/>
		<stop  offset="0.393" style="stop-color:#E8D381"/>
		<stop  offset="0.5226" style="stop-color:#CEA139"/>
		<stop  offset="0.5955" style="stop-color:#BE820E"/>
		<stop  offset="0.8558" style="stop-color:#E8D56A"/>
		<stop  offset="0.8708" style="stop-color:#EADA6F"/>
		<stop  offset="1" style="stop-color:#FFFFBF"/>
	</linearGradient>
	<path fill="url(#SVGID_34_)" d="M52.555,130.362c0.868,0.168,1.691,0.419,2.479,0.733l8.529-21.016
		c-2.132-0.858-4.372-1.533-6.718-1.984c-0.006-0.001-0.013-0.005-0.017-0.005l-4.294,22.268
		C52.538,130.358,52.549,130.364,52.555,130.362z"/>
	<linearGradient id="SVGID_35_" gradientUnits="userSpaceOnUse" x1="0.6411" y1="168.1846" x2="100.1668" y2="168.1846">
		<stop  offset="0.0056" style="stop-color:#FBCA11"/>
		<stop  offset="0.2528" style="stop-color:#FFFFBF"/>
		<stop  offset="0.2997" style="stop-color:#F9F3AE"/>
		<stop  offset="0.393" style="stop-color:#E8D381"/>
		<stop  offset="0.5226" style="stop-color:#CEA139"/>
		<stop  offset="0.5955" style="stop-color:#BE820E"/>
		<stop  offset="0.8558" style="stop-color:#E8D56A"/>
		<stop  offset="0.8708" style="stop-color:#EADA6F"/>
		<stop  offset="1" style="stop-color:#FFFFBF"/>
	</linearGradient>
	<polygon fill="url(#SVGID_35_)" points="100,156.812 48.729,156.817 46.656,179.559 100,179.394 	"/>
</g>
</svg>
