<?xml version="1.0" encoding="UTF-8" standalone="no"?>
<!-- Created with Inkscape (http://www.inkscape.org/) -->

<svg
   xmlns:dc="http://purl.org/dc/elements/1.1/"
   xmlns:cc="http://creativecommons.org/ns#"
   xmlns:rdf="http://www.w3.org/1999/02/22-rdf-syntax-ns#"
   xmlns:svg="http://www.w3.org/2000/svg"
   xmlns="http://www.w3.org/2000/svg"
   version="1.0"
   width="91"
   height="152"
   id="svg3547">
  <metadata
     id="metadata23">
    <rdf:RDF>
      <cc:Work
         rdf:about="">
        <dc:format>image/svg+xml</dc:format>
        <dc:type
           rdf:resource="http://purl.org/dc/dcmitype/StillImage" />
        <dc:title></dc:title>
      </cc:Work>
    </rdf:RDF>
  </metadata>
  <defs
     id="defs3549" />
  <rect
     width="90.986626"
     height="152"
     x="0.013205716"
     y="-0.00037573243"
     id="rect3565"
     style="fill:#40667c;fill-opacity:1;stroke:none" />
  <g
     id="g3035">
    <rect
       width="90.986626"
       height="5.1364226"
       x="0.013205716"
       y="140.01466"
       id="rect3567"
       style="fill:#000000;fill-opacity:1;stroke:none" />
    <rect
       width="90.986626"
       height="5.1364226"
       x="0.013205716"
       y="127.45895"
       id="rect3569"
       style="fill:#000000;fill-opacity:1;stroke:none" />
    <path
       d="m -1.8953125e-4,132.59725 0,7.40625 90.98662253125,0 0,-7.40625 -90.98662253125,0 z"
       id="rect3571"
       style="fill:#9ec7e0;fill-opacity:1;stroke:none" />
  </g>
  <g
     id="g3030">
    <path
       d="m 47.180374,75.2535 -1.780988,2 -11.842009,13.34375 -1.406044,1.59375 1.374798,1.59375 7.623879,8.75 -41.15019953125,0 0,5.125 47.86796253125,0 43.11866,0 0,-5.125 -38.213131,0 8.280032,-8.625 1.562271,-1.625 L 61.115825,90.6285 48.961362,77.22225 47.180374,75.2535 z m 0.03119,7.1875 8.84245,9.78125 -9.186149,9.5625 -8.342524,-9.5625 8.686223,-9.78125 z"
       id="rect3581"
       style="fill:#000000;fill-opacity:1;stroke:none" />
    <path
       d="m 47.024147,67.15975 -21.684312,24.5 9.436113,10.875 6.374062,0 -7.623879,-8.75 -1.374798,-1.59375 1.406044,-1.59375 11.842009,-13.34375 1.780988,-2 1.780988,1.96875 12.154463,13.40625 1.49978,1.65625 -1.562271,1.625 -12.560653,13.09375 -0.656154,0.6875 -2.187178,0 -0.0312,-0.0312 -9.092414,0 0.0312,0.0312 -36.55712553125,0 0,7.40625 46.77437353125,0 44.212249,0 0,-7.40625 -37.088297,0 L 69.23963,91.72225 47.024146,67.15975 z"
       id="path3583"
       style="fill:#9ec7e0;fill-opacity:1;stroke:none" />
    <path
       d="m 46.992901,59.72225 -1.718497,1.9375 -24.996325,28.1875 -1.56227,1.78125 1.56227,1.78125 7.936333,9.125 6.561536,0 -9.436113,-10.875 21.684312,-24.5 22.215484,24.5625 -22.465447,23.375 -46.77437353125,0 0,5.125 90.98662253125,0 0,-5.125 -37.244524,0 20.590723,-21.5 L 76.051129,91.816 74.363877,89.941 48.742644,61.6285 46.992901,59.72225 z"
       id="rect3579"
       style="fill:#000000;fill-opacity:1;stroke:none" />
  </g>
</svg>
