<?xml version="1.0" encoding="UTF-8" standalone="no"?>
<!-- Created with Inkscape (http://www.inkscape.org/) -->
<svg
   xmlns:svg="http://www.w3.org/2000/svg"
   xmlns="http://www.w3.org/2000/svg"
   version="1.0"
   width="91"
   height="152"
   id="svg3547">
  <defs
     id="defs3549" />
  <rect
     width="90.986603"
     height="152"
     x="0.013400245"
     y="4.2675783e-006"
     style="fill:#40667c;fill-opacity:1;stroke:none;stroke-width:2;stroke-linecap:round;stroke-linejoin:miter;stroke-miterlimit:4;stroke-dasharray:none;stroke-dashoffset:0;stroke-opacity:1"
     id="rect3660" />
  <g
     id="g3858">
    <rect
       width="90.986603"
       height="5.1364226"
       x="0.013400245"
       y="140.01505"
       style="fill:#000000;fill-opacity:1;stroke:none;stroke-width:2;stroke-linecap:round;stroke-linejoin:miter;stroke-miterlimit:4;stroke-dasharray:none;stroke-dashoffset:0;stroke-opacity:1"
       id="rect3662" />
    <rect
       width="90.986603"
       height="5.1364226"
       x="0.013400245"
       y="127.45933"
       style="fill:#000000;fill-opacity:1;stroke:none;stroke-width:2;stroke-linecap:round;stroke-linejoin:miter;stroke-miterlimit:4;stroke-dasharray:none;stroke-dashoffset:0;stroke-opacity:1"
       id="rect3664" />
    <path
       d="M 5e-006,132.59763 L 5e-006,140.00388 L 90.98661,140.00388 L 90.98661,132.59763 L 5e-006,132.59763 z "
       style="fill:#9ec7e0;fill-opacity:1;stroke:none;stroke-width:2;stroke-linecap:round;stroke-linejoin:miter;stroke-miterlimit:4;stroke-dasharray:none;stroke-dashoffset:0;stroke-opacity:1"
       id="path3666" />
  </g>
  <g
     transform="translate(0,-24.997347)"
     id="g3868">
    <rect
       width="90.986603"
       height="5.1364226"
       x="0.013400245"
       y="140.01505"
       style="fill:#000000;fill-opacity:1;stroke:none;stroke-width:2;stroke-linecap:round;stroke-linejoin:miter;stroke-miterlimit:4;stroke-dasharray:none;stroke-dashoffset:0;stroke-opacity:1"
       id="rect3870" />
    <rect
       width="90.986603"
       height="5.1364226"
       x="0.013400245"
       y="127.45933"
       style="fill:#000000;fill-opacity:1;stroke:none;stroke-width:2;stroke-linecap:round;stroke-linejoin:miter;stroke-miterlimit:4;stroke-dasharray:none;stroke-dashoffset:0;stroke-opacity:1"
       id="rect3872" />
    <path
       d="M 5e-006,132.59763 L 5e-006,140.00388 L 90.98661,140.00388 L 90.98661,132.59763 L 5e-006,132.59763 z "
       style="fill:#9ec7e0;fill-opacity:1;stroke:none;stroke-width:2;stroke-linecap:round;stroke-linejoin:miter;stroke-miterlimit:4;stroke-dasharray:none;stroke-dashoffset:0;stroke-opacity:1"
       id="path3874" />
  </g>
  <g
     transform="translate(0,-49.994694)"
     id="g3995">
    <rect
       width="90.986603"
       height="5.1364226"
       x="0.013400245"
       y="140.01505"
       style="fill:#000000;fill-opacity:1;stroke:none;stroke-width:2;stroke-linecap:round;stroke-linejoin:miter;stroke-miterlimit:4;stroke-dasharray:none;stroke-dashoffset:0;stroke-opacity:1"
       id="rect3997" />
    <rect
       width="90.986603"
       height="5.1364226"
       x="0.013400245"
       y="127.45933"
       style="fill:#000000;fill-opacity:1;stroke:none;stroke-width:2;stroke-linecap:round;stroke-linejoin:miter;stroke-miterlimit:4;stroke-dasharray:none;stroke-dashoffset:0;stroke-opacity:1"
       id="rect3999" />
    <path
       d="M 5e-006,132.59763 L 5e-006,140.00388 L 90.98661,140.00388 L 90.98661,132.59763 L 5e-006,132.59763 z "
       style="fill:#9ec7e0;fill-opacity:1;stroke:none;stroke-width:2;stroke-linecap:round;stroke-linejoin:miter;stroke-miterlimit:4;stroke-dasharray:none;stroke-dashoffset:0;stroke-opacity:1"
       id="path4001" />
  </g>
  <g
     transform="translate(0,-49.994694)"
     id="g4003">
    <path
       d="M 47.180559,75.25388 L 45.399571,77.25388 L 33.557565,90.59763 L 32.151522,92.19138 L 33.526319,93.78513 L 41.150197,102.53513 L 5e-006,102.53513 L 5e-006,107.66013 L 47.867958,107.66013 L 90.98661,107.66013 L 90.98661,102.53513 L 52.773486,102.53513 L 61.053517,93.91013 L 62.615787,92.28513 L 61.116007,90.62888 L 48.961547,77.22263 L 47.180559,75.25388 z M 47.211804,82.44138 L 56.054253,92.22263 L 46.868105,101.78513 L 38.525583,92.22263 L 47.211804,82.44138 z "
       style="fill:#000000;fill-opacity:1;stroke:none;stroke-width:2;stroke-linecap:round;stroke-linejoin:miter;stroke-miterlimit:4;stroke-dasharray:none;stroke-dashoffset:0;stroke-opacity:1"
       id="path4005" />
    <path
       d="M 47.024332,67.16013 L 25.340024,91.66013 L 34.776135,102.53513 L 41.150197,102.53513 L 33.526319,93.78513 L 32.151522,92.19138 L 33.557565,90.59763 L 45.399571,77.25388 L 47.180559,75.25388 L 48.961547,77.22263 L 61.116007,90.62888 L 62.615787,92.28513 L 61.053517,93.91013 L 48.492866,107.00388 L 47.836712,107.69138 L 45.649534,107.69138 L 45.618289,107.66013 L 36.525878,107.66013 L 36.557123,107.69138 L 5e-006,107.69138 L 5e-006,115.09763 L 46.774369,115.09763 L 90.98661,115.09763 L 90.98661,107.69138 L 53.89832,107.69138 L 69.239811,91.72263 L 47.024332,67.16013 z "
       style="fill:#9ec7e0;fill-opacity:1;stroke:none;stroke-width:2;stroke-linecap:round;stroke-linejoin:miter;stroke-miterlimit:4;stroke-dasharray:none;stroke-dashoffset:0;stroke-opacity:1"
       id="path4007" />
    <path
       d="M 46.993087,59.72263 L 45.27459,61.66013 L 20.27827,89.84763 L 18.716,91.62888 L 20.27827,93.41013 L 28.214601,102.53513 L 34.776135,102.53513 L 25.340024,91.66013 L 47.024332,67.16013 L 69.239811,91.72263 L 46.774369,115.09763 L 5e-006,115.09763 L 5e-006,120.22263 L 90.98661,120.22263 L 90.98661,115.09763 L 53.742093,115.09763 L 74.332812,93.59763 L 76.051309,91.81638 L 74.364057,89.94138 L 48.742829,61.62888 L 46.993087,59.72263 z "
       style="fill:#000000;fill-opacity:1;stroke:none;stroke-width:2;stroke-linecap:round;stroke-linejoin:miter;stroke-miterlimit:4;stroke-dasharray:none;stroke-dashoffset:0;stroke-opacity:1"
       id="path4009" />
  </g>
</svg>
