<?xml version="1.0" encoding="UTF-8" standalone="no"?>
<!-- Created with Inkscape (http://www.inkscape.org/) -->

<svg
   xmlns:dc="http://purl.org/dc/elements/1.1/"
   xmlns:cc="http://creativecommons.org/ns#"
   xmlns:rdf="http://www.w3.org/1999/02/22-rdf-syntax-ns#"
   xmlns:svg="http://www.w3.org/2000/svg"
   xmlns="http://www.w3.org/2000/svg"
   version="1.0"
   width="91"
   height="152"
   id="svg3547">
  <metadata
     id="metadata20">
    <rdf:RDF>
      <cc:Work
         rdf:about="">
        <dc:format>image/svg+xml</dc:format>
        <dc:type
           rdf:resource="http://purl.org/dc/dcmitype/StillImage" />
        <dc:title></dc:title>
      </cc:Work>
    </rdf:RDF>
  </metadata>
  <defs
     id="defs3549" />
  <rect
     width="90.986626"
     height="152"
     x="0.013205716"
     y="-0.00037573243"
     id="rect3565"
     style="fill:#40667c;fill-opacity:1;stroke:none" />
  <g
     id="g3017">
    <path
       d="m 47.180374,100.18225 -1.780988,2 -11.842009,13.34375 -1.406044,1.59375 1.374798,1.59375 7.623879,8.75 -41.15019953125,0 0,5.125 47.86796253125,0 43.11866,0 0,-5.125 -38.213131,0 8.280032,-8.625 1.562271,-1.625 -1.49978,-1.65625 -12.154463,-13.40625 -1.780988,-1.96875 z m 0.03119,7.1875 8.84245,9.78125 -9.186149,9.5625 -8.342524,-9.5625 8.686223,-9.78125 z"
       id="rect3581"
       style="fill:#000000;fill-opacity:1;stroke:none" />
    <path
       d="m 47.024147,92.0885 -21.684312,24.5 9.436113,10.875 6.374062,0 -7.623879,-8.75 -1.374798,-1.59375 1.406044,-1.59375 11.842009,-13.34375 1.780988,-2 1.780988,1.96875 12.154463,13.40625 1.49978,1.65625 -1.562271,1.625 -12.560653,13.09375 -0.656154,0.6875 -2.187178,0 -0.0312,-0.0312 -9.092414,0 0.0312,0.0312 -36.55712553125,0 0,7.40625 46.77437353125,0 44.212249,0 0,-7.40625 -37.088297,0 L 69.23963,116.651 47.024146,92.0885 z"
       id="path3583"
       style="fill:#9ec7e0;fill-opacity:1;stroke:none" />
    <path
       d="m 46.992901,84.651 -1.718497,1.9375 -24.996325,28.1875 -1.56227,1.78125 1.56227,1.78125 7.936333,9.125 6.561536,0 -9.436113,-10.875 21.684312,-24.5 22.215484,24.5625 -22.465447,23.375 -46.77437353125,0 0,5.125 90.98662253125,0 0,-5.125 -37.244524,0 20.590723,-21.5 1.718497,-1.78125 -1.687252,-1.875 L 48.742644,86.55725 46.992901,84.651 z"
       id="rect3579"
       style="fill:#000000;fill-opacity:1;stroke:none" />
  </g>
</svg>
